<svg width="469" height="433" viewBox="0 0 469 433" fill="none" xmlns="http://www.w3.org/2000/svg">
<g clip-path="url(#clip0_623_6019)">
<path d="M377.099 98.1103C366.575 87.8146 355.691 77.1666 348.994 63.3526C345.725 56.6103 343.666 49.5103 341.667 42.6443C340.561 38.8333 339.453 35.0103 338.137 31.2709C334.172 20.0372 329.191 12.7393 323.749 10.1804C320.796 8.78623 317.568 8.76595 313.883 10.1131C309.089 11.8713 307.746 14.4005 307.152 16.1608C303.219 27.6583 317.876 51.0188 327.572 66.4754C332.65 74.5726 336.663 80.9627 338.091 85.3716C340.91 94.0518 340.821 103.182 340.305 111.75C338.381 143.456 330.932 172.317 318.165 197.54C302.68 228.13 277.52 253.004 245.407 269.46C219.689 282.631 192.113 290.29 166.147 296.597C138.09 303.408 114.393 307.795 89.9178 307.067C87.5677 306.997 85.7371 306.942 84.4207 307.365C84.0844 307.474 83.7522 307.621 83.4191 307.814C82.2215 308.505 81.0518 309.719 80.0405 311.339C71.5759 324.941 86.4393 338.27 100.395 347.06C134.529 368.55 179.079 376.585 222.63 369.118C262.246 362.34 301.635 343.187 336.568 313.787C383.07 274.627 410.702 224.136 412.383 175.259C412.852 161.505 411.006 141.355 399.526 123.484C393.54 114.197 385.559 106.386 377.099 98.1103L377.099 98.1103Z" fill="url(#paint0_linear_623_6019)" fill-opacity="0.15"/>
<path d="M173.008 283.424C195.449 277.707 218.705 270.636 240.325 259.553C270.364 244.179 293.813 220.989 308.23 192.517C318.996 171.249 325.735 147.161 328.379 120.813C322.018 133.25 314.33 144.973 305.129 155.474C285.694 177.644 260.277 191.887 231.612 198.377C208.471 203.61 184.546 204.24 160.821 203.94C139.098 203.658 117.146 202.579 96.2782 196.561C94.2274 195.969 92.1369 195.323 90.0127 195.451C87.1656 195.623 84.5543 197.176 82.4923 199.151C69.1112 211.936 81.7493 229.592 91.6545 240.06C113.133 262.756 142.263 277.368 173.009 283.424L173.008 283.424Z" fill="url(#paint1_linear_623_6019)" fill-opacity="0.15"/>
</g>
<defs>
<linearGradient id="paint0_linear_623_6019" x1="164.793" y1="95.891" x2="304.254" y2="337.444" gradientUnits="userSpaceOnUse">
<stop stop-color="#3F3F3F"/>
<stop offset="1"/>
</linearGradient>
<linearGradient id="paint1_linear_623_6019" x1="185.029" y1="139.411" x2="250.985" y2="253.65" gradientUnits="userSpaceOnUse">
<stop stop-color="#3F3F3F"/>
<stop offset="1"/>
</linearGradient>
<clipPath id="clip0_623_6019">
<rect width="379.614" height="279.677" fill="white" transform="translate(0.176758 190.648) rotate(-30)"/>
</clipPath>
</defs>
</svg>
