<svg width="69" height="64" viewBox="0 0 69 64" fill="none" xmlns="http://www.w3.org/2000/svg">
<path d="M12.1154 62.6229C12.7779 62.8638 13.494 62.9863 14.2676 62.9863H61.5176C63.2402 62.9863 64.703 62.3794 65.9329 61.1516C67.1606 59.9217 67.7676 58.4589 67.7676 56.7363V9.48633C67.7676 7.76359 67.1605 6.30071 65.9326 5.07071C65.2466 4.38598 64.4925 3.89898 63.6698 3.59977C63.0073 3.35882 62.2912 3.23633 61.5176 3.23633H14.2676C12.545 3.23633 11.0822 3.8433 9.85226 5.07101C8.62455 6.30095 8.01758 7.76373 8.01758 9.48633V56.7363C8.01758 58.4588 8.62445 59.9215 9.85195 61.1513C9.85197 61.1514 9.85198 61.1514 9.85199 61.1514M12.1154 62.6229L66.2865 61.5052C64.9635 62.826 63.3738 63.4863 61.5176 63.4863H14.2676C13.4402 63.4863 12.6659 63.3551 11.9445 63.0928C11.0473 62.7665 10.232 62.2373 9.4987 61.5052L9.85256 61.152C9.85237 61.1518 9.85218 61.1516 9.85199 61.1514M12.1154 62.6229C11.2924 62.3236 10.5382 61.8364 9.85199 61.1514M12.1154 62.6229L9.85199 61.1514M21.6333 43.8508L21.632 43.852C20.8883 44.5984 20.5176 45.5294 20.5176 46.6113C20.5176 47.6932 20.8883 48.6236 21.6327 49.3679C22.0324 49.7676 22.4902 50.0649 23.0042 50.2521C23.4378 50.41 23.9021 50.4863 24.3926 50.4863C25.475 50.4863 26.4063 50.1141 27.1525 49.3679C27.8968 48.6236 28.2676 47.6932 28.2676 46.6113C28.2676 45.5294 27.8969 44.5984 27.1531 43.852L27.1519 43.8508C26.7531 43.4534 26.2966 43.1577 25.7843 42.9711C25.3498 42.8128 24.8844 42.7363 24.3926 42.7363C23.3107 42.7363 22.3796 43.107 21.6333 43.8508ZM21.6333 30.3508L21.632 30.352C20.8883 31.0984 20.5176 32.0294 20.5176 33.1113C20.5176 34.1932 20.8883 35.1236 21.6327 35.8679C22.0324 36.2676 22.4902 36.5649 23.0042 36.7521C23.4378 36.91 23.9021 36.9863 24.3926 36.9863C25.475 36.9863 26.4063 36.6141 27.1525 35.8679C27.8968 35.1236 28.2676 34.1932 28.2676 33.1113C28.2676 32.0294 27.8969 31.0984 27.1531 30.352L27.1519 30.3508C26.7531 29.9534 26.2966 29.6577 25.7843 29.4711C25.3498 29.3128 24.8844 29.2363 24.3926 29.2363C23.3107 29.2363 22.3796 29.607 21.6333 30.3508ZM27.1531 16.852L27.1519 16.8508C26.7531 16.4534 26.2966 16.1577 25.7843 15.9711C25.3498 15.8128 24.8844 15.7363 24.3926 15.7363C23.3107 15.7363 22.3796 16.107 21.6333 16.8508L21.632 16.852C20.8883 17.5984 20.5176 18.5294 20.5176 19.6113C20.5176 20.6932 20.8883 21.6236 21.6327 22.3679C22.0324 22.7676 22.4902 23.0649 23.0042 23.2521C23.4378 23.41 23.9021 23.4863 24.3926 23.4863C25.475 23.4863 26.4063 23.1141 27.1525 22.3679C27.8968 21.6236 28.2676 20.6932 28.2676 19.6113C28.2676 18.5294 27.8969 17.5984 27.1531 16.852ZM34.0176 49.9863V50.4863H34.5176H54.7676H55.2676V49.9863V43.2363V42.7363H54.7676H34.5176H34.0176V43.2363V49.9863ZM34.0176 36.4863V36.9863H34.5176H54.7676H55.2676V36.4863V29.7363V29.2363H54.7676H34.5176H34.0176V29.7363V36.4863ZM34.0176 22.9863V23.4863H34.5176H54.7676H55.2676V22.9863V16.2363V15.7363H54.7676H34.5176H34.0176V16.2363V22.9863Z" fill="#575843" stroke="#575843"/>
<path d="M7.04821 8.78259L0.508387 6.40229C0.58019 4.93235 1.11327 3.65817 2.11674 2.56192L8.62813 4.93187C7.70482 6.05224 7.17624 7.33961 7.04821 8.78259Z" fill="#575843" stroke="#575843" stroke-linejoin="round"/>
<path d="M12.2077 2.5184C11.1663 2.81962 10.2211 3.36137 9.37735 4.14092L2.93803 1.7972C4.01363 0.947019 5.25044 0.517363 6.66357 0.500516L12.2077 2.5184Z" fill="#575843" stroke="#575843" stroke-linejoin="round"/>
<path d="M7.01754 56.0221L0.5 53.6499V7.46407L7.01754 9.83626V56.0221Z" fill="#575843" stroke="#575843" stroke-linejoin="round"/>
<path d="M20.5718 18.917L14.0166 16.5311C14.0729 15.9634 14.2722 15.4751 14.6138 15.0537L21.1523 17.4335C20.8527 17.8794 20.6593 18.3756 20.5718 18.917Z" fill="#575843" stroke="#575843" stroke-linejoin="round"/>
<path d="M14.7478 18.8475C14.4158 18.4921 14.194 18.0856 14.0831 17.6193L20.5313 19.9663C20.561 20.3442 20.639 20.7019 20.7655 21.0378L14.7478 18.8475Z" fill="#575843" stroke="#575843" stroke-linejoin="round"/>
<path d="M21.8718 16.631L15.5075 14.3146C15.8862 14.1168 16.3113 14.0121 16.7897 14.001L22.6336 16.128C22.3636 16.2615 22.1094 16.4291 21.8718 16.631Z" fill="#575843" stroke="#575843" stroke-linejoin="round"/>
<path d="M2.25829 58.3377C1.25477 57.3024 0.683937 56.1043 0.537772 54.7278L7.02514 57.089C7.07837 58.3142 7.41097 59.4316 8.01956 60.4346L2.25829 58.3377Z" fill="#575843" stroke="#575843" stroke-linejoin="round"/>
<mask id="path-9-inside-1_1045_15296" fill="white">
<path d="M15.6579 20.0453C15.2162 19.8845 14.8199 19.6285 14.4688 19.2773L21.9863 22.0135C22.3374 22.3646 22.7338 22.6206 23.1754 22.7815L15.6579 20.0453Z"/>
</mask>
<path d="M15.6579 20.0453C15.2162 19.8845 14.8199 19.6285 14.4688 19.2773L21.9863 22.0135C22.3374 22.3646 22.7338 22.6206 23.1754 22.7815L15.6579 20.0453Z" fill="#575843"/>
<path d="M14.4688 19.2773L14.8108 18.3377C14.3702 18.1773 13.8773 18.3446 13.6254 18.74C13.3734 19.1355 13.4301 19.6529 13.7616 19.9845L14.4688 19.2773ZM15.6579 20.0453L15.3156 20.9849L15.3159 20.985L15.6579 20.0453ZM23.1754 22.7815L22.8334 23.7212C23.3523 23.9101 23.9261 23.6425 24.1151 23.1236C24.304 22.6047 24.0366 22.0309 23.5177 21.8419L23.1754 22.7815ZM21.9863 22.0135L22.6934 21.3064C22.5901 21.2031 22.4655 21.1238 22.3283 21.0738L21.9863 22.0135ZM13.7616 19.9845C14.21 20.4328 14.7292 20.7713 15.3156 20.9849L16.0001 19.1057C15.7033 18.9976 15.4297 18.8241 15.1759 18.5702L13.7616 19.9845ZM15.3159 20.985L22.8334 23.7212L23.5174 21.8418L15.9999 19.1056L15.3159 20.985ZM23.5177 21.8419C23.2209 21.7338 22.9473 21.5603 22.6934 21.3064L21.2792 22.7206C21.7275 23.169 22.2467 23.5075 22.8332 23.7211L23.5177 21.8419ZM22.3283 21.0738L14.8108 18.3377L14.1267 20.217L21.6443 22.9532L22.3283 21.0738Z" fill="#575843" mask="url(#path-9-inside-1_1045_15296)"/>
<mask id="path-11-inside-2_1045_15296" fill="white">
<path d="M16.875 13.5C17.3144 13.5 17.7213 13.5682 18.0956 13.7045L25.6116 16.4401C25.2377 16.3042 24.8314 16.2362 24.3925 16.2362L16.875 13.5Z"/>
</mask>
<path d="M16.875 13.5C17.3144 13.5 17.7213 13.5682 18.0956 13.7045L25.6116 16.4401C25.2377 16.3042 24.8314 16.2362 24.3925 16.2362L16.875 13.5Z" fill="#575843"/>
<path d="M25.4406 16.91C25.4412 16.9102 25.4416 16.9103 25.4419 16.9105L25.7843 15.9709C25.7837 15.9707 25.783 15.9704 25.7826 15.9703L25.4406 16.91ZM18.0956 13.7045L17.7533 14.6441L17.7536 14.6442L18.0956 13.7045ZM16.875 13.5V12.5C16.3897 12.5 15.9745 12.8484 15.8902 13.3264C15.8059 13.8043 16.077 14.2737 16.533 14.4397L16.875 13.5ZM24.3925 16.2362L24.0505 17.1759C24.1601 17.2158 24.2759 17.2362 24.3925 17.2362V16.2362ZM25.6116 16.4401L25.2698 17.3799C25.7888 17.5687 26.3625 17.301 26.5513 16.782C26.7402 16.2631 26.4726 15.6893 25.9536 15.5004L25.6116 16.4401ZM18.4378 12.7649C17.9431 12.5847 17.4192 12.5 16.875 12.5V14.5C17.2097 14.5 17.4994 14.5516 17.7533 14.6441L18.4378 12.7649ZM16.533 14.4397L24.0505 17.1759L24.7346 15.2965L17.217 12.5603L16.533 14.4397ZM24.3925 17.2362C24.7267 17.2362 25.0162 17.2877 25.2698 17.3799L25.9534 15.5004C25.4592 15.3206 24.936 15.2362 24.3925 15.2362V17.2362ZM25.9536 15.5004L18.4376 12.7648L17.7536 14.6442L25.2696 17.3798L25.9536 15.5004Z" fill="#575843" mask="url(#path-11-inside-2_1045_15296)"/>
<mask id="path-13-inside-3_1045_15296" fill="white">
<path d="M16.8755 20.2509C16.4379 20.2509 16.0327 20.1831 15.6597 20.0474L23.1757 22.783C23.5491 22.919 23.9549 22.9871 24.393 22.9871L16.8755 20.2509Z"/>
</mask>
<path d="M16.8755 20.2509C16.4379 20.2509 16.0327 20.1831 15.6597 20.0474L23.1757 22.783C23.5491 22.919 23.9549 22.9871 24.393 22.9871L16.8755 20.2509Z" fill="#575843"/>
<path d="M15.4871 20.5167C15.4877 20.5169 15.4882 20.5171 15.4888 20.5173L15.8306 19.5775C15.8302 19.5774 15.8298 19.5772 15.8293 19.5771L15.4871 20.5167ZM15.6597 20.0474L16.0015 19.1076C15.4825 18.9189 14.9088 19.1866 14.72 19.7055C14.5312 20.2245 14.7988 20.7982 15.3177 20.9871L15.6597 20.0474ZM16.8755 20.2509L17.2175 19.3112C17.1079 19.2713 16.9921 19.2509 16.8755 19.2509V20.2509ZM24.393 22.9871V23.9871C24.8783 23.9871 25.2935 23.6386 25.3778 23.1607C25.4621 22.6828 25.191 22.2133 24.735 22.0474L24.393 22.9871ZM23.1757 22.783L23.518 21.8434L23.5178 21.8433L23.1757 22.783ZM15.3179 20.9872C15.8111 21.1666 16.3333 21.2509 16.8755 21.2509V19.2509C16.5426 19.2509 16.2543 19.1996 16.0015 19.1076L15.3179 20.9872ZM16.5334 21.1906L24.051 23.9267L24.735 22.0474L17.2175 19.3112L16.5334 21.1906ZM24.393 21.9871C24.0597 21.9871 23.771 21.9356 23.518 21.8434L22.8335 23.7226C23.3272 23.9025 23.8501 23.9871 24.393 23.9871V21.9871ZM23.5178 21.8433L16.0017 19.1077L15.3177 20.9871L22.8337 23.7227L23.5178 21.8433Z" fill="#575843" mask="url(#path-13-inside-3_1045_15296)"/>
<mask id="path-15-inside-4_1045_15296" fill="white">
<path d="M18.0957 13.7051C18.536 13.8655 18.9313 14.1202 19.2815 14.4692L26.799 17.2053C26.4488 16.8563 26.0535 16.6016 25.6132 16.4412L18.0957 13.7051Z"/>
</mask>
<path d="M18.0957 13.7051C18.536 13.8655 18.9313 14.1202 19.2815 14.4692L26.799 17.2053C26.4488 16.8563 26.0535 16.6016 25.6132 16.4412L18.0957 13.7051Z" fill="#575843"/>
<path d="M19.2815 14.4692L18.5756 15.1775C18.6786 15.2802 18.8028 15.3591 18.9395 15.4089L19.2815 14.4692ZM18.0957 13.7051L18.4377 12.7654C17.9188 12.5765 17.345 12.844 17.1561 13.3629C16.9671 13.8818 17.2346 14.4557 17.7534 14.6447L18.0957 13.7051ZM25.6132 16.4412L25.9555 15.5016L25.9553 15.5015L25.6132 16.4412ZM26.799 17.2053L26.457 18.145C26.8979 18.3055 27.3911 18.1379 27.6429 17.7419C27.8947 17.346 27.8373 16.8282 27.5049 16.497L26.799 17.2053ZM19.9874 13.7608C19.54 13.315 19.0223 12.9783 18.438 12.7655L17.7534 14.6447C18.0497 14.7526 18.3225 14.9253 18.5756 15.1775L19.9874 13.7608ZM17.7537 14.6448L25.2712 17.3809L25.9553 15.5015L18.4377 12.7654L17.7537 14.6448ZM25.271 17.3808C25.5672 17.4887 25.8401 17.6615 26.0932 17.9137L27.5049 16.497C27.0575 16.0512 26.5399 15.7145 25.9555 15.5016L25.271 17.3808ZM27.1411 16.2656L19.6235 13.5295L18.9395 15.4089L26.457 18.145L27.1411 16.2656Z" fill="#575843" mask="url(#path-15-inside-4_1045_15296)"/>
<path d="M20.5718 32.417L14.0166 30.0311C14.0729 29.4634 14.2722 28.9751 14.6138 28.5537L21.1523 30.9335C20.8527 31.3794 20.6593 31.8756 20.5718 32.417Z" fill="#575843" stroke="#575843" stroke-linejoin="round"/>
<mask id="path-18-inside-5_1045_15296" fill="white">
<path d="M1.98145 58.7695C2.71478 59.5016 3.53003 60.0308 4.4272 60.3571L11.9419 63.0922C11.0458 62.7658 10.2315 62.237 9.49899 61.5057L1.98145 58.7695Z"/>
</mask>
<path d="M1.98145 58.7695C2.71478 59.5016 3.53003 60.0308 4.4272 60.3571L11.9419 63.0922C11.0458 62.7658 10.2315 62.237 9.49899 61.5057L1.98145 58.7695Z" fill="#575843"/>
<path d="M11.7706 63.562C11.7717 63.5624 11.773 63.5628 11.7737 63.5631L12.1158 62.6234C12.1146 62.623 12.1139 62.6227 12.1131 62.6224L11.7706 63.562ZM4.4272 60.3571L4.76922 59.4174L4.76899 59.4173L4.4272 60.3571ZM1.98145 58.7695L2.32347 57.8298C1.88271 57.6694 1.38968 57.8369 1.13783 58.2326C0.885975 58.6283 0.942993 59.1459 1.27494 59.4772L1.98145 58.7695ZM9.49899 61.5057L10.2055 60.798C10.1024 60.695 9.97795 60.6158 9.84101 60.566L9.49899 61.5057ZM11.9419 63.0922L11.5998 64.0319C12.1188 64.2208 12.6926 63.9533 12.8815 63.4343C13.0704 62.9154 12.803 62.3416 12.2841 62.1526L11.9419 63.0922ZM4.76899 59.4173C4.02026 59.145 3.32703 58.6998 2.68795 58.0618L1.27494 59.4772C2.10253 60.3034 3.03981 60.9166 4.08542 61.2969L4.76899 59.4173ZM1.63943 59.7092L9.15697 62.4454L9.84101 60.566L2.32347 57.8298L1.63943 59.7092ZM8.79248 62.2134C9.61917 63.0387 10.5553 63.6514 11.5996 64.0318L12.2841 62.1526C11.5363 61.8802 10.8439 61.4353 10.2055 60.798L8.79248 62.2134ZM12.2839 62.1525L4.76922 59.4174L4.08518 61.2968L11.5998 64.0319L12.2839 62.1525Z" fill="#575843" mask="url(#path-18-inside-5_1045_15296)"/>
<path d="M25.7625 22.1684C25.3832 22.3679 24.9573 22.4734 24.478 22.4845L18.6327 20.357C18.9034 20.2229 19.1583 20.0543 19.3965 19.8513L25.7625 22.1684Z" fill="#575843" stroke="#575843" stroke-linejoin="round"/>
<path d="M27.1844 18.867L20.7361 16.52C20.7063 16.1408 20.6279 15.7818 20.5008 15.4447L26.5192 17.6352C26.8515 17.9923 27.0735 18.3999 27.1844 18.867Z" fill="#575843" stroke="#575843" stroke-linejoin="round"/>
<path d="M14.7478 32.3475C14.4158 31.9921 14.194 31.5856 14.0831 31.1193L20.5313 33.4663C20.561 33.8442 20.639 34.2019 20.7655 34.5378L14.7478 32.3475Z" fill="#575843" stroke="#575843" stroke-linejoin="round"/>
<path d="M21.8718 30.131L15.5075 27.8146C15.8862 27.6168 16.3113 27.5121 16.7897 27.501L22.6336 29.628C22.3636 29.7615 22.1094 29.9291 21.8718 30.131Z" fill="#575843" stroke="#575843" stroke-linejoin="round"/>
<path d="M26.6541 21.4294L20.1159 19.0497C20.4151 18.605 20.6082 18.1098 20.6956 17.5693L27.2508 19.9552C27.1945 20.5225 26.9953 21.0096 26.6541 21.4294Z" fill="#575843" stroke="#575843" stroke-linejoin="round"/>
<mask id="path-25-inside-6_1045_15296" fill="white">
<path d="M15.6579 33.5453C15.2162 33.3845 14.8199 33.1285 14.4688 32.7773L21.9863 35.5135C22.3374 35.8646 22.7338 36.1206 23.1754 36.2815L15.6579 33.5453Z"/>
</mask>
<path d="M15.6579 33.5453C15.2162 33.3845 14.8199 33.1285 14.4688 32.7773L21.9863 35.5135C22.3374 35.8646 22.7338 36.1206 23.1754 36.2815L15.6579 33.5453Z" fill="#575843"/>
<path d="M14.4688 32.7773L14.8108 31.8377C14.3702 31.6773 13.8773 31.8446 13.6254 32.24C13.3734 32.6355 13.4301 33.1529 13.7616 33.4845L14.4688 32.7773ZM15.6579 33.5453L15.3156 34.4849L15.3159 34.485L15.6579 33.5453ZM23.1754 36.2815L22.8334 37.2212C23.3523 37.4101 23.9261 37.1425 24.1151 36.6236C24.304 36.1047 24.0366 35.5309 23.5177 35.3419L23.1754 36.2815ZM21.9863 35.5135L22.6934 34.8064C22.5901 34.7031 22.4655 34.6238 22.3283 34.5738L21.9863 35.5135ZM13.7616 33.4845C14.21 33.9328 14.7292 34.2713 15.3156 34.4849L16.0001 32.6057C15.7033 32.4976 15.4297 32.3241 15.1759 32.0702L13.7616 33.4845ZM15.3159 34.485L22.8334 37.2212L23.5174 35.3418L15.9999 32.6056L15.3159 34.485ZM23.5177 35.3419C23.2209 35.2338 22.9473 35.0603 22.6934 34.8064L21.2792 36.2206C21.7275 36.669 22.2467 37.0075 22.8332 37.2211L23.5177 35.3419ZM22.3283 34.5738L14.8108 31.8377L14.1267 33.717L21.6443 36.4532L22.3283 34.5738Z" fill="#575843" mask="url(#path-25-inside-6_1045_15296)"/>
<mask id="path-27-inside-7_1045_15296" fill="white">
<path d="M16.875 27C17.3144 27 17.7213 27.0682 18.0956 27.2045L25.6116 29.9401C25.2377 29.8042 24.8314 29.7362 24.3925 29.7362L16.875 27Z"/>
</mask>
<path d="M16.875 27C17.3144 27 17.7213 27.0682 18.0956 27.2045L25.6116 29.9401C25.2377 29.8042 24.8314 29.7362 24.3925 29.7362L16.875 27Z" fill="#575843"/>
<path d="M25.4407 30.41C25.4411 30.4102 25.4416 30.4103 25.442 30.4105L25.7843 29.4709C25.7837 29.4707 25.7831 29.4705 25.7825 29.4703L25.4407 30.41ZM18.0956 27.2045L17.7533 28.1441L17.7536 28.1442L18.0956 27.2045ZM16.875 27V26C16.3897 26 15.9745 26.3484 15.8902 26.8264C15.8059 27.3043 16.077 27.7737 16.533 27.9397L16.875 27ZM24.3925 29.7362L24.0505 30.6759C24.1601 30.7158 24.2759 30.7362 24.3925 30.7362V29.7362ZM25.6116 29.9401L25.2698 30.8799C25.7888 31.0687 26.3625 30.801 26.5513 30.282C26.7402 29.7631 26.4726 29.1893 25.9536 29.0004L25.6116 29.9401ZM18.4379 26.2649C17.9431 26.0847 17.4192 26 16.875 26V28C17.2097 28 17.4994 28.0516 17.7533 28.1441L18.4379 26.2649ZM16.533 27.9397L24.0505 30.6759L24.7346 28.7965L17.217 26.0603L16.533 27.9397ZM24.3925 30.7362C24.7267 30.7362 25.0162 30.7877 25.2698 30.8799L25.9534 29.0004C25.4592 28.8206 24.936 28.7362 24.3925 28.7362V30.7362ZM25.9536 29.0004L18.4376 26.2648L17.7536 28.1442L25.2696 30.8798L25.9536 29.0004Z" fill="#575843" mask="url(#path-27-inside-7_1045_15296)"/>
<mask id="path-29-inside-8_1045_15296" fill="white">
<path d="M4.42676 60.3555C5.14816 60.6178 5.92254 60.749 6.74987 60.749L14.2674 63.4852C13.4401 63.4852 12.6657 63.354 11.9443 63.0916L4.42676 60.3555Z"/>
</mask>
<path d="M4.42676 60.3555C5.14816 60.6178 5.92254 60.749 6.74987 60.749L14.2674 63.4852C13.4401 63.4852 12.6657 63.354 11.9443 63.0916L4.42676 60.3555Z" fill="#575843"/>
<path d="M6.74987 60.749L7.09189 59.8093C6.98228 59.7694 6.86653 59.749 6.74987 59.749V60.749ZM4.42676 60.3555L4.76855 59.4157C4.24957 59.2269 3.67584 59.4946 3.48702 60.0136C3.29821 60.5325 3.5658 61.1063 4.08474 61.2952L4.42676 60.3555ZM11.9443 63.0916L11.6023 64.0313L11.6025 64.0314L11.9443 63.0916ZM14.2674 63.4852V64.4852C14.7527 64.4852 15.168 64.1368 15.2522 63.6588C15.3365 63.1809 15.0655 62.7115 14.6094 62.5455L14.2674 63.4852ZM6.74987 59.749C6.03001 59.749 5.37217 59.6352 4.76855 59.4157L4.08497 61.2952C4.92416 61.6005 5.81506 61.749 6.74987 61.749V59.749ZM4.08474 61.2952L11.6023 64.0313L12.2863 62.1519L4.76878 59.4158L4.08474 61.2952ZM11.6025 64.0314C12.4417 64.3366 13.3326 64.4852 14.2674 64.4852V62.4852C13.5476 62.4852 12.8897 62.3714 12.2861 62.1519L11.6025 64.0314ZM14.6094 62.5455L7.09189 59.8093L6.40785 61.6887L13.9254 64.4249L14.6094 62.5455Z" fill="#575843" mask="url(#path-29-inside-8_1045_15296)"/>
<mask id="path-31-inside-9_1045_15296" fill="white">
<path d="M16.8755 33.7509C16.4379 33.7509 16.0327 33.6831 15.6597 33.5474L23.1757 36.283C23.5491 36.419 23.9549 36.4871 24.393 36.4871L16.8755 33.7509Z"/>
</mask>
<path d="M16.8755 33.7509C16.4379 33.7509 16.0327 33.6831 15.6597 33.5474L23.1757 36.283C23.5491 36.419 23.9549 36.4871 24.393 36.4871L16.8755 33.7509Z" fill="#575843"/>
<path d="M15.4871 34.0167C15.4877 34.0169 15.4882 34.0171 15.4888 34.0173L15.8306 33.0775C15.8302 33.0774 15.8298 33.0772 15.8293 33.0771L15.4871 34.0167ZM15.6597 33.5474L16.0015 32.6076C15.4825 32.4189 14.9088 32.6866 14.72 33.2055C14.5312 33.7245 14.7988 34.2982 15.3177 34.4871L15.6597 33.5474ZM16.8755 33.7509L17.2175 32.8112C17.1079 32.7713 16.9921 32.7509 16.8755 32.7509V33.7509ZM24.393 36.4871V37.4871C24.8783 37.4871 25.2935 37.1386 25.3778 36.6607C25.4621 36.1828 25.191 35.7133 24.735 35.5474L24.393 36.4871ZM23.1757 36.283L23.518 35.3434L23.5178 35.3433L23.1757 36.283ZM15.3179 34.4872C15.8111 34.6666 16.3333 34.7509 16.8755 34.7509V32.7509C16.5426 32.7509 16.2543 32.6996 16.0015 32.6076L15.3179 34.4872ZM16.5334 34.6906L24.051 37.4268L24.735 35.5474L17.2175 32.8112L16.5334 34.6906ZM24.393 35.4871C24.0597 35.4871 23.771 35.4356 23.518 35.3434L22.8335 37.2226C23.3272 37.4025 23.8501 37.4871 24.393 37.4871V35.4871ZM23.5178 35.3433L16.0017 32.6077L15.3177 34.4871L22.8337 37.2227L23.5178 35.3433Z" fill="#575843" mask="url(#path-31-inside-9_1045_15296)"/>
<mask id="path-33-inside-10_1045_15296" fill="white">
<path d="M18.0957 27.2051C18.536 27.3655 18.9312 27.6202 19.2815 27.9692L26.799 30.7053C26.4488 30.3563 26.0535 30.1016 25.6132 29.9412L18.0957 27.2051Z"/>
</mask>
<path d="M18.0957 27.2051C18.536 27.3655 18.9312 27.6202 19.2815 27.9692L26.799 30.7053C26.4488 30.3563 26.0535 30.1016 25.6132 29.9412L18.0957 27.2051Z" fill="#575843"/>
<path d="M19.2815 27.9692L18.5756 28.6775C18.6786 28.7802 18.8028 28.8591 18.9395 28.9089L19.2815 27.9692ZM18.0957 27.2051L18.4377 26.2654C17.9188 26.0765 17.345 26.344 17.1561 26.8629C16.9671 27.3818 17.2346 27.9557 17.7534 28.1447L18.0957 27.2051ZM25.6132 29.9412L25.9555 29.0016L25.9553 29.0015L25.6132 29.9412ZM26.799 30.7053L26.457 31.645C26.8979 31.8055 27.3911 31.6379 27.6429 31.2419C27.8946 30.846 27.8373 30.3282 27.5049 29.997L26.799 30.7053ZM19.9874 27.2608C19.54 26.815 19.0223 26.4783 18.438 26.2655L17.7534 28.1447C18.0497 28.2526 18.3225 28.4253 18.5756 28.6775L19.9874 27.2608ZM17.7537 28.1448L25.2712 30.8809L25.9553 29.0015L18.4377 26.2654L17.7537 28.1448ZM25.271 30.8808C25.5672 30.9887 25.8401 31.1615 26.0932 31.4137L27.5049 29.997C27.0575 29.5512 26.5399 29.2145 25.9555 29.0016L25.271 30.8808ZM27.141 29.7656L19.6235 27.0295L18.9395 28.9089L26.457 31.645L27.141 29.7656Z" fill="#575843" mask="url(#path-33-inside-10_1045_15296)"/>
<path d="M20.5718 45.917L14.0166 43.5311C14.0729 42.9634 14.2722 42.4751 14.6138 42.0537L21.1523 44.4335C20.8527 44.8794 20.6593 45.3756 20.5718 45.917Z" fill="#575843" stroke="#575843" stroke-linejoin="round"/>
<path d="M25.7625 35.6684C25.3832 35.8679 24.9573 35.9734 24.478 35.9845L18.6327 33.857C18.9034 33.7229 19.1583 33.5543 19.3965 33.3513L25.7625 35.6684Z" fill="#575843" stroke="#575843" stroke-linejoin="round"/>
<path d="M58.6819 2.23616H14.3557L9.58564 0.5H53.9118L58.6819 2.23616Z" fill="#575843" stroke="#575843" stroke-linejoin="round"/>
<path d="M27.1844 32.367L20.7361 30.02C20.7063 29.6408 20.6279 29.2818 20.5008 28.9447L26.5192 31.1352C26.8515 31.4923 27.0735 31.8999 27.1844 32.367Z" fill="#575843" stroke="#575843" stroke-linejoin="round"/>
<path d="M14.7478 45.8475C14.4158 45.4921 14.194 45.0856 14.0831 44.6193L20.5313 46.9663C20.561 47.3442 20.639 47.7019 20.7655 48.0378L14.7478 45.8475Z" fill="#575843" stroke="#575843" stroke-linejoin="round"/>
<path d="M21.8718 43.631L15.5075 41.3146C15.8862 41.1168 16.3113 41.0121 16.7897 41.001L22.6336 43.128C22.3636 43.2615 22.1094 43.4291 21.8718 43.631Z" fill="#575843" stroke="#575843" stroke-linejoin="round"/>
<path d="M26.6541 34.9294L20.1159 32.5497C20.4151 32.105 20.6082 31.6098 20.6956 31.0693L27.2508 33.4552C27.1945 34.0225 26.9953 34.5096 26.6541 34.9294Z" fill="#575843" stroke="#575843" stroke-linejoin="round"/>
<mask id="path-42-inside-11_1045_15296" fill="white">
<path d="M15.6579 47.0453C15.2162 46.8845 14.8199 46.6285 14.4688 46.2773L21.9863 49.0135C22.3374 49.3646 22.7338 49.6206 23.1754 49.7815L15.6579 47.0453Z"/>
</mask>
<path d="M15.6579 47.0453C15.2162 46.8845 14.8199 46.6285 14.4688 46.2773L21.9863 49.0135C22.3374 49.3646 22.7338 49.6206 23.1754 49.7815L15.6579 47.0453Z" fill="#575843"/>
<path d="M14.4688 46.2773L14.8108 45.3377C14.3702 45.1773 13.8773 45.3446 13.6254 45.74C13.3734 46.1355 13.4301 46.6529 13.7616 46.9845L14.4688 46.2773ZM15.6579 47.0453L15.3156 47.9849L15.3159 47.985L15.6579 47.0453ZM23.1754 49.7815L22.8334 50.7212C23.3523 50.9101 23.9261 50.6425 24.1151 50.1236C24.304 49.6047 24.0366 49.0309 23.5177 48.8419L23.1754 49.7815ZM21.9863 49.0135L22.6934 48.3064C22.5901 48.2031 22.4655 48.1238 22.3283 48.0738L21.9863 49.0135ZM13.7616 46.9845C14.21 47.4328 14.7292 47.7713 15.3156 47.9849L16.0001 46.1057C15.7033 45.9976 15.4297 45.8241 15.1759 45.5702L13.7616 46.9845ZM15.3159 47.985L22.8334 50.7212L23.5174 48.8418L15.9999 46.1056L15.3159 47.985ZM23.5177 48.8419C23.2209 48.7338 22.9473 48.5603 22.6934 48.3064L21.2792 49.7206C21.7275 50.169 22.2467 50.5075 22.8332 50.7211L23.5177 48.8419ZM22.3283 48.0738L14.8108 45.3377L14.1267 47.217L21.6443 49.9532L22.3283 48.0738Z" fill="#575843" mask="url(#path-42-inside-11_1045_15296)"/>
<mask id="path-44-inside-12_1045_15296" fill="white">
<path d="M16.875 40.5C17.3144 40.5 17.7213 40.5682 18.0956 40.7045L25.6116 43.4401C25.2377 43.3042 24.8314 43.2362 24.3925 43.2362L16.875 40.5Z"/>
</mask>
<path d="M16.875 40.5C17.3144 40.5 17.7213 40.5682 18.0956 40.7045L25.6116 43.4401C25.2377 43.3042 24.8314 43.2362 24.3925 43.2362L16.875 40.5Z" fill="#575843"/>
<path d="M25.4407 43.91C25.4411 43.9102 25.4416 43.9103 25.442 43.9105L25.7843 42.9709C25.7837 42.9707 25.7831 42.9705 25.7825 42.9703L25.4407 43.91ZM18.0956 40.7045L17.7533 41.6441L17.7536 41.6442L18.0956 40.7045ZM16.875 40.5V39.5C16.3897 39.5 15.9745 39.8484 15.8902 40.3264C15.8059 40.8043 16.077 41.2737 16.533 41.4397L16.875 40.5ZM24.3925 43.2362L24.0505 44.1759C24.1601 44.2158 24.2759 44.2362 24.3925 44.2362V43.2362ZM25.6116 43.4401L25.2698 44.3799C25.7888 44.5687 26.3625 44.301 26.5513 43.782C26.7402 43.2631 26.4726 42.6893 25.9536 42.5004L25.6116 43.4401ZM18.4379 39.7649C17.9431 39.5847 17.4192 39.5 16.875 39.5V41.5C17.2097 41.5 17.4994 41.5516 17.7533 41.6441L18.4379 39.7649ZM16.533 41.4397L24.0505 44.1759L24.7346 42.2965L17.217 39.5603L16.533 41.4397ZM24.3925 44.2362C24.7267 44.2362 25.0162 44.2877 25.2698 44.3799L25.9534 42.5004C25.4592 42.3206 24.936 42.2362 24.3925 42.2362V44.2362ZM25.9536 42.5004L18.4376 39.7648L17.7536 41.6442L25.2696 44.3798L25.9536 42.5004Z" fill="#575843" mask="url(#path-44-inside-12_1045_15296)"/>
<path d="M34.0175 22.2721L27.5 19.8999V14.2141L34.0175 16.5863V22.2721Z" fill="#575843" stroke="#575843" stroke-linejoin="round"/>
<mask id="path-47-inside-13_1045_15296" fill="white">
<path d="M16.8755 47.2509C16.4379 47.2509 16.0327 47.1831 15.6597 47.0474L23.1757 49.783C23.5491 49.919 23.9549 49.9871 24.393 49.9871L16.8755 47.2509Z"/>
</mask>
<path d="M16.8755 47.2509C16.4379 47.2509 16.0327 47.1831 15.6597 47.0474L23.1757 49.783C23.5491 49.919 23.9549 49.9871 24.393 49.9871L16.8755 47.2509Z" fill="#575843"/>
<path d="M15.4871 47.5167C15.4877 47.5169 15.4882 47.5171 15.4888 47.5173L15.8306 46.5775C15.8302 46.5774 15.8298 46.5772 15.8293 46.5771L15.4871 47.5167ZM15.6597 47.0474L16.0015 46.1076C15.4825 45.9189 14.9088 46.1866 14.72 46.7055C14.5312 47.2245 14.7988 47.7982 15.3177 47.9871L15.6597 47.0474ZM16.8755 47.2509L17.2175 46.3112C17.1079 46.2713 16.9921 46.2509 16.8755 46.2509V47.2509ZM24.393 49.9871V50.9871C24.8783 50.9871 25.2935 50.6386 25.3778 50.1607C25.4621 49.6828 25.191 49.2133 24.735 49.0474L24.393 49.9871ZM23.1757 49.783L23.518 48.8434L23.5178 48.8433L23.1757 49.783ZM15.3179 47.9872C15.8111 48.1666 16.3333 48.2509 16.8755 48.2509V46.2509C16.5426 46.2509 16.2543 46.1996 16.0015 46.1076L15.3179 47.9872ZM16.5334 48.1906L24.051 50.9268L24.735 49.0474L17.2175 46.3112L16.5334 48.1906ZM24.393 48.9871C24.0597 48.9871 23.771 48.9356 23.518 48.8434L22.8335 50.7226C23.3272 50.9025 23.8501 50.9871 24.393 50.9871V48.9871ZM23.5178 48.8433L16.0017 46.1077L15.3177 47.9871L22.8337 50.7227L23.5178 48.8433Z" fill="#575843" mask="url(#path-47-inside-13_1045_15296)"/>
<mask id="path-49-inside-14_1045_15296" fill="white">
<path d="M18.0957 40.7051C18.536 40.8655 18.9312 41.1202 19.2815 41.4692L26.799 44.2053C26.4488 43.8563 26.0535 43.6016 25.6132 43.4412L18.0957 40.7051Z"/>
</mask>
<path d="M18.0957 40.7051C18.536 40.8655 18.9312 41.1202 19.2815 41.4692L26.799 44.2053C26.4488 43.8563 26.0535 43.6016 25.6132 43.4412L18.0957 40.7051Z" fill="#575843"/>
<path d="M19.2815 41.4692L18.5756 42.1775C18.6786 42.2802 18.8028 42.3591 18.9395 42.4089L19.2815 41.4692ZM18.0957 40.7051L18.4377 39.7654C17.9188 39.5765 17.345 39.844 17.1561 40.3629C16.9671 40.8818 17.2346 41.4557 17.7534 41.6447L18.0957 40.7051ZM25.6132 43.4412L25.9555 42.5016L25.9553 42.5015L25.6132 43.4412ZM26.799 44.2053L26.457 45.145C26.8979 45.3055 27.3911 45.1379 27.6429 44.7419C27.8946 44.346 27.8373 43.8282 27.5049 43.497L26.799 44.2053ZM19.9874 40.7608C19.54 40.315 19.0223 39.9783 18.438 39.7655L17.7534 41.6447C18.0497 41.7526 18.3225 41.9253 18.5756 42.1775L19.9874 40.7608ZM17.7537 41.6448L25.2712 44.3809L25.9553 42.5015L18.4377 39.7654L17.7537 41.6448ZM25.271 44.3808C25.5672 44.4887 25.8401 44.6615 26.0932 44.9137L27.5049 43.497C27.0575 43.0512 26.5399 42.7145 25.9555 42.5016L25.271 44.3808ZM27.141 43.2656L19.6235 40.5295L18.9395 42.4089L26.457 45.145L27.141 43.2656Z" fill="#575843" mask="url(#path-49-inside-14_1045_15296)"/>
<path d="M25.7625 49.1684C25.3832 49.3679 24.9573 49.4734 24.478 49.4845L18.6327 47.357C18.9034 47.2229 19.1583 47.0543 19.3965 46.8513L25.7625 49.1684Z" fill="#575843" stroke="#575843" stroke-linejoin="round"/>
<path d="M27.1844 45.867L20.7361 43.52C20.7063 43.1408 20.6279 42.7818 20.5008 42.4447L26.5192 44.6352C26.8515 44.9923 27.0735 45.3999 27.1844 45.867Z" fill="#575843" stroke="#575843" stroke-linejoin="round"/>
<path d="M26.6541 48.4294L20.1159 46.0497C20.4151 45.605 20.6082 45.1098 20.6956 44.5693L27.2508 46.9552C27.1945 47.5225 26.9953 48.0096 26.6541 48.4294Z" fill="#575843" stroke="#575843" stroke-linejoin="round"/>
<path d="M34.0175 35.7721L27.5 33.3999V27.7141L34.0175 30.0863V35.7721Z" fill="#575843" stroke="#575843" stroke-linejoin="round"/>
<path d="M34.6057 15.7362L29.8356 14H47.1618L51.9319 15.7362H34.6057Z" fill="#575843" stroke="#575843" stroke-linejoin="round"/>
<path d="M34.0175 49.2721L27.5 46.8999V41.2141L34.0175 43.5863V49.2721Z" fill="#575843" stroke="#575843" stroke-linejoin="round"/>
<path d="M51.9319 22.4862H34.6057L29.8356 20.75H47.1618L51.9319 22.4862Z" fill="#575843" stroke="#575843" stroke-linejoin="round"/>
<path d="M34.6057 29.2362L29.8356 27.5H47.1618L51.9319 29.2362H34.6057Z" fill="#575843" stroke="#575843" stroke-linejoin="round"/>
<path d="M51.9319 35.9862H34.6057L29.8356 34.25H47.1618L51.9319 35.9862Z" fill="#575843" stroke="#575843" stroke-linejoin="round"/>
<path d="M34.6057 42.7362L29.8356 41H47.1618L51.9319 42.7362H34.6057Z" fill="#575843" stroke="#575843" stroke-linejoin="round"/>
<path d="M14.3557 62.9862L9.58564 61.25H53.9118L58.6819 62.9862H14.3557Z" fill="#575843" stroke="#575843" stroke-linejoin="round"/>
<path d="M54.2675 22.2721L47.75 19.8999V14.2141L54.2675 16.5863V22.2721Z" fill="#575843" stroke="#575843" stroke-linejoin="round"/>
<path d="M51.9319 49.4862H34.6057L29.8356 47.75H47.1618L51.9319 49.4862Z" fill="#575843" stroke="#575843" stroke-linejoin="round"/>
<mask id="path-64-inside-15_1045_15296" fill="white">
<path d="M56.3231 0.393554C55.6017 0.131185 54.8273 0 54 0L61.5175 2.73616C62.3449 2.73616 63.1193 2.86735 63.8407 3.12972L56.3231 0.393554Z"/>
</mask>
<path d="M56.3231 0.393554C55.6017 0.131185 54.8273 0 54 0L61.5175 2.73616C62.3449 2.73616 63.1193 2.86735 63.8407 3.12972L56.3231 0.393554Z" fill="#575843"/>
<path d="M54 0V-1C53.5147 -1 53.0995 -0.651569 53.0152 -0.173648C52.9309 0.304273 53.202 0.773712 53.658 0.939693L54 0ZM56.3231 0.393554L56.6651 -0.546139L56.6649 -0.546223L56.3231 0.393554ZM63.8407 3.12972L63.4989 4.06949C64.0178 4.25824 64.5916 3.99058 64.7804 3.47162C64.9692 2.95266 64.7016 2.3789 64.1827 2.19002L63.8407 3.12972ZM61.5175 2.73616L61.1755 3.67585C61.2851 3.71575 61.4009 3.73616 61.5175 3.73616V2.73616ZM54 1C54.7199 1 55.3777 1.1138 55.9813 1.33333L56.6649 -0.546223C55.8257 -0.851429 54.9348 -1 54 -1V1ZM55.9811 1.33325L63.4986 4.06941L64.1827 2.19002L56.6651 -0.546138L55.9811 1.33325ZM64.1824 2.18994C63.3433 1.88473 62.4524 1.73616 61.5175 1.73616V3.73616C62.2374 3.73616 62.8952 3.84996 63.4989 4.06949L64.1824 2.18994ZM61.8596 1.79647L54.342 -0.939693L53.658 0.939693L61.1755 3.67585L61.8596 1.79647Z" fill="#575843" mask="url(#path-64-inside-15_1045_15296)"/>
<mask id="path-66-inside-16_1045_15296" fill="white">
<path d="M58.769 1.98015C58.0365 1.24885 57.2222 0.72001 56.3261 0.393631L63.8408 3.12874C64.738 3.45503 65.5532 3.98422 66.2865 4.71631L58.769 1.98015Z"/>
</mask>
<path d="M58.769 1.98015C58.0365 1.24885 57.2222 0.72001 56.3261 0.393631L63.8408 3.12874C64.738 3.45503 65.5532 3.98422 66.2865 4.71631L58.769 1.98015Z" fill="#575843"/>
<path d="M56.1523 0.862467C56.1532 0.862789 56.1541 0.863112 56.155 0.863435L56.4973 -0.0761733C56.4962 -0.0765526 56.4952 -0.0769315 56.4941 -0.0773103L56.1523 0.862467ZM56.3261 0.393631L56.6682 -0.546062C56.1492 -0.734938 55.5754 -0.467414 55.3865 0.051495C55.1975 0.570405 55.465 1.14424 55.9839 1.33324L56.3261 0.393631ZM58.769 1.98015L58.0625 2.68786C58.1656 2.79082 58.29 2.87 58.427 2.91984L58.769 1.98015ZM66.2865 4.71631L65.9445 5.656C66.3853 5.81643 66.8783 5.64895 67.1302 5.25325C67.382 4.85755 67.325 4.33998 66.993 4.0086L66.2865 4.71631ZM63.8408 3.12874L63.4988 4.06843L63.499 4.06852L63.8408 3.12874ZM55.9839 1.33324C56.7317 1.60562 57.4241 2.05054 58.0625 2.68786L59.4755 1.27244C58.6488 0.447153 57.7127 -0.165602 56.6684 -0.545978L55.9839 1.33324ZM58.427 2.91984L65.9445 5.656L66.6286 3.77662L59.111 1.04046L58.427 2.91984ZM66.993 4.0086C66.1655 3.18242 65.2282 2.56924 64.1826 2.18896L63.499 4.06852C64.2477 4.34083 64.941 4.78603 65.58 5.42402L66.993 4.0086ZM64.1828 2.18905L56.6682 -0.546062L55.9841 1.33332L63.4988 4.06843L64.1828 2.18905Z" fill="#575843" mask="url(#path-66-inside-16_1045_15296)"/>
<path d="M54.2675 35.7721L47.75 33.3999V27.7141L54.2675 30.0863V35.7721Z" fill="#575843" stroke="#575843" stroke-linejoin="round"/>
<path d="M67.7294 8.75768L61.2421 6.39647C61.1888 5.1713 60.8562 4.05391 60.2477 3.05091L66.0089 5.14784C67.0125 6.18311 67.5833 7.38116 67.7294 8.75768Z" fill="#575843" stroke="#575843" stroke-linejoin="round"/>
<path d="M54.2675 49.2721L47.75 46.8999V41.2141L54.2675 43.5863V49.2721Z" fill="#575843" stroke="#575843" stroke-linejoin="round"/>
<path d="M67.7675 56.0221L61.25 53.6499V7.46407L67.7675 9.83626V56.0221Z" fill="#575843" stroke="#575843" stroke-linejoin="round"/>
<path d="M61.6043 62.9863L56.0602 60.9684C57.1015 60.6672 58.0467 60.1254 58.8905 59.3459L65.3298 61.6896C64.2542 62.5398 63.0174 62.9695 61.6043 62.9863Z" fill="#575843" stroke="#575843" stroke-linejoin="round"/>
<path d="M66.1505 60.9236L59.6391 58.5536C60.5624 57.4333 61.091 56.1459 61.219 54.7029L67.7588 57.0832C67.687 58.5532 67.1539 59.8273 66.1505 60.9236Z" fill="#575843" stroke="#575843" stroke-linejoin="round"/>
<path d="M17.1094 47.25C18.0789 47.25 18.8922 46.926 19.5492 46.278C20.2039 45.6322 20.5312 44.8312 20.5312 43.875C20.5312 42.9188 20.2039 42.1166 19.5492 41.4686C18.8922 40.8229 18.0789 40.5 17.1094 40.5C16.1398 40.5 15.3266 40.8229 14.6696 41.4686C14.0149 42.1166 13.6875 42.9188 13.6875 43.875C13.6875 44.8312 14.0149 45.6322 14.6696 46.278C15.3266 46.926 16.1398 47.25 17.1094 47.25ZM17.1094 33.75C18.0789 33.75 18.8922 33.426 19.5492 32.778C20.2039 32.1322 20.5312 31.3312 20.5312 30.375C20.5312 29.4188 20.2039 28.6166 19.5492 27.9686C18.8922 27.3229 18.0789 27 17.1094 27C16.1398 27 15.3266 27.3229 14.6696 27.9686C14.0149 28.6166 13.6875 29.4188 13.6875 30.375C13.6875 31.3312 14.0149 32.1322 14.6696 32.778C15.3266 33.426 16.1398 33.75 17.1094 33.75ZM17.1094 20.25C18.0789 20.25 18.8922 19.926 19.5492 19.278C20.2039 18.6322 20.5312 17.8312 20.5312 16.875C20.5312 15.9187 20.2039 15.1166 19.5492 14.4686C18.8922 13.8229 18.0789 13.5 17.1094 13.5C16.1398 13.5 15.3266 13.8229 14.6696 14.4686C14.0149 15.1166 13.6875 15.9187 13.6875 16.875C13.6875 17.8312 14.0149 18.6322 14.6696 19.278C15.3266 19.926 16.1398 20.25 17.1094 20.25ZM27.375 47.25H47.9062V40.5H27.375V47.25ZM27.375 33.75H47.9062V27H27.375V33.75ZM27.375 20.25H47.9062V13.5H27.375V20.25ZM6.84375 60.75C4.96172 60.75 3.35002 60.0896 2.00864 58.7689C0.669546 57.4459 0 55.8563 0 54V6.75C0 4.89375 0.669546 3.30412 2.00864 1.98112C3.35002 0.660375 4.96172 0 6.84375 0H54.75C56.632 0 58.2437 0.660375 59.5851 1.98112C60.9242 3.30412 61.5938 4.89375 61.5938 6.75V54C61.5938 55.8563 60.9242 57.4459 59.5851 58.7689C58.2437 60.0896 56.632 60.75 54.75 60.75H6.84375Z" fill="#EBEBEA"/>
</svg>
