<svg width="207" height="49" viewBox="0 0 207 49" fill="none" xmlns="http://www.w3.org/2000/svg"><path d="M30.924 22.838a9.027 9.027 0 011.333-4.58 9.873 9.873 0 013.54-3.413 10.267 10.267 0 00-3.599-2.985 11.083 11.083 0 00-4.654-1.168c-3.472-.34-6.838 1.934-8.608 1.934-1.804 0-4.528-1.9-7.461-1.845a11.594 11.594 0 00-5.368 1.491 10.6 10.6 0 00-3.882 3.76c-3.999 6.446-1.016 15.92 2.815 21.13 1.917 2.55 4.157 5.4 7.088 5.3 2.868-.111 3.939-1.703 7.401-1.703 3.43 0 4.435 1.703 7.426 1.638 3.077-.046 5.016-2.562 6.866-5.138a20.541 20.541 0 003.14-5.953c-1.788-.704-3.314-1.882-4.388-3.388a8.757 8.757 0 01-1.649-5.08zM25.276 7.265C26.954 5.39 27.78 2.979 27.58.545c-2.563.251-4.931 1.392-6.632 3.195a8.8 8.8 0 00-1.875 3.016 8.353 8.353 0 00-.49 3.455 9.007 9.007 0 003.71-.757 8.411 8.411 0 002.983-2.19zM67.18 36.003h-9.788l-2.35 6.46h-4.146l9.27-23.904h4.308l9.27 23.905h-4.216l-2.348-6.461zm-8.774-2.982h7.758L62.34 22.535h-.108l-3.826 10.486zm35.36.73c0 5.416-3.113 8.895-7.812 8.895a6.733 6.733 0 01-3.416-.736 6.143 6.143 0 01-2.475-2.313h-.089v8.632h-3.843V25.035h3.72v2.9h.071a6.442 6.442 0 012.523-2.308 7.04 7.04 0 013.438-.774c4.752 0 7.884 3.497 7.884 8.898zm-3.95 0c0-3.529-1.958-5.849-4.947-5.849-2.936 0-4.91 2.369-4.91 5.849 0 3.511 1.974 5.863 4.91 5.863 2.989 0 4.948-2.303 4.948-5.863zm24.556 0c0 5.416-3.114 8.895-7.813 8.895a6.735 6.735 0 01-3.416-.736 6.14 6.14 0 01-2.474-2.313h-.089v8.632h-3.843V25.035h3.72v2.9h.07a6.444 6.444 0 012.524-2.308 7.035 7.035 0 013.437-.774c4.752 0 7.884 3.497 7.884 8.898zm-3.95 0c0-3.529-1.959-5.849-4.947-5.849-2.937 0-4.911 2.369-4.911 5.849 0 3.511 1.974 5.863 4.911 5.863 2.988 0 4.947-2.303 4.947-5.863zm17.568 2.053c.285 2.37 2.759 3.927 6.139 3.927 3.239 0 5.57-1.557 5.57-3.695 0-1.855-1.406-2.966-4.734-3.727l-3.328-.747c-4.715-1.06-6.904-3.113-6.904-6.444 0-4.124 3.861-6.957 9.344-6.957 5.425 0 9.145 2.833 9.27 6.957h-3.879c-.232-2.385-2.35-3.825-5.446-3.825-3.096 0-5.214 1.457-5.214 3.577 0 1.69 1.353 2.685 4.663 3.446l2.829.646c5.268 1.16 7.457 3.13 7.457 6.627 0 4.472-3.826 7.273-9.913 7.273-5.694 0-9.539-2.735-9.787-7.059h3.933zm24.061-14.893v4.124h3.56v2.834h-3.56v9.608c0 1.492.713 2.188 2.278 2.188a13.04 13.04 0 001.264-.083v2.816c-.704.122-1.419.178-2.135.165-3.79 0-5.268-1.325-5.268-4.705v-9.99h-2.722v-2.832h2.722V20.91h3.861zm5.622 12.84c0-5.484 3.469-8.93 8.879-8.93 5.428 0 8.881 3.446 8.881 8.93 0 5.498-3.435 8.929-8.881 8.929-5.444 0-8.879-3.43-8.879-8.93zm13.844 0c0-3.762-1.851-5.982-4.965-5.982s-4.964 2.237-4.964 5.982c0 3.776 1.85 5.98 4.964 5.98 3.114 0 4.965-2.204 4.965-5.98zm7.084-8.715h3.665v2.966h.089a4.152 4.152 0 011.651-2.319 4.696 4.696 0 012.852-.83c.443-.001.885.043 1.317.134v3.346a5.745 5.745 0 00-1.727-.216 4.124 4.124 0 00-1.631.268 3.893 3.893 0 00-1.362.879c-.38.381-.667.834-.842 1.328a3.367 3.367 0 00-.169 1.534v10.338h-3.843V25.036zm27.291 12.309c-.516 3.164-3.826 5.335-8.061 5.335-5.446 0-8.826-3.397-8.826-8.847 0-5.466 3.398-9.012 8.665-9.012 5.18 0 8.437 3.313 8.437 8.597v1.226h-13.223v.216a4.246 4.246 0 00.253 1.895 4.501 4.501 0 001.068 1.631 4.908 4.908 0 001.695 1.077c.64.244 1.329.357 2.02.333.908.08 1.82-.116 2.599-.558a4.032 4.032 0 001.725-1.893h3.648zm-12.99-5.202h9.36a3.942 3.942 0 00-.276-1.695 4.173 4.173 0 00-.982-1.45 4.53 4.53 0 00-1.524-.963 4.796 4.796 0 00-1.81-.315 5.056 5.056 0 00-1.826.33 4.776 4.776 0 00-1.548.957c-.443.411-.795.9-1.034 1.438a4.146 4.146 0 00-.36 1.698zM57.924.566a5.828 5.828 0 012.367.332 5.498 5.498 0 011.987 1.243c.556.546.974 1.2 1.225 1.914a4.75 4.75 0 01.227 2.219c0 3.669-2.13 5.778-5.806 5.778h-4.456V.566h4.456zm-2.54 9.862h2.326a4.139 4.139 0 001.687-.257 3.895 3.895 0 001.404-.907c.39-.396.68-.868.849-1.38a3.38 3.38 0 00.129-1.587 3.383 3.383 0 00-.143-1.577 3.572 3.572 0 00-.851-1.37 3.908 3.908 0 00-1.398-.9 4.15 4.15 0 00-1.677-.26h-2.326v8.238zm10.51-2.714a3.839 3.839 0 01.206-1.687 4.053 4.053 0 01.921-1.466 4.415 4.415 0 011.48-.993 4.691 4.691 0 011.785-.351 4.7 4.7 0 011.784.351c.563.232 1.066.57 1.48.993.413.424.727.923.921 1.466.194.543.264 1.118.206 1.687a3.84 3.84 0 01-.203 1.69 4.052 4.052 0 01-.92 1.47 4.415 4.415 0 01-1.481.995 4.692 4.692 0 01-1.787.352 4.69 4.69 0 01-1.787-.352 4.416 4.416 0 01-1.481-.996 4.053 4.053 0 01-.92-1.469 3.84 3.84 0 01-.203-1.69zm6.893 0c0-1.879-.907-2.977-2.498-2.977-1.598 0-2.496 1.098-2.496 2.977 0 1.894.898 2.985 2.496 2.985 1.59 0 2.498-1.098 2.498-2.985zm13.564 4.338h-1.907L82.52 5.668h-.146l-1.916 6.384H78.57l-2.566-8.668h1.863l1.668 6.614h.138l1.914-6.614h1.763l1.914 6.614h.145l1.66-6.614h1.838l-2.556 8.668zm4.715-8.668h1.769v1.377h.137c.233-.495.626-.91 1.124-1.186a2.955 2.955 0 011.655-.358c.453-.032.908.032 1.33.186.424.154.804.395 1.114.704.31.31.54.68.675 1.084.134.404.17.831.103 1.25v5.611h-1.837V6.87c0-1.393-.65-2.085-2.01-2.085a2.279 2.279 0 00-.9.142 2.15 2.15 0 00-.753.48 1.967 1.967 0 00-.47.73 1.86 1.86 0 00-.1.844v5.071h-1.837V3.384zM101.902 0h1.837v12.052h-1.837V0zm4.392 7.714a3.835 3.835 0 01.205-1.687 4.058 4.058 0 01.921-1.466 4.424 4.424 0 011.48-.994 4.69 4.69 0 011.785-.35 4.7 4.7 0 011.785.35c.562.232 1.066.57 1.48.994.413.423.727.923.921 1.466a3.85 3.85 0 01.206 1.687c.059.57-.01 1.146-.204 1.69a4.04 4.04 0 01-.921 1.468 4.405 4.405 0 01-1.48.995 4.697 4.697 0 01-3.574 0 4.415 4.415 0 01-1.48-.995 4.053 4.053 0 01-.921-1.468 3.828 3.828 0 01-.203-1.69zm6.892 0c0-1.879-.907-2.977-2.498-2.977-1.598 0-2.496 1.098-2.496 2.977 0 1.894.898 2.985 2.496 2.985 1.591 0 2.498-1.098 2.498-2.985zm3.825 1.887c0-1.56 1.248-2.46 3.463-2.588l2.522-.135V6.13c0-.916-.65-1.433-1.906-1.433-1.026 0-1.736.35-1.94.964h-1.779c.187-1.49 1.692-2.444 3.804-2.444 2.334 0 3.651 1.082 3.651 2.913v5.922h-1.769v-1.218h-.145a3.06 3.06 0 01-1.201 1.032 3.327 3.327 0 01-1.596.329 3.01 3.01 0 01-1.16-.114 2.863 2.863 0 01-1.01-.542 2.633 2.633 0 01-.688-.877 2.485 2.485 0 01-.246-1.061zm5.985-.74v-.726l-2.273.136c-1.283.08-1.864.486-1.864 1.25 0 .78.727 1.234 1.726 1.234.293.028.589 0 .87-.08.282-.082.542-.215.767-.392a2.06 2.06 0 00.543-.638 1.92 1.92 0 00.231-.785zm4.245-1.147c0-2.739 1.513-4.474 3.865-4.474a3.25 3.25 0 011.665.374c.506.27.919.667 1.191 1.147h.137V0h1.837v12.052h-1.76v-1.37h-.146c-.293.477-.72.87-1.235 1.136a3.427 3.427 0 01-1.689.377c-2.369 0-3.865-1.735-3.865-4.48zm1.898 0c0 1.839.931 2.945 2.488 2.945 1.549 0 2.506-1.122 2.506-2.937 0-1.807-.967-2.945-2.506-2.945-1.547 0-2.488 1.114-2.488 2.937zm14.4 0a3.85 3.85 0 01.206-1.687 4.058 4.058 0 01.921-1.466 4.404 4.404 0 011.48-.993 4.69 4.69 0 011.784-.351c.615 0 1.223.12 1.785.351a4.41 4.41 0 011.479.993c.414.424.728.923.922 1.466.194.543.264 1.118.205 1.687.06.57-.009 1.146-.202 1.69a4.056 4.056 0 01-.921 1.47 4.419 4.419 0 01-1.481.995 4.691 4.691 0 01-1.787.352c-.615 0-1.224-.12-1.787-.352a4.405 4.405 0 01-1.48-.996 4.043 4.043 0 01-.921-1.469 3.83 3.83 0 01-.203-1.69zm6.892 0c0-1.879-.906-2.977-2.498-2.977-1.597 0-2.495 1.098-2.495 2.977 0 1.894.898 2.985 2.495 2.985 1.592 0 2.498-1.098 2.498-2.985zm4.356-4.33h1.769v1.377h.137c.233-.495.626-.91 1.124-1.186a2.956 2.956 0 011.655-.358c.453-.032.908.032 1.331.186.423.154.803.395 1.113.704.309.31.54.68.675 1.084s.17.831.104 1.25v5.611h-1.838V6.87c0-1.393-.65-2.085-2.009-2.085a2.275 2.275 0 00-.9.142 2.143 2.143 0 00-.754.48 1.979 1.979 0 00-.47.73c-.098.27-.132.56-.099.844v5.071h-1.838V3.384zm18.291-2.158v2.198h2.018v1.44h-2.018v4.458c0 .908.402 1.305 1.317 1.305.234 0 .468-.014.7-.04v1.426c-.33.055-.664.084-.999.087-2.044 0-2.857-.67-2.857-2.34V4.864h-1.479v-1.44h1.479V1.225h1.839zM177.606 0h1.821v4.777h.145c.245-.5.648-.916 1.156-1.194a3.04 3.04 0 011.684-.359 3.27 3.27 0 011.319.205c.418.158.794.4 1.1.709.307.309.536.676.672 1.077.136.4.175.824.115 1.24v5.597h-1.839V6.878c0-1.385-.693-2.086-1.991-2.086a2.325 2.325 0 00-.931.119 2.198 2.198 0 00-.79.472 2.01 2.01 0 00-.503.74 1.892 1.892 0 00-.121.867v5.062h-1.837V0zm18.727 9.712a3.552 3.552 0 01-1.528 1.936 4.001 4.001 0 01-2.507.572 4.501 4.501 0 01-1.786-.321 4.23 4.23 0 01-1.477-.99 3.873 3.873 0 01-.893-1.475 3.68 3.68 0 01-.145-1.689 3.741 3.741 0 01.147-1.693 3.923 3.923 0 01.89-1.483 4.29 4.29 0 011.47-1.006 4.568 4.568 0 011.786-.346c2.591 0 4.154 1.647 4.154 4.37v.596h-6.575v.096a2.14 2.14 0 00.126.94c.112.302.29.579.524.812.233.234.517.42.832.546.315.126.655.189.998.185.439.05.885-.024 1.279-.211.395-.187.72-.48.936-.84h1.769zm-6.464-2.794h4.703a1.952 1.952 0 00-.125-.858 2.066 2.066 0 00-.487-.737 2.263 2.263 0 00-.766-.49 2.394 2.394 0 00-.914-.16 2.532 2.532 0 00-.927.163 2.4 2.4 0 00-.787.486c-.225.21-.402.458-.522.733a2.08 2.08 0 00-.175.863z" fill="#fff"/></svg>