<svg width="196" height="212" viewBox="0 0 196 212" fill="none" xmlns="http://www.w3.org/2000/svg"><path d="M126.831 27.232c-6.457-1.654-13.134-3.365-18.887-7.265-2.808-1.904-5.222-4.221-7.56-6.46-1.296-1.245-2.596-2.492-3.959-3.66-4.097-3.508-7.701-5.241-10.414-5.013-1.474.122-2.744.845-3.884 2.207-1.481 1.774-1.435 3.07-1.27 3.895 1.06 5.398 12.095 11.239 19.395 15.104 3.824 2.025 6.844 3.622 8.402 5.027 3.07 2.766 5.101 6.365 6.839 9.841 6.422 12.866 10.035 25.868 10.738 38.647.854 15.499-3.38 30.946-12.246 44.667-7.101 10.985-16.18 20.23-24.932 28.58-9.458 9.021-17.756 16.105-27.516 21.36-.938.505-1.668.897-2.088 1.361a2.358 2.358 0 00-.291.403c-.313.542-.497 1.282-.527 2.146-.24 7.249 8.605 9.111 16.066 9.398 18.247.699 37.532-6.235 52.917-19.021 13.998-11.625 25.105-28.05 32.146-47.484 9.367-25.879 8.772-51.929-1.633-71.472-2.929-5.499-8.214-12.981-16.76-17.39-4.449-2.286-9.346-3.541-14.536-4.87z" fill="url(#paint0_linear_634_3615)" fill-opacity=".15"/><path d="M88.761 146.084c7.504-7.321 15.022-15.358 20.989-24.597 8.298-12.827 12.242-27.227 11.449-41.653-.593-10.775-3.403-21.745-8.331-32.673.321 6.315-.039 12.652-1.269 18.852-2.602 13.091-9.343 24.429-19.112 33.461-7.889 7.29-17.126 12.953-26.496 18.205-8.58 4.807-17.431 9.353-26.975 11.717-.938.232-1.904.452-2.708.983-1.077.712-1.75 1.912-2.11 3.153-2.353 8.042 6.599 12.103 12.852 13.965 13.558 4.037 28.286 3.172 41.712-1.413z" fill="url(#paint1_linear_634_3615)" fill-opacity=".15"/><defs><linearGradient id="paint0_linear_634_3615" x1="43.091" y1="74.419" x2="152.446" y2="137.555" gradientUnits="userSpaceOnUse"><stop stop-color="#3F3F3F"/><stop offset="1"/></linearGradient><linearGradient id="paint1_linear_634_3615" x1="60.876" y1="86.9" x2="112.593" y2="116.76" gradientUnits="userSpaceOnUse"><stop stop-color="#3F3F3F"/><stop offset="1"/></linearGradient></defs></svg>