<svg width="265" height="277" viewBox="0 0 265 277" fill="none" xmlns="http://www.w3.org/2000/svg"><path d="M206.545 58.85c-14.301 1.4-29.094 10.671-44.064 19.086.188 6.316.052 12.879-.412 19.495 7.869-2.871 16.842.078 23.223 5.852 3.854 3.681 6.314 8.323 7.227 13.237 4.243.314 9.006 1.888 12.764 4.656 10.128 1.033 24.466 7.22 34.727 14.133-2.399-10.342-5.896-24.471-10.024-33.722-.785-1.787 1.369-4.05 3.18-3.345l10.139 3.754c-2.738-8.833-6.669-15.946-12.994-20.787-7.539-5.77-18.269-9.195-33.579-10.568-1.999-.214-2.765-3.401-1.087-4.535l10.903-7.254-.003-.003zm-56.084-25.162a1.354 1.354 0 00-.475-.115c-5.517-.502 5.804 30.998 2.549 64.248l6.875 2.267c3.152-32.21-3.514-63.994-8.947-66.403l-.002.003zm-32.082 15.355c-1.869-1.105-4.184-2.276-6.493-3.315l7.885 10.431c1.19 1.609-.587 4.355-2.542 3.926-14.894-3.527-25.274-3.038-33.796.874-6.623 3.04-12.266 8.991-17.796 16.551l7.283-2.622c2.304.326 4.088.95 2.6 4.01-7.046 7.518-15.117 19.96-20.824 28.993 9.577-2.805 19.007-4.084 26.349-4.415a25.025 25.025 0 019.752-6.87c5.66-2.223 11.804-2.317 17.451-.228 7.683-12.244 22.352-15.802 34.368-8.509 3.186 1.988 5.846 4.6 7.746 7.588.142-4.51.058-9.042-.139-13.5-8.002-11.416-18.39-24.917-31.844-32.912v-.002zm60.477 55.648c-7.368-4.643-16.051-4.508-24.734 2.851.79 5.361-1.713 12.225-5.488 16.972a19.775 19.775 0 005.911 11.405c7.906 7.549 20.356 7.18 27.948-.845 7.593-8.026 7.382-20.524-.522-28.072a27.084 27.084 0 00-3.113-2.31l-.002-.001zm21.925 19.467c-2.337-1.365-5.003-2.311-7.85-2.602a25.132 25.132 0 01-6.636 16.623c3.054 7.469 2.155 15.625-1.718 22.173 1.738.538 3.583.76 5.416.808 10.955.283 20.103-8.262 20.499-19.275.272-7.572-3.666-14.202-9.711-17.727zm-60.76-32.122c-9.269-5.782-21.409-2.773-27.26 6.605-5.851 9.377-3.177 21.537 6.093 27.321 9.269 5.783 21.433 2.879 27.283-6.498 5.851-9.377 3.152-21.645-6.116-27.428zm42.241 49.691c-9.465 6.702-22.543 6.06-31.165-2.172-1.227-1.171-2.29-2.472-3.239-3.859-4.47 5.735-5.524 13.496-2.607 20.238 4.352 10.064 15.983 14.574 26.043 10.093 9.396-4.186 13.954-14.73 10.971-24.3h-.003zm-76.188-40.828c-4.407-1.512-9.21-1.389-13.6.335-10.245 4.024-15.388 15.463-11.492 25.72 3.548 9.338 13.33 14.325 22.785 12.103-2.228-6.873-1.353-14.481 2.633-20.866-2.09-5.426-2.328-11.594-.325-17.291l-.001-.001zm38.415 27.641c-7.992 6.226-19.236 7.201-28.229 1.59a24.334 24.334 0 01-7.1-6.726c-2.764 6.433-2.027 14.002 2.174 19.731 6.4 8.727 18.526 10.545 27.35 4.202.184-5.954 2.441-11.798 6.643-16.343a24.521 24.521 0 01-.839-2.453l.001-.001zm52.477 36.784c-4.955 1.334-10.281.989-15.437-.812a24.828 24.828 0 01-4.413 3.861c4 3.181 6.823 7.455 8.232 12.212a20.012 20.012 0 0011.617-15.261h.001zm-24.768 5.678c-6.557 2.563-13.641 2.09-19.583-.732-1.009 7.159-5.037 13.353-10.769 17.259-.248 7.793 3.96 14.899 10.908 18.291 9.82 4.792 21.781.639 26.652-9.28 4.567-9.3 1.307-20.253-7.207-25.536l-.001-.002zm-33.048-18.138c-7.756 4.335-17.097 4.086-24.471-.201-4.023 3.836-6.32 9.175-6.277 14.734.082 11.014 9.01 19.731 19.969 19.533 10.716-.194 19.221-8.927 19.521-19.607-4.101-3.305-7.674-8.711-8.742-14.458v-.001zm-33.37-9.152c-8.47 2.331-17.305-.099-23.394-5.868a20.353 20.353 0 00-3.08 8.001c-1.711 10.899 5.612 20.96 16.439 22.566a24.978 24.978 0 017.768-2.962 25.238 25.238 0 017.068-15.711c-1.665-1.729-3.57-3.717-4.801-6.028v.002zm31.148 46.444c-1.346.532-2.713.972-4.158 1.263-.698 9.26-6.522 17.22-14.713 20.955 1.68 7.946 7.946 14.048 15.925 15.356 10.446 1.712 20.391-5.114 22.726-15.402a24.405 24.405 0 01-6.095-2.057c-7.825-3.819-12.981-11.51-13.686-20.115h.001zm-33.24-19.728c-9.352 2.249-15.87 10.931-15.344 20.652.592 10.994 9.947 19.35 20.892 18.639 9.812-.637 17.516-8.302 18.579-17.807-12.377-.058-22.59-9.393-24.128-21.484h.001zm9.681 43.616c-1.136.223-2.494.541-3.853.628a24.478 24.478 0 01-17.966-6.247c-2.73 2.526-4.785 5.849-5.793 9.432-2.993 10.63 3.038 21.471 13.583 24.369 10.341 2.841 21.14-3.113 24.371-13.366a24.358 24.358 0 01-10.343-14.814l.001-.002z" fill="url(#paint0_linear_689_5673)" fill-opacity=".15"/><defs><linearGradient id="paint0_linear_689_5673" x1="189.235" y1="48.049" x2="76.407" y2="228.891" gradientUnits="userSpaceOnUse"><stop stop-color="#3F3F3F"/><stop offset="1"/></linearGradient></defs></svg>