<svg width="469" height="433" viewBox="0 0 469 433" fill="none" xmlns="http://www.w3.org/2000/svg"><g clip-path="url(#clip0_623_6019)" fill-opacity=".15"><path d="M377.099 98.11c-10.524-10.295-21.408-20.943-28.105-34.757-3.269-6.743-5.328-13.843-7.327-20.709-1.106-3.81-2.214-7.634-3.53-11.373-3.965-11.234-8.946-18.532-14.388-21.09-2.953-1.395-6.181-1.415-9.866-.068-4.794 1.758-6.137 4.287-6.731 6.048-3.933 11.497 10.724 34.858 20.42 50.314 5.078 8.098 9.091 14.488 10.519 18.897 2.819 8.68 2.73 17.81 2.214 26.378-1.924 31.706-9.373 60.567-22.14 85.79-15.485 30.59-40.645 55.464-72.758 71.92-25.718 13.171-53.294 20.83-79.26 27.137-28.057 6.811-51.754 11.198-76.23 10.47-2.35-.07-4.18-.125-5.496.298a5.164 5.164 0 00-1.002.449c-1.197.691-2.367 1.905-3.379 3.525-8.464 13.602 6.4 26.931 20.355 35.721 34.134 21.49 78.684 29.525 122.235 22.058 39.616-6.778 79.005-25.931 113.938-55.331 46.502-39.16 74.134-89.651 75.815-138.528.469-13.754-1.377-33.904-12.857-51.775-5.986-9.287-13.967-17.098-22.427-25.374z" fill="url(#paint0_linear_623_6019)"/><path d="M173.008 283.424c22.441-5.717 45.697-12.788 67.317-23.871 30.039-15.374 53.488-38.564 67.905-67.036 10.766-21.268 17.505-45.356 20.149-71.704-6.361 12.437-14.049 24.16-23.25 34.661-19.435 22.17-44.852 36.413-73.517 42.903-23.141 5.233-47.066 5.863-70.791 5.563-21.723-.282-43.675-1.361-64.543-7.379-2.05-.592-4.141-1.238-6.265-1.11-2.847.172-5.459 1.725-7.52 3.7-13.382 12.785-.744 30.441 9.162 40.909 21.478 22.696 50.608 37.308 81.354 43.364h-.001z" fill="url(#paint1_linear_623_6019)"/></g><defs><linearGradient id="paint0_linear_623_6019" x1="164.793" y1="95.891" x2="304.254" y2="337.444" gradientUnits="userSpaceOnUse"><stop stop-color="#3F3F3F"/><stop offset="1"/></linearGradient><linearGradient id="paint1_linear_623_6019" x1="185.029" y1="139.411" x2="250.985" y2="253.65" gradientUnits="userSpaceOnUse"><stop stop-color="#3F3F3F"/><stop offset="1"/></linearGradient><clipPath id="clip0_623_6019"><path fill="#fff" transform="rotate(-30 355.842 94.994)" d="M0 0h379.614v279.677H0z"/></clipPath></defs></svg>