<svg width="346" height="398" viewBox="0 0 346 398" fill="none" xmlns="http://www.w3.org/2000/svg"><g clip-path="url(#clip0_630_3225)"><path d="M296.884 83.902C276.296 85.918 255 99.266 233.448 111.38c.27 9.093.075 18.54-.593 28.065 11.328-4.132 24.245.113 33.432 8.426 5.549 5.298 9.09 11.981 10.405 19.056 6.107.451 12.965 2.717 18.375 6.703 14.581 1.487 35.222 10.393 49.994 20.347-3.453-14.89-8.488-35.23-14.43-48.549-1.131-2.571 1.969-5.829 4.577-4.815l14.596 5.404c-3.942-12.715-9.601-22.955-18.707-29.924-10.853-8.309-26.3-13.238-48.341-15.215-2.878-.308-3.98-4.897-1.565-6.529l15.697-10.443-.004-.004zm-80.741-36.223a1.951 1.951 0 00-.683-.165c-7.944-.723 8.355 44.625 3.669 92.492l9.897 3.265c4.539-46.371-5.059-92.128-12.88-95.596l-.003.004zm-46.185 22.106c-2.691-1.59-6.024-3.276-9.349-4.773l11.351 15.017c1.714 2.316-.844 6.27-3.658 5.653-21.442-5.078-36.385-4.375-48.654 1.257-9.535 4.378-17.659 12.944-25.62 23.828l10.485-3.775c3.317.47 5.885 1.368 3.742 5.772-10.143 10.825-21.762 28.737-29.978 41.741 13.787-4.039 27.363-5.881 37.932-6.357a36.05 36.05 0 0114.04-9.89c8.148-3.2 16.994-3.335 25.123-.329 11.061-17.626 32.178-22.748 49.477-12.249 4.587 2.862 8.416 6.621 11.152 10.925.204-6.494.083-13.018-.201-19.435-11.519-16.436-26.474-35.873-45.843-47.383l.001-.002zm87.064 80.113c-10.607-6.685-23.108-6.491-35.609 4.104 1.137 7.718-2.466 17.6-7.9 24.434.919 6.264 3.943 12.059 8.51 16.419 11.381 10.867 29.305 10.336 40.235-1.218s10.627-29.547-.752-40.413a38.88 38.88 0 00-4.482-3.325l-.002-.001zm31.564 28.025c-3.365-1.965-7.203-3.327-11.302-3.746a36.177 36.177 0 01-9.553 23.931c4.397 10.752 3.103 22.494-2.473 31.921 2.501.774 5.157 1.094 7.797 1.163 15.771.407 28.94-11.894 29.511-27.749.391-10.901-5.277-20.445-13.98-25.52zm-87.473-46.244c-13.343-8.325-30.821-3.992-39.244 9.508-8.422 13.5-4.573 31.006 8.772 39.333 13.344 8.325 30.855 4.145 39.278-9.355 8.422-13.5 4.537-31.161-8.806-39.486zm60.813 71.537c-13.628 9.648-32.454 8.724-44.867-3.128-1.766-1.685-3.298-3.559-4.664-5.555-6.434 8.257-7.951 19.429-3.753 29.136 6.267 14.488 23.011 20.98 37.493 14.529 13.527-6.026 20.089-21.206 15.795-34.983l-.004.001zm-109.684-58.778c-6.344-2.177-13.258-1.999-19.578.482-14.75 5.794-22.154 22.262-16.545 37.029 5.108 13.442 19.192 20.622 32.802 17.423-3.207-9.895-1.947-20.847 3.791-30.039-3.01-7.812-3.351-16.691-.468-24.893l-.002-.002zm55.304 39.794c-11.506 8.962-27.693 10.366-40.64 2.288a35.026 35.026 0 01-10.221-9.683c-3.979 9.261-2.918 20.158 3.13 28.406 9.214 12.563 26.67 15.181 39.374 6.048.264-8.571 3.514-16.984 9.563-23.527a35.31 35.31 0 01-1.207-3.532h.001zm75.547 52.954c-7.134 1.922-14.801 1.424-22.223-1.168-1.879 2.066-3.985 3.95-6.353 5.559a35.172 35.172 0 0111.851 17.579 28.81 28.81 0 0016.725-21.97zm-35.657 8.176c-9.439 3.689-19.637 3.008-28.192-1.056-1.453 10.307-7.251 19.224-15.503 24.848-.357 11.218 5.701 21.449 15.704 26.332 14.137 6.898 31.356.92 38.369-13.359 6.574-13.389 1.881-29.157-10.376-36.763l-.002-.002zm-47.576-26.113c-11.166 6.24-24.614 5.882-35.23-.289-5.791 5.522-9.098 13.208-9.037 21.21.118 15.857 12.972 28.406 28.748 28.122 15.428-.279 27.672-12.853 28.104-28.228-5.904-4.757-11.047-12.54-12.586-20.814l.001-.001zm-48.041-13.175c-12.195 3.354-24.914-.143-33.679-8.449a29.312 29.312 0 00-4.433 11.519c-2.464 15.691 8.078 30.175 23.665 32.487 3.384-2.005 7.161-3.448 11.184-4.265a36.326 36.326 0 0110.175-22.617c-2.397-2.49-5.14-5.352-6.912-8.678v.003zm44.841 66.861c-1.936.766-3.905 1.4-5.986 1.819-1.004 13.331-9.388 24.79-21.181 30.167 2.419 11.44 11.44 20.225 22.926 22.108 15.038 2.465 29.356-7.363 32.718-22.175-2.984-.574-5.924-1.569-8.774-2.96-11.266-5.498-18.689-16.571-19.704-28.959h.001zm-47.853-28.401c-13.463 3.238-22.847 15.737-22.09 29.732.852 15.828 14.321 27.857 30.077 26.833 14.127-.918 25.217-11.952 26.748-25.635-17.819-.084-32.521-13.522-34.736-30.93h.001zm13.938 62.792c-1.635.32-3.591.778-5.548.904-9.839.637-19.07-2.877-25.864-8.994-3.929 3.636-6.888 8.42-8.339 13.579-4.309 15.303 4.373 30.911 19.553 35.082 14.888 4.09 30.435-4.481 35.087-19.243a35.065 35.065 0 01-14.891-21.326l.002-.002z" fill="url(#paint0_linear_630_3225)" fill-opacity=".15"/></g><defs><linearGradient id="paint0_linear_630_3225" x1="271.964" y1="68.354" x2="109.533" y2="328.7" gradientUnits="userSpaceOnUse"><stop stop-color="#3F3F3F"/><stop offset="1"/></linearGradient><clipPath id="clip0_630_3225"><path fill="#fff" transform="rotate(31.96 81.324 283.982)" d="M0 0h257.693v307.273H0z"/></clipPath></defs></svg>