<svg width="116" height="112" viewBox="24 20 72 72" fill="none" xmlns="http://www.w3.org/2000/svg"><path d="M88.578 75.619c.985-.481 1.774-1.87 1.774-3.105l5.737 3.796c0 1.236-.79 2.624-1.774 3.105l-5.737-3.796z" fill="#595A44"/><path d="M72.905 83.272l15.673-7.655 5.737 3.796-15.673 7.655-5.737-3.796zm17.448-10.758V23.297l5.737 3.796V76.31l-5.737-3.796zM71.71 83.276c.315.208.734.224 1.194 0l5.737 3.795c-.46.225-.879.209-1.194 0l-5.737-3.795z" fill="#595A44"/><path d="M71.13 81.9c0 .657.224 1.138.58 1.373l5.737 3.796c-.356-.236-.58-.716-.58-1.373L71.132 81.9zm-3.843 0c0 1.238-.794 1.851-1.773 1.373l5.737 3.796c.98.478 1.773-.135 1.773-1.373L67.287 81.9zm23.066-58.601c0-.657-.224-1.138-.58-1.373l5.737 3.796c.356.235.58.716.58 1.372l-5.737-3.796z" fill="#595A44"/><path d="M89.773 21.924c-.315-.208-.735-.224-1.195 0l5.737 3.796c.46-.224.88-.208 1.195 0l-5.737-3.796zM71.13 32.684V81.9l5.738 3.796V36.48l-5.737-3.796zm-5.617 50.588l-15.674-7.655 5.737 3.796 15.674 7.655-5.737-3.796z" fill="#595A44"/><path d="M67.287 32.684V81.9l5.737 3.796V36.48l-5.737-3.796zm21.291-10.758L72.905 29.58l5.737 3.796 15.673-7.655-5.737-3.796z" fill="#595A44"/><path d="M72.904 29.58c-.984.481-1.773 1.869-1.773 3.105l5.737 3.796c0-1.236.789-2.624 1.774-3.105l-5.737-3.796zM49.84 75.619c-.985-.481-1.775-1.87-1.775-3.105l5.738 3.796c0 1.025.542 2.154 1.289 2.784l.484.32a2.368 2.368 0 01-.484-.32l-5.253-3.475zm17.447-42.934c0-1.025-.543-2.155-1.29-2.785l-.483-.32c.168.082.33.19.483.32l5.254 3.476c.984.481 1.773 1.869 1.773 3.105l-5.737-3.796zm-24.84 42.944c.985-.481 1.774-1.869 1.774-3.106l5.737 3.796c0 1.237-.789 2.624-1.774 3.106l-5.737-3.796z" fill="#595A44"/><path d="M26.774 83.282l15.673-7.655 5.737 3.796-15.672 7.655-5.738-3.796zm21.291-10.768V23.297l5.738 3.796V76.31l-5.738-3.796zm1.774-50.588l15.674 7.655 5.737 3.796-15.674-7.655-5.737-3.796z" fill="#595A44"/><path d="M44.222 72.521V23.305l5.737 3.796v49.216l-5.737-3.796zM25.58 83.281c.315.209.735.225 1.195 0l5.737 3.796c-.46.225-.88.209-1.195 0l-5.737-3.796z" fill="#595A44"/><path d="M25.001 81.91c0 .657.223 1.137.58 1.373l5.736 3.796c-.356-.236-.579-.717-.579-1.373l-5.737-3.796zm23.064-58.613c0-1.238.795-1.851 1.774-1.373l5.737 3.796c-.98-.478-1.773.135-1.773 1.373l-5.738-3.796zm-3.843.007c0-.656-.223-1.137-.58-1.372l5.738 3.796c.356.235.579.716.579 1.372l-5.737-3.796z" fill="#595A44"/><path d="M43.642 21.934c-.316-.209-.735-.225-1.195 0l5.737 3.796c.46-.225.88-.209 1.195 0l-5.737-3.796zM25.001 32.693V81.91l5.737 3.796V36.489l-5.737-3.796z" fill="#595A44"/><path d="M42.447 21.932l-15.673 7.655 5.737 3.796 15.673-7.656-5.737-3.795zM26.775 29.59c-.985.48-1.774 1.869-1.774 3.105l5.737 3.796c0-1.237.79-2.625 1.774-3.105l-5.737-3.796z" fill="#595A44"/><g filter="url(#filter0_d_1045_13240)"><path fill-rule="evenodd" clip-rule="evenodd" d="M42.444 21.933c.98-.479 1.774.135 1.774 1.372v49.217c0 1.237-.79 2.624-1.774 3.105l-15.67 7.655c-.98.479-1.774-.134-1.774-1.372V32.693c0-1.236.79-2.624 1.774-3.105l15.67-7.655zm46.123-.009c.98-.478 1.774.135 1.774 1.373v49.217c0 1.236-.79 2.624-1.774 3.105l-15.67 7.655c-.98.478-1.774-.135-1.774-1.373V32.685c0-1.237.79-2.625 1.774-3.106l15.67-7.655zm-38.732 0c-.98-.478-1.774.135-1.774 1.373v49.217c0 1.236.79 2.624 1.774 3.105l15.671 7.655c.98.478 1.774-.135 1.774-1.373V32.685c0-1.237-.79-2.625-1.774-3.106l-15.671-7.655z" fill="#EBEBEA"/></g><defs><filter id="filter0_d_1045_13240" x=".327" y=".884" width="114.688" height="111.03" filterUnits="userSpaceOnUse" color-interpolation-filters="sRGB"><feFlood flood-opacity="0" result="BackgroundImageFix"/><feColorMatrix in="SourceAlpha" values="0 0 0 0 0 0 0 0 0 0 0 0 0 0 0 0 0 0 127 0" result="hardAlpha"/><feOffset dy="3.796"/><feGaussianBlur stdDeviation="12.337"/><feComposite in2="hardAlpha" operator="out"/><feColorMatrix values="0 0 0 0 0 0 0 0 0 0 0 0 0 0 0 0 0 0 0.1 0"/><feBlend in2="BackgroundImageFix" result="effect1_dropShadow_1045_13240"/><feBlend in="SourceGraphic" in2="effect1_dropShadow_1045_13240" result="shape"/></filter></defs></svg>