<svg width="71" height="73" viewBox="0 0 71 73" fill="none" xmlns="http://www.w3.org/2000/svg"><path d="M19.624 32.687l-.029.433-2.306 34.863v.006a3.22 3.22 0 00.205 1.404c.172.45.445.866.803 1.22a3.82 3.82 0 001.28.827l-.192.486.192-.486a4.09 4.09 0 001.543.284h2.325c2.29 0 3.967-1.718 3.836-3.741l-7.657-35.296zm0 0l-.42-.107c-5.889-1.503-10.317-7.252-10.317-14.16 0-8.076 6.036-14.55 13.398-14.55 1.49 0 2.924.264 4.262.751 5.291 1.927 9.136 7.36 9.136 13.798 0 6.909-4.428 12.653-10.317 14.161l-.42.108.03.432 2.305 34.862-7.657-35.295zM69.506 3.87h.972v27.467c0 .42-.18.83-.513 1.14-.334.31-.796.492-1.285.492h-6.599l.037.556 2.278 34.457c.131 2.024-1.545 3.742-3.836 3.742h-2.325a4.09 4.09 0 01-1.543-.284 3.816 3.816 0 01-1.28-.828 3.448 3.448 0 01-.803-1.22 3.221 3.221 0 01-.205-1.403v-.007l2.278-34.457.037-.556h-6.598c-.233 0-.46-.041-.67-.118a1.82 1.82 0 01-.616-.374 1.556 1.556 0 01-.513-1.14V3.87h.976l3.788 21.1.078.43h3.813l.043-.475L58.912 3.87h.98l1.893 21.055.043.475h3.812l.077-.43 3.788-21.1z" fill="#565742" stroke="#575843" stroke-width="1.044"/><path d="M7.86 17.678l-6.816-2.48C1.22 7.326 7.137 1.065 14.346 1.013l5.557 2.022C13.255 4.224 8.18 10.305 7.86 17.678zm3.545 12.061a.532.532 0 00-.05-.016c-5.672-1.448-9.99-6.838-10.298-13.409l6.79 2.472c.099 4.597 2.042 8.714 5.074 11.505l-1.516-.552z" fill="#565742" stroke="#575843" stroke-width="1.044" stroke-linejoin="round"/><mask id="a" fill="#fff"><path d="M14.438.49c1.552 0 3.046.275 4.44.783l7.843 2.855a12.943 12.943 0 00-4.436-.781L14.437.49z"/></mask><path d="M14.438.49c1.552 0 3.046.275 4.44.783l7.843 2.855a12.943 12.943 0 00-4.436-.781L14.437.49z" fill="#565742"/><path d="M26.543 4.619l.004.001.358-.98-.005-.003-.357.982zm-7.665-3.346l-.357.981.357-.98zM14.438.49V-.554a1.044 1.044 0 00-.357 2.025l.357-.98zm7.847 2.857l-.357.98c.114.042.235.063.357.063V3.347zm4.436.781l-.357.981a1.044 1.044 0 00.714-1.962l-.357.981zM19.236.293a13.988 13.988 0 00-4.799-.847v2.088c1.429 0 2.802.253 4.084.72l.715-1.961zM14.08 1.47l7.847 2.856.714-1.961-7.848-2.857-.713 1.962zm8.204 2.92a11.9 11.9 0 014.08.718l.713-1.962a13.987 13.987 0 00-4.793-.844V4.39zm4.793-1.244L19.235.292l-.714 1.962 7.843 2.855.714-1.962z" fill="#575843" mask="url(#a)"/><path d="M35.666 17.666l-6.79-2.471c-.1-4.66-2.095-8.827-5.199-11.62l2.87 1.045h.001c5.084 1.852 8.832 6.94 9.118 13.046zM16.294 67.219l-6.826-2.485 2.234-33.777 6.826 2.484-2.234 33.778zm9.227-34.679l-6.257-2.278c5.414-2.073 9.32-7.518 9.6-13.96l6.815 2.48c-.15 6.686-4.45 12.217-10.158 13.757zm-9.254 36.215L9.57 66.318a3.239 3.239 0 01-.106-.472l6.77 2.464c.003.149.013.297.032.445z" fill="#565742" stroke="#575843" stroke-width="1.044" stroke-linejoin="round"/><mask id="b" fill="#fff"><path d="M10.082 68.127a3.97 3.97 0 01-.924-1.404l7.848 2.856c.2.523.515 1 .924 1.405l-7.848-2.856z"/></mask><path d="M10.082 68.127a3.97 3.97 0 01-.924-1.404l7.848 2.856c.2.523.515 1 .924 1.405l-7.848-2.856z" fill="#565742"/><path d="M9.158 66.723l.357-.981a1.044 1.044 0 00-1.332 1.354l.975-.373zm.925 1.404l-.734.744c.107.105.236.186.376.237l.357-.98zm7.847 2.857l-.357.98a1.044 1.044 0 001.09-1.723l-.733.743zm-.924-1.405l.975-.373a1.044 1.044 0 00-.618-.608l-.357.981zm-8.823-2.483c.255.666.654 1.27 1.166 1.775l1.467-1.487a2.926 2.926 0 01-.683-1.035l-1.95.747zm1.542 2.012l7.848 2.857.714-1.962-7.847-2.856-.715 1.961zm8.938 1.133a2.927 2.927 0 01-.682-1.035l-1.95.746c.255.666.654 1.27 1.166 1.775l1.466-1.486zm-1.3-1.643l-7.848-2.856-.714 1.962 7.848 2.856.714-1.962z" fill="#575843" mask="url(#b)"/><mask id="c" fill="#fff"><path d="M11.538 69.069a4.34 4.34 0 01-1.455-.942l7.848 2.856c.41.404.904.725 1.454.942l-7.847-2.856z"/></mask><path d="M11.538 69.069a4.34 4.34 0 01-1.455-.942l7.848 2.856c.41.404.904.725 1.454.942l-7.847-2.856z" fill="#565742"/><path d="M10.083 68.127l.357-.981a1.044 1.044 0 00-1.09 1.724l.733-.743zm1.455.942l-.384.97a.947.947 0 00.027.01l.357-.98zm7.847 2.856l-.357.98a1.044 1.044 0 00.74-1.951l-.383.971zm-1.454-.942l.733-.743a1.043 1.043 0 00-.376-.238l-.357.981zM9.35 68.87a5.383 5.383 0 001.804 1.17l.767-1.942a3.293 3.293 0 01-1.105-.714L9.35 68.87zm1.83 1.18l7.848 2.856.714-1.962-7.847-2.856-.714 1.962zm8.589.904a3.296 3.296 0 01-1.105-.714l-1.466 1.487a5.383 5.383 0 001.804 1.169l.767-1.942zm-1.481-.952l-7.848-2.856-.714 1.962 7.848 2.856.714-1.962z" fill="#575843" mask="url(#c)"/><path d="M20.453 64.717l-2.23-33.724 6.775 2.466 2.23 33.724-6.775-2.466z" fill="#565742" stroke="#575843" stroke-width="1.044" stroke-linejoin="round"/><mask id="d" fill="#fff"><path d="M11.768 69.152a4.566 4.566 0 01-.23-.084l.23.084a4.62 4.62 0 001.51.236l7.847 2.856a4.613 4.613 0 01-1.74-.32l-7.617-2.772z"/></mask><path d="M11.768 69.152a4.566 4.566 0 01-.23-.084l.23.084a4.62 4.62 0 001.51.236l7.847 2.856a4.613 4.613 0 01-1.74-.32l-7.617-2.772z" fill="#565742"/><path d="M11.538 69.068l.357-.98a1.044 1.044 0 00-.74 1.951l.383-.97zm1.74.32l.357-.98a1.043 1.043 0 00-.368-.064l.01 1.044zm7.847 2.856l.011 1.044a1.044 1.044 0 00.347-2.024l-.358.98zm-1.74-.32l.384-.97-.026-.01-.357.98zm-8.23-1.885c.093.037.187.072.283.103l.66-1.98a3.552 3.552 0 01-.177-.065l-.766 1.942zm.283.103a5.665 5.665 0 001.85.29l-.02-2.088c-.4.005-.797-.058-1.17-.182l-.66 1.98zm1.483.227l7.848 2.856.714-1.961-7.848-2.857-.714 1.962zm8.194.832a3.567 3.567 0 01-1.346-.247l-.767 1.942c.677.267 1.403.4 2.134.392l-.021-2.087zm-1.372-.257l-7.618-2.773-.714 1.962 7.618 2.773.714-1.962zm-7.618-2.773l-.23-.084-.714 1.962.23.084.714-1.962z" fill="#575843" mask="url(#d)"/><mask id="e" fill="#fff"><path d="M15.597 69.389h-2.32l7.848 2.856h2.32l-7.848-2.856z"/></mask><path d="M15.597 69.389h-2.32l7.848 2.856h2.32l-7.848-2.856z" fill="#565742"/><path d="M13.277 69.389v-1.044a1.044 1.044 0 00-.357 2.025l.357-.981zm2.32 0l.357-.981a1.046 1.046 0 00-.357-.063v1.044zm7.848 2.856v1.044a1.044 1.044 0 00.357-2.025l-.357.981zm-2.32 0l-.357.98c.114.043.235.064.357.064v-1.044zm-7.848-1.812h2.32v-2.088h-2.32v2.088zm1.963-.063l7.848 2.856.714-1.962-7.848-2.856-.714 1.962zm8.205.831h-2.32v2.088h2.32V71.2zm-1.963.063l-7.848-2.856-.714 1.962 7.848 2.856.714-1.962z" fill="#575843" mask="url(#e)"/><mask id="f" fill="#fff"><path d="M39.953.49h1.935l7.848 2.857H47.8L39.953.49z"/></mask><path d="M39.953.49h1.935l7.848 2.857H47.8L39.953.49z" fill="#565742"/><path d="M41.888.49l.357-.98a1.043 1.043 0 00-.357-.064V.49zm-1.935 0V-.554a1.044 1.044 0 00-.357 2.025l.357-.98zm7.848 2.857l-.357.98c.114.042.235.063.357.063V3.347zm1.935 0V4.39a1.044 1.044 0 00.357-2.024l-.357.98zm-7.848-3.9h-1.935v2.087h1.935V-.554zM39.596 1.47l7.848 2.856.714-1.961L40.31-.491l-.714 1.962zm8.205 2.92h1.935V2.302H47.8V4.39zm2.292-2.025L42.245-.491l-.714 1.962 7.848 2.856.714-1.961z" fill="#575843" mask="url(#f)"/><path d="M23.535 71.723l-5.989-2.18c1.587-.632 2.731-2.019 2.914-3.712l6.827 2.485c-.062 1.85-1.633 3.365-3.752 3.407zM47.279 30.59l-6.804-2.476V1.236l6.804 2.476v26.879z" fill="#565742" stroke="#575843" stroke-width="1.044" stroke-linejoin="round"/><path d="M46.214 21.633L42.562 1.291l6.713 2.443 3.651 20.342-6.712-2.443zm1.126 10.256l-6.423-2.338a1.65 1.65 0 01-.186-.232l6.576 2.393c.009.06.02.119.033.177z" fill="#565742" stroke="#575843" stroke-width="1.044" stroke-linejoin="round"/><mask id="g" fill="#fff"><path d="M50.588.49h1.935l7.847 2.857h-1.934L50.587.49z"/></mask><path d="M50.588.49h1.935l7.847 2.857h-1.934L50.587.49z" fill="#565742"/><path d="M52.523.49l.357-.98a1.044 1.044 0 00-.357-.064V.49zm-1.935 0V-.554a1.044 1.044 0 00-.357 2.025l.357-.98zm7.847 2.857l-.357.98c.115.042.236.063.357.063V3.347zm1.935 0V4.39a1.044 1.044 0 00.357-2.024l-.357.98zm-7.847-3.9h-1.935v2.087h1.935V-.554zM50.23 1.47l7.847 2.856.715-1.961-7.848-2.857-.714 1.962zm8.204 2.92h1.935V2.302h-1.934V4.39zm2.292-2.025L52.88-.491l-.714 1.962 7.847 2.856.714-1.961z" fill="#575843" mask="url(#g)"/><mask id="h" fill="#fff"><path d="M41.425 30.486a2.344 2.344 0 01-.793-.482l7.848 2.856c.227.212.498.375.792.482l-7.847-2.856z"/></mask><path d="M41.425 30.486a2.344 2.344 0 01-.793-.482l7.848 2.856c.227.212.498.375.792.482l-7.847-2.856z" fill="#565742"/><path d="M40.632 30.004l.357-.981a1.044 1.044 0 00-1.067 1.746l.71-.765zm.793.482l-.358.98.358-.98zm7.847 2.856l-.357.98a1.044 1.044 0 00.715-1.96l-.358.98zm-.792-.482l.71-.765a1.044 1.044 0 00-.353-.216l-.358.981zm-8.558-2.09c.334.309.725.543 1.145.697l.715-1.962a1.299 1.299 0 01-.44-.266l-1.42 1.53zm1.146.697l7.847 2.856.714-1.962-7.847-2.856-.714 1.962zm8.562.894a1.299 1.299 0 01-.44-.266l-1.42 1.53c.333.31.725.545 1.145.698l.715-1.962zm-.794-.482l-7.847-2.856-.714 1.962 7.847 2.856.715-1.962z" fill="#575843" mask="url(#h)"/><mask id="i" fill="#fff"><path d="M42.272 30.633a2.48 2.48 0 01-.846-.148l7.846 2.856c.268.097.555.148.848.148l-7.848-2.856z"/></mask><path d="M42.272 30.633a2.48 2.48 0 01-.846-.148l7.846 2.856c.268.097.555.148.848.148l-7.848-2.856z" fill="#565742"/><path d="M41.246 30.975h.002l.356-.98v-.001l-.358.98zm.18-.49l.357-.981a1.044 1.044 0 00-.714 1.962l.357-.981zm.846.148l.358-.98a1.043 1.043 0 00-.358-.064v1.044zm7.848 2.857v1.043a1.044 1.044 0 00.357-2.024l-.357.98zm-.847-.15l.357-.98-.358.98zm-8.204-1.874c.382.139.79.211 1.203.211V29.59c-.17 0-.336-.03-.49-.085l-.713 1.962zm.846.148l7.848 2.857.714-1.962-7.847-2.857-.715 1.962zm8.205.832c-.171 0-.337-.03-.49-.086l-.715 1.962c.382.139.79.211 1.205.211v-2.087zm-.49-.086l-7.847-2.856-.714 1.962 7.846 2.856.715-1.962z" fill="#575843" mask="url(#i)"/><path d="M56.04 24.155l-6.832-2.487 1.838-20.455L57.88 3.7l-1.838 20.455z" fill="#565742" stroke="#575843" stroke-width="1.044" stroke-linejoin="round"/><mask id="j" fill="#fff"><path d="M45.752 22.021h2.9l7.848 2.857h-2.9l-7.848-2.857z"/></mask><path d="M45.752 22.021h2.9l7.848 2.857h-2.9l-7.848-2.857z" fill="#565742"/><path d="M48.652 22.021l.357-.98a1.046 1.046 0 00-.357-.063v1.043zm-2.9 0v-1.043a1.044 1.044 0 00-.357 2.024l.357-.98zm7.848 2.857l-.357.98c.114.042.235.064.357.064v-1.044zm2.9 0v1.044a1.044 1.044 0 00.357-2.025l-.357.98zm-7.848-3.9h-2.9v2.087h2.9v-2.087zm-3.257 2.024l7.848 2.857.714-1.962-7.848-2.856-.714 1.961zm8.205 2.92h2.9v-2.088h-2.9v2.088zm3.257-2.025l-7.848-2.856-.714 1.961 7.847 2.857.715-1.962z" fill="#575843" mask="url(#j)"/><path d="M53.201 32.967h-2.989l-4.98-1.812h2.99l4.98 1.812zm1.746-11.323L53.116 1.262l6.764 2.462 1.832 20.382-6.765-2.462z" fill="#565742" stroke="#575843" stroke-width="1.044" stroke-linejoin="round"/><mask id="k" fill="#fff"><path d="M61.222.49h-.004l7.847 2.857h.005L61.222.49z"/></mask><path d="M61.222.49h-.004l7.847 2.857h.005L61.222.49z" fill="#565742"/><path d="M61.218.49V-.554a1.044 1.044 0 00-.357 2.025l.357-.98zm.004 0l.358-.98a1.044 1.044 0 00-.358-.064V.49zm7.848 2.857V4.39a1.044 1.044 0 00.357-2.024l-.357.98zm-.005 0l-.357.98c.115.042.236.063.357.063V3.347zm-7.847-1.813h.004V-.554h-.004v2.088zm-.353-.063l7.848 2.856.714-1.961L61.58-.491l-.714 1.962zm8.205.832h-.005V4.39h.005V2.303zm.353.063L61.575-.491l-.714 1.962 7.847 2.856.715-1.961z" fill="#575843" mask="url(#k)"/><mask id="l" fill="#fff"><path d="M61.218.49h1.935L71 3.347h-1.935L61.218.49z"/></mask><path d="M61.218.49h1.935L71 3.347h-1.935L61.218.49z" fill="#565742"/><path d="M63.153.49l.357-.98a1.044 1.044 0 00-.357-.064V.49zm-1.935 0V-.554a1.044 1.044 0 00-.357 2.025l.357-.98zm7.847 2.857l-.357.98c.115.042.236.063.357.063V3.347zm1.935 0V4.39a1.044 1.044 0 00.357-2.024l-.357.98zm-7.847-3.9h-1.935v2.087h1.935V-.554zM60.86 1.47l7.847 2.856.715-1.961-7.848-2.857-.714 1.962zm8.204 2.92H71V2.302h-1.935V4.39zm2.292-2.025L63.51-.491l-.714 1.962 7.847 2.856.714-1.961z" fill="#575843" mask="url(#l)"/><path d="M64.8 24.175l-6.852-2.494 3.678-20.488 6.852 2.494L64.8 24.175z" fill="#565742" stroke="#575843" stroke-width="1.044" stroke-linejoin="round"/><mask id="m" fill="#fff"><path d="M54.457 22.021h2.9l7.848 2.857h-2.9l-7.848-2.857z"/></mask><path d="M54.457 22.021h2.9l7.848 2.857h-2.9l-7.848-2.857z" fill="#565742"/><path d="M57.357 22.021l.357-.98a1.045 1.045 0 00-.357-.063v1.043zm-2.9 0v-1.043a1.044 1.044 0 00-.357 2.024l.357-.98zm7.848 2.857l-.357.98c.114.042.235.064.357.064v-1.044zm2.9 0v1.044a1.044 1.044 0 00.357-2.025l-.357.98zm-7.848-3.9h-2.9v2.087h2.9v-2.087zM54.1 23.002l7.848 2.857.714-1.962-7.848-2.856-.714 1.961zm8.205 2.92h2.9v-2.088h-2.9v2.088zm3.257-2.025l-7.848-2.856L57 23.002l7.848 2.857.714-1.962z" fill="#575843" mask="url(#m)"/><path d="M53.409 67.218l-6.826-2.484 2.206-33.373 6.826 2.485-2.206 33.372zM70.478 30.59l-6.804-2.476V1.236l6.804 2.476v26.879zm-4.758 2.377h-2.99l-4.979-1.812h2.99l4.979 1.812zM53.382 68.755l-6.696-2.437a3.232 3.232 0 01-.106-.472l6.77 2.464c.003.149.014.297.032.445z" fill="#565742" stroke="#575843" stroke-width="1.044" stroke-linejoin="round"/><mask id="n" fill="#fff"><path d="M47.198 68.127a3.972 3.972 0 01-.925-1.404l7.848 2.856c.2.523.515 1 .924 1.405l-7.847-2.856z"/></mask><path d="M47.198 68.127a3.972 3.972 0 01-.925-1.404l7.848 2.856c.2.523.515 1 .924 1.405l-7.847-2.856z" fill="#565742"/><path d="M46.273 66.723l.357-.981a1.044 1.044 0 00-1.332 1.354l.975-.373zm.925 1.404l-.733.744c.106.105.235.186.376.237l.357-.98zm7.847 2.857l-.357.98a1.044 1.044 0 001.09-1.723l-.733.743zm-.924-1.405l.975-.373a1.044 1.044 0 00-.618-.608l-.357.981zm-8.823-2.483c.255.666.654 1.27 1.167 1.775l1.466-1.487a2.928 2.928 0 01-.683-1.035l-1.95.747zm1.543 2.012l7.847 2.857.714-1.962-7.847-2.856-.714 1.961zm8.938 1.133a2.926 2.926 0 01-.683-1.035l-1.95.746c.255.666.654 1.27 1.166 1.775l1.467-1.486zm-1.3-1.643l-7.849-2.856-.714 1.962 7.848 2.856.714-1.962z" fill="#575843" mask="url(#n)"/><path d="M69.014 32.94a1.993 1.993 0 01-.248.027l-6.303-2.294c.037-.025.074-.05.11-.077l6.441 2.344z" fill="#565742" stroke="#575843" stroke-width="1.044" stroke-linejoin="round"/><mask id="o" fill="#fff"><path d="M48.653 69.069a4.34 4.34 0 01-1.455-.942l7.848 2.856c.41.404.905.725 1.455.942l-7.848-2.856z"/></mask><path d="M48.653 69.069a4.34 4.34 0 01-1.455-.942l7.848 2.856c.41.404.905.725 1.455.942l-7.848-2.856z" fill="#565742"/><path d="M47.198 68.127l.357-.981a1.044 1.044 0 00-1.09 1.724l.733-.743zm1.455.942l-.383.97a.756.756 0 00.026.01l.357-.98zm7.848 2.856l-.357.98a1.044 1.044 0 00.74-1.951l-.383.971zm-1.455-.942l.733-.743a1.043 1.043 0 00-.376-.238l-.357.981zm-8.58-2.113a5.383 5.383 0 001.803 1.17l.767-1.942a3.295 3.295 0 01-1.105-.714l-1.466 1.486zm1.83 1.18l7.848 2.856.714-1.962-7.848-2.856-.714 1.962zm8.588.904a3.295 3.295 0 01-1.105-.714l-1.466 1.487a5.383 5.383 0 001.804 1.169l.767-1.942zm-1.481-.952l-7.848-2.856-.714 1.962 7.848 2.856.714-1.962z" fill="#575843" mask="url(#o)"/><path d="M57.568 64.716l-2.203-33.319 6.775 2.466 2.203 33.32-6.775-2.467zM70.17 32.249l-6.841-2.49c.104-.18.186-.371.244-.57l6.863 2.498c-.049.2-.138.39-.266.562z" fill="#565742" stroke="#575843" stroke-width="1.044" stroke-linejoin="round"/><mask id="p" fill="#fff"><path d="M48.882 69.152a4.57 4.57 0 01-.23-.084l.23.084a4.62 4.62 0 001.51.236l7.848 2.856a4.613 4.613 0 01-1.74-.32l-7.618-2.772z"/></mask><path d="M48.882 69.152a4.57 4.57 0 01-.23-.084l.23.084a4.62 4.62 0 001.51.236l7.848 2.856a4.613 4.613 0 01-1.74-.32l-7.618-2.772z" fill="#565742"/><path d="M48.652 69.068l.357-.98a1.044 1.044 0 00-.74 1.951l.383-.97zm1.74.32l.357-.98a1.044 1.044 0 00-.368-.064l.011 1.044zm7.848 2.856l.01 1.044a1.044 1.044 0 00.347-2.024l-.357.98zm-1.74-.32l.383-.97a1.03 1.03 0 00-.026-.01l-.357.98zm-8.231-1.885c.093.037.188.072.283.103l.66-1.98a3.515 3.515 0 01-.176-.065l-.767 1.942zm.283.103a5.666 5.666 0 001.851.29l-.022-2.088a3.58 3.58 0 01-1.168-.182l-.661 1.98zm1.483.227l7.848 2.856.714-1.961-7.848-2.857-.714 1.962zm8.194.832a3.567 3.567 0 01-1.346-.247l-.767 1.942c.677.267 1.404.4 2.135.392l-.022-2.087zm-1.372-.257l-7.618-2.773-.714 1.962 7.618 2.773.714-1.962zm-7.618-2.773l-.23-.084-.714 1.962.23.084.714-1.962z" fill="#575843" mask="url(#p)"/><mask id="q" fill="#fff"><path d="M52.713 69.389h-2.32l7.847 2.856h2.32l-7.847-2.856z"/></mask><path d="M52.713 69.389h-2.32l7.847 2.856h2.32l-7.847-2.856z" fill="#565742"/><path d="M50.393 69.389v-1.044a1.044 1.044 0 00-.358 2.025l.358-.981zm2.32 0l.357-.981a1.045 1.045 0 00-.357-.063v1.044zm7.847 2.856v1.044a1.044 1.044 0 00.357-2.025l-.357.981zm-2.32 0l-.357.98c.115.043.235.064.357.064v-1.044zm-7.847-1.812h2.32v-2.088h-2.32v2.088zm1.962-.063l7.848 2.856.714-1.962-7.847-2.856-.715 1.962zm8.205.831h-2.32v2.088h2.32V71.2zm-1.963.063l-7.847-2.856-.715 1.962 7.848 2.856.714-1.962z" fill="#575843" mask="url(#q)"/><path d="M60.65 71.723l-5.99-2.18c1.587-.632 2.732-2.019 2.914-3.712l6.827 2.485c-.061 1.85-1.633 3.365-3.752 3.407z" fill="#565742" stroke="#575843" stroke-width="1.044" stroke-linejoin="round"/><path d="M14.437.49C6.75.49.517 7.238.517 15.562c0 7.126 4.57 13.099 10.71 14.666L8.92 65.091a3.743 3.743 0 00.238 1.63c.2.523.514 1.002.924 1.406.41.404.905.724 1.455.941a4.6 4.6 0 001.74.32h2.32c2.551 0 4.51-1.933 4.356-4.297l-2.306-34.863c6.139-1.571 10.71-7.54 10.71-14.666C28.357 7.238 22.125.49 14.437.49zm46.785 0l-3.865 21.53h-2.9L52.522.49h-1.935l-1.934 21.53h-2.9L41.886.49h-1.934v27.99c0 .571.244 1.119.679 1.523.435.403 1.025.63 1.64.63h6.042l-2.279 34.458a3.743 3.743 0 00.239 1.63c.2.523.514 1.002.924 1.406.41.404.905.724 1.455.941a4.6 4.6 0 001.74.32h2.32c2.551 0 4.51-1.933 4.356-4.297L54.79 30.633h6.041c.616 0 1.206-.227 1.64-.63.436-.404.68-.952.68-1.523V.49h-1.935.005z" fill="#EBEBEA"/></svg>