<svg width="49" height="70" viewBox="0 0 49 70" fill="none" xmlns="http://www.w3.org/2000/svg"><path d="M32.749 7.363c.192.06.373.12.542.182 1.426.519 2.118 1.142 2.45 1.764.429.747.48 1.665.136 2.954l-.924 3.447-.108.401-.414-.032a13.023 13.023 0 00-4.384.399l2.702-9.115zm0 0l1.073-4.007c.27.081.53.168.785.26 2.187.796 3.79 2.003 4.719 3.613 1.1 1.907 1.086 4.13.557 6.107l-.924 3.447-.108.401.375.18c1.308.625 2.55 1.471 3.594 2.534l.004.003c3.373 3.367 4.625 8.289 3.39 12.894-1.37 5.118-.34 8.164.66 11.122v.002c.982 2.901 1.934 5.715.64 10.54-2.867 10.705-13.899 17.074-24.604 14.206-10.704-2.869-17.073-13.9-14.205-24.605 1.293-4.825 3.524-6.786 5.825-8.808l.001-.001c2.346-2.062 4.761-4.185 6.132-9.302 1.235-4.606 4.78-8.242 9.384-9.471l2.702-9.115z" fill="#575843" stroke="#575843"/><path d="M7.887 43.277l-6.576-2.393c1.309-4.507 3.473-6.409 5.702-8.367l.001-.002c2.264-1.99 4.593-4.036 5.985-8.777l6.576 2.394c-1.309 4.506-3.473 6.408-5.702 8.367l-.001.001c-2.264 1.99-4.593 4.037-5.985 8.777zm11.961-18.111l-6.576-2.394c1.322-4.347 4.723-7.764 9.107-8.99l6.003 2.185c-4.1 1.571-7.233 4.978-8.534 9.199zM31.797 7.052l-6.574-2.393L26.295.656 32.87 3.05l-1.072 4.003z" fill="#575843" stroke="#575843" stroke-linejoin="round"/><mask id="a" fill="#fff"><path d="M27.26.41A15.756 15.756 0 0025.953 0l7.518 2.736c.453.122.89.258 1.306.41L27.26.41z"/></mask><path d="M27.26.41A15.756 15.756 0 0025.953 0l7.518 2.736c.453.122.89.258 1.306.41L27.26.41z" fill="#575843"/><path d="M25.953 0l.259-.966a1 1 0 00-.6 1.906l.341-.94zm1.307.41l.342-.94-.342.94zm7.517 2.736l-.342.94a1 1 0 00.684-1.88l-.342.94zm-1.306-.41l-.342.94c.027.01.055.019.083.026l.259-.966zM25.694.966c.428.114.836.242 1.224.384l.684-1.88c-.447-.162-.91-.307-1.39-.436L25.694.966zm1.224.383l7.517 2.737.684-1.88L27.602-.53l-.684 1.88zm8.201.857c-.446-.162-.91-.307-1.39-.436l-.517 1.932c.427.115.835.243 1.223.384l.684-1.88zm-1.306-.41L26.295-.94 25.611.94l7.518 2.736.684-1.88z" fill="#575843" mask="url(#a)"/><mask id="b" fill="#fff"><path d="M24.621 4.973c.366.098.692.2.982.306l7.512 2.734a11.796 11.796 0 00-.976-.304L24.62 4.973z"/></mask><path d="M24.621 4.973c.366.098.692.2.982.306l7.512 2.734a11.796 11.796 0 00-.976-.304L24.62 4.973z" fill="#575843"/><path d="M32.945 8.483l.004.002.343-.94c-.002 0-.004 0-.006-.002l-.341.94zM25.603 5.28l-.342.94.342-.94zm-.982-.306l.259-.966a1 1 0 00-.6 1.905l.341-.94zm7.518 2.736l-.342.94c.027.01.055.018.083.026l.259-.966zm.976.304l-.341.94a1 1 0 00.684-1.88l-.343.94zm-7.17-3.674c-.32-.116-.674-.227-1.065-.332l-.518 1.932c.342.091.64.185.899.28l.684-1.88zM24.28 5.912l7.518 2.737.684-1.88-7.518-2.736-.684 1.88zm7.6 2.763c.34.09.636.184.895.278l.683-1.88a12.98 12.98 0 00-1.06-.33l-.517 1.932zm1.579-1.601l-7.513-2.735-.684 1.88 7.512 2.734.684-1.88z" fill="#575843" mask="url(#b)"/><path d="M7.625 44.246c-2.022 8.251 1.139 16.622 7.45 21.595C4.739 62.891-1.443 52.285 1.054 41.854l6.572 2.392z" fill="#575843" stroke="#575843" stroke-linejoin="round"/><mask id="c" fill="#fff"><path d="M25.602 5.277c1.363.497 1.931 1.06 2.184 1.537l7.518 2.736c-.253-.478-.822-1.04-2.184-1.537l-7.517-2.736z"/></mask><path d="M25.602 5.277c1.363.497 1.931 1.06 2.184 1.537l7.518 2.736c-.253-.478-.822-1.04-2.184-1.537l-7.517-2.736z" fill="#575843"/><path d="M27.786 6.814l-.884.468a1 1 0 00.542.472l.342-.94zm-2.184-1.537l.343-.94a1 1 0 00-.685 1.88l.342-.94zm7.518 2.737l.342-.94-.342.94zm2.184 1.536l-.342.94a1 1 0 001.226-1.408l-.884.468zM28.67 6.346c-.408-.772-1.225-1.462-2.725-2.008l-.685 1.879c1.225.446 1.545.881 1.642 1.065l1.768-.936zm-3.41-.129l7.518 2.736.684-1.88-7.517-2.735-.684 1.879zm7.518 2.736c1.224.446 1.545.881 1.642 1.065l1.768-.936c-.409-.772-1.225-1.462-2.726-2.008l-.684 1.88zm2.868-.343l-7.518-2.736-.684 1.88 7.518 2.736.684-1.88z" fill="#575843" mask="url(#c)"/><path d="M31.778 15.133c-.61.071-1.222.183-1.835.34l-5.682-2.069a13.02 13.02 0 012.585-.066l4.932 1.795zm2.828-11.517c1.557.566 2.817 1.34 3.75 2.32L32.58 3.834a7.843 7.843 0 00-1.021-1.327l3.047 1.11h0zm.426 7.853l-6.566-2.39c.114-.55.146-1.026.098-1.45l6.385 2.324c.152.343.214.803.083 1.516zm-.904 3.454l-6.574-2.393.664-2.477 6.574 2.393-.664 2.477z" fill="#575843" stroke="#575843" stroke-linejoin="round"/><path d="M40.011 12.803l-6.57-2.39c.379-1.668.42-3.533-.233-5.287l6.205 2.259c.92 1.7.981 3.636.598 5.418zm-.911 3.452l-6.574-2.392.664-2.478 6.575 2.393-.664 2.477zm1.334 1.761l-4.498-1.637c-.116-.116-.234-.23-.354-.34l3.666 1.334c.403.194.8.408 1.186.643zm5.911 14.248l-6.57-2.392c.979-4.17.083-8.547-2.47-11.93l5.596 2.036c3.187 3.235 4.44 7.871 3.444 12.286zM22.932 68.671l-2.918-1.062c9.36.26 18.05-5.788 20.802-15.101L47.39 54.9c-3.047 10.431-13.91 16.585-24.46 13.77zM47.65 53.93l-6.573-2.391c1.197-4.852.198-7.806-.773-10.678l-.001-.002c-.945-2.793-1.863-5.505-.775-10.01L46.1 33.24c-1.197 4.852-.198 7.806.774 10.678v.002c.945 2.793 1.863 5.505.776 10.01z" fill="#575843" stroke="#575843" stroke-linejoin="round"/><path d="M40.48 51.853C37.54 62.824 26.235 69.35 15.264 66.41 4.292 63.471-2.235 52.166.704 41.195c2.665-9.944 9.294-8.168 11.959-18.112 1.279-4.773 4.955-8.548 9.738-9.824a13.524 13.524 0 014.552-.415l.923-3.447c.329-1.227.25-1.994-.09-2.582-.306-.58-1.077-1.284-3.165-1.843L25.953 0c2.917.782 5.1 2.183 6.288 4.243 1.19 2.06 1.158 4.43.607 6.486l-.924 3.447c1.355.647 2.647 1.526 3.735 2.635 3.504 3.497 4.8 8.605 3.52 13.378-2.664 9.943 3.966 11.72 1.301 21.664z" fill="#EBEBEA"/></svg>