<svg width="71" height="73" viewBox="0 0 71 73" fill="none" xmlns="http://www.w3.org/2000/svg">
<path d="M19.6237 32.6873L19.5951 33.1202L17.289 67.9826L17.2886 67.9886C17.2516 68.4638 17.3211 68.9417 17.4938 69.3926C17.6665 69.8436 17.9392 70.2593 18.2972 70.6124C18.6552 70.9656 19.0906 71.2482 19.577 71.4403L19.3853 71.9257L19.577 71.4403C20.0634 71.6324 20.5889 71.7292 21.1197 71.7237L21.1251 71.7236L23.4451 71.7236C25.7357 71.7236 27.4118 70.0065 27.2812 67.9826L19.6237 32.6873ZM19.6237 32.6873L19.2034 32.58C13.3153 31.0766 8.88719 25.3279 8.88719 18.4191C8.88719 10.3438 14.9233 3.86961 22.2851 3.86961C23.7757 3.86961 25.2088 4.13376 26.5474 4.62128C31.8382 6.54812 35.683 11.9812 35.683 18.4191C35.683 25.3276 31.2551 31.0724 25.3665 32.5801L24.9465 32.6876L24.9751 33.1202L27.2811 67.9818L19.6237 32.6873ZM69.5063 3.86961H70.478V31.3374C70.478 31.7569 70.2988 32.1679 69.9654 32.4773C69.6307 32.7879 69.1689 32.9686 68.68 32.9686H62.6388H62.0812L62.1179 33.5249L64.3961 67.9818C64.5272 70.0061 62.8509 71.7236 60.5601 71.7236L58.2401 71.7236L58.2347 71.7237C57.7038 71.7292 57.1784 71.6324 56.692 71.4403C56.2056 71.2482 55.7702 70.9656 55.4122 70.6124C55.0542 70.2593 54.7814 69.8436 54.6087 69.3926C54.4361 68.9417 54.3666 68.4638 54.4036 67.9886L54.404 67.9825L56.6822 33.5249L56.719 32.9686H56.1614H50.1202C49.8882 32.9686 49.6614 32.9278 49.4512 32.8512C49.2198 32.7669 49.0098 32.6398 48.8348 32.4773C48.5014 32.1679 48.3222 31.7569 48.3222 31.3374V3.86961H49.2985L53.0864 24.9705L53.1635 25.4002H53.6001H56.5001H56.9773L57.02 24.925L58.9121 3.86961H59.8927L61.7848 24.925L61.8275 25.4002H62.3047H65.2047H65.6413L65.7184 24.9705L69.5063 3.86961Z" fill="#565742" stroke="#575843" stroke-width="1.04391"/>
<path d="M7.85928 17.6784L1.04363 15.1977C1.22102 7.32582 7.13664 1.06488 14.3463 1.01252L19.9032 3.03506C13.255 4.22353 8.17904 10.3045 7.85928 17.6784Z" fill="#565742" stroke="#575843" stroke-width="1.04391" stroke-linejoin="round"/>
<path d="M11.4051 29.7387C11.3889 29.7328 11.3724 29.7277 11.3557 29.7234C5.68258 28.2749 1.36477 22.8853 1.05709 16.3143L7.8472 18.7857C7.94563 23.383 9.8891 27.5001 12.9214 30.2906L11.4051 29.7387Z" fill="#565742" stroke="#575843" stroke-width="1.04391" stroke-linejoin="round"/>
<mask id="path-4-inside-1_1045_15292" fill="white">
<path d="M14.4375 0.490234C15.9904 0.490234 17.4838 0.765499 18.8785 1.27342L26.7214 4.128C25.3281 3.62119 23.8363 3.34655 22.2852 3.34655L14.4375 0.490234Z"/>
</mask>
<path d="M14.4375 0.490234C15.9904 0.490234 17.4838 0.765499 18.8785 1.27342L26.7214 4.128C25.3281 3.62119 23.8363 3.34655 22.2852 3.34655L14.4375 0.490234Z" fill="#565742"/>
<path d="M26.543 4.61853C26.5445 4.61909 26.546 4.61962 26.5474 4.62015L26.9048 3.63931C26.9031 3.63868 26.9014 3.63807 26.8998 3.63748L26.543 4.61853ZM18.8785 1.27342L18.5212 2.2543L18.5214 2.25437L18.8785 1.27342ZM14.4375 0.490234V-0.553678C13.9309 -0.553678 13.4974 -0.189947 13.4094 0.308961C13.3215 0.807868 13.6044 1.29792 14.0805 1.47119L14.4375 0.490234ZM22.2852 3.34655L21.9281 4.3275C22.0425 4.36915 22.1634 4.39046 22.2852 4.39046V3.34655ZM26.7214 4.128L26.3645 5.10903C26.9063 5.3061 27.5052 5.0267 27.7024 4.48495C27.8995 3.9432 27.6201 3.34422 27.0784 3.14705L26.7214 4.128ZM19.2357 0.292528C17.729 -0.256173 16.1148 -0.553678 14.4375 -0.553678V1.53415C15.8659 1.53415 17.2386 1.78717 18.5212 2.2543L19.2357 0.292528ZM14.0805 1.47119L21.9281 4.3275L22.6422 2.36559L14.7945 -0.490722L14.0805 1.47119ZM22.2852 4.39046C23.7119 4.39046 25.0831 4.64291 26.3645 5.10903L27.0782 3.14698C25.573 2.59947 23.9606 2.30263 22.2852 2.30263V4.39046ZM27.0784 3.14705L19.2355 0.29246L18.5214 2.25437L26.3643 5.10896L27.0784 3.14705Z" fill="#575843" mask="url(#path-4-inside-1_1045_15292)"/>
<path d="M35.666 17.6662L28.8758 15.1948C28.7761 10.535 26.7812 6.36769 23.6773 3.57535L26.5479 4.62019C26.548 4.6202 26.548 4.62022 26.548 4.62023C31.6315 6.47162 35.3801 11.5598 35.666 17.6662Z" fill="#565742" stroke="#575843" stroke-width="1.04391" stroke-linejoin="round"/>
<path d="M16.2936 67.2189L9.46758 64.7344L11.7019 30.9568L18.5279 33.4413L16.2936 67.2189Z" fill="#565742" stroke="#575843" stroke-width="1.04391" stroke-linejoin="round"/>
<path d="M25.5212 32.5392L19.2639 30.2617C24.6781 28.1891 28.5843 22.7443 28.8634 16.3021L35.679 18.7828C35.5281 25.4682 31.2293 30.9991 25.5212 32.5392Z" fill="#565742" stroke="#575843" stroke-width="1.04391" stroke-linejoin="round"/>
<path d="M16.2666 68.7546L9.57094 66.3176C9.52375 66.1624 9.48842 66.0046 9.46508 65.8455L16.2355 68.3097C16.2381 68.4586 16.2484 68.607 16.2666 68.7546Z" fill="#565742" stroke="#575843" stroke-width="1.04391" stroke-linejoin="round"/>
<mask id="path-10-inside-2_1045_15292" fill="white">
<path d="M10.0825 68.1275C9.67303 67.7236 9.35829 67.2452 9.1582 66.7227L17.0059 69.579C17.2059 70.1015 17.5207 70.5799 17.9302 70.9838L10.0825 68.1275Z"/>
</mask>
<path d="M10.0825 68.1275C9.67303 67.7236 9.35829 67.2452 9.1582 66.7227L17.0059 69.579C17.2059 70.1015 17.5207 70.5799 17.9302 70.9838L10.0825 68.1275Z" fill="#565742"/>
<path d="M9.1582 66.7227L9.51524 65.7417C9.13106 65.6019 8.70062 65.6992 8.41394 65.9907C8.12726 66.2821 8.03712 66.7141 8.18331 67.0959L9.1582 66.7227ZM10.0825 68.1275L9.34944 68.8707C9.45624 68.976 9.5845 69.0571 9.72547 69.1084L10.0825 68.1275ZM17.9302 70.9838L17.5731 71.9647C18.0343 72.1326 18.5502 71.9565 18.8125 71.5417C19.0748 71.1268 19.0127 70.5853 18.6632 70.2406L17.9302 70.9838ZM17.0059 69.579L17.9807 69.2057C17.8726 68.9232 17.6472 68.7015 17.3629 68.598L17.0059 69.579ZM8.18331 67.0959C8.43819 67.7616 8.83691 68.3651 9.34944 68.8707L10.8156 67.3843C10.5091 67.082 10.2784 66.7289 10.1331 66.3494L8.18331 67.0959ZM9.72547 69.1084L17.5731 71.9647L18.2872 70.0028L10.4395 67.1465L9.72547 69.1084ZM18.6632 70.2406C18.3568 69.9383 18.126 69.5852 17.9807 69.2057L16.031 69.9522C16.2858 70.6179 16.6846 71.2215 17.1971 71.727L18.6632 70.2406ZM17.3629 68.598L9.51524 65.7417L8.80116 67.7036L16.6488 70.5599L17.3629 68.598Z" fill="#575843" mask="url(#path-10-inside-2_1045_15292)"/>
<mask id="path-12-inside-3_1045_15292" fill="white">
<path d="M11.5377 69.0687C10.9878 68.8515 10.4925 68.5309 10.083 68.127L17.9307 70.9833C18.3401 71.3872 18.8355 71.7078 19.3853 71.925L11.5377 69.0687Z"/>
</mask>
<path d="M11.5377 69.0687C10.9878 68.8515 10.4925 68.5309 10.083 68.127L17.9307 70.9833C18.3401 71.3872 18.8355 71.7078 19.3853 71.925L11.5377 69.0687Z" fill="#565742"/>
<path d="M10.083 68.127L10.44 67.146C9.97883 66.9781 9.46296 67.1542 9.20066 67.5691C8.93837 67.9839 9.0005 68.5255 9.34993 68.8702L10.083 68.127ZM11.5377 69.0687L11.1542 70.0396C11.163 70.0431 11.1718 70.0464 11.1806 70.0496L11.5377 69.0687ZM19.3853 71.925L19.0283 72.9059C19.5649 73.1012 20.1588 72.8292 20.3614 72.2953C20.5639 71.7614 20.2999 71.1638 19.7688 70.954L19.3853 71.925ZM17.9307 70.9833L18.6637 70.2401C18.5569 70.1347 18.4287 70.0536 18.2877 70.0023L17.9307 70.9833ZM9.34993 68.8702C9.86226 69.3755 10.4774 69.7723 11.1542 70.0396L11.9211 68.0977C11.4982 67.9307 11.1227 67.6862 10.8161 67.3837L9.34993 68.8702ZM11.1806 70.0496L19.0283 72.9059L19.7424 70.944L11.8947 68.0877L11.1806 70.0496ZM19.7688 70.954C19.3459 70.787 18.9704 70.5425 18.6637 70.2401L17.1976 71.7265C17.7099 72.2318 18.3251 72.6286 19.0019 72.8959L19.7688 70.954ZM18.2877 70.0023L10.44 67.146L9.72597 69.1079L17.5736 71.9642L18.2877 70.0023Z" fill="#575843" mask="url(#path-12-inside-3_1045_15292)"/>
<path d="M20.4528 64.7168L18.2221 30.9928L24.9977 33.4589L27.2285 67.1829L20.4528 64.7168Z" fill="#565742" stroke="#575843" stroke-width="1.04391" stroke-linejoin="round"/>
<mask id="path-15-inside-4_1045_15292" fill="white">
<path d="M11.7679 69.152C11.6906 69.1262 11.6139 69.0983 11.5381 69.0684L11.7679 69.152C12.2514 69.3134 12.7628 69.3936 13.2779 69.3882L21.1255 72.2445C20.528 72.2507 19.9356 72.1418 19.3857 71.9247L11.7679 69.152Z"/>
</mask>
<path d="M11.7679 69.152C11.6906 69.1262 11.6139 69.0983 11.5381 69.0684L11.7679 69.152C12.2514 69.3134 12.7628 69.3936 13.2779 69.3882L21.1255 72.2445C20.528 72.2507 19.9356 72.1418 19.3857 71.9247L11.7679 69.152Z" fill="#565742"/>
<path d="M11.5381 69.0684L11.8951 68.0874C11.3585 67.8921 10.7646 68.1642 10.562 68.6981C10.3595 69.232 10.6235 69.8295 11.1546 70.0393L11.5381 69.0684ZM13.2779 69.3882L13.6349 68.4073C13.5171 68.3644 13.3925 68.3431 13.2671 68.3444L13.2779 69.3882ZM21.1255 72.2445L21.1364 73.2884C21.6409 73.2831 22.0695 72.9178 22.1545 72.4205C22.2396 71.9231 21.9567 71.4361 21.4826 71.2636L21.1255 72.2445ZM19.3857 71.9247L19.7692 70.9537C19.7604 70.9503 19.7516 70.9469 19.7428 70.9437L19.3857 71.9247ZM11.1546 70.0393C11.248 70.0762 11.3423 70.1105 11.4375 70.1422L12.0983 68.1618C12.0388 68.1419 11.9798 68.1204 11.9215 68.0974L11.1546 70.0393ZM11.4375 70.1422C12.0317 70.3406 12.6585 70.4386 13.2887 70.4321L13.2671 68.3444C12.8671 68.3485 12.4711 68.2862 12.0983 68.1618L11.4375 70.1422ZM12.9209 70.3692L20.7685 73.2255L21.4826 71.2636L13.6349 68.4073L12.9209 70.3692ZM21.1147 71.2007C20.6506 71.2055 20.1922 71.1208 19.7692 70.9537L19.0023 72.8956C19.679 73.1629 20.4054 73.296 21.1364 73.2884L21.1147 71.2007ZM19.7428 70.9437L12.1249 68.171L11.4109 70.133L19.0287 72.9056L19.7428 70.9437ZM12.1249 68.171L11.8951 68.0874L11.181 70.0493L11.4109 70.133L12.1249 68.171Z" fill="#575843" mask="url(#path-15-inside-4_1045_15292)"/>
<mask id="path-17-inside-5_1045_15292" fill="white">
<path d="M15.5973 69.3887H13.2773L21.125 72.245H23.445L15.5973 69.3887Z"/>
</mask>
<path d="M15.5973 69.3887H13.2773L21.125 72.245H23.445L15.5973 69.3887Z" fill="#565742"/>
<path d="M13.2773 69.3887V68.3448C12.7707 68.3448 12.3373 68.7085 12.2493 69.2074C12.1613 69.7063 12.4443 70.1964 12.9203 70.3696L13.2773 69.3887ZM15.5973 69.3887L15.9544 68.4077C15.8399 68.3661 15.7191 68.3448 15.5973 68.3448V69.3887ZM23.445 72.245V73.2889C23.9516 73.2889 24.3851 72.9252 24.473 72.4263C24.561 71.9273 24.2781 71.4373 23.802 71.264L23.445 72.245ZM21.125 72.245L20.768 73.2259C20.8824 73.2676 21.0032 73.2889 21.125 73.2889V72.245ZM13.2773 70.4326H15.5973V68.3448H13.2773V70.4326ZM15.2403 70.3696L23.0879 73.2259L23.802 71.264L15.9544 68.4077L15.2403 70.3696ZM23.445 71.2011H21.125V73.2889H23.445V71.2011ZM21.482 71.264L13.6344 68.4077L12.9203 70.3696L20.768 73.2259L21.482 71.264Z" fill="#575843" mask="url(#path-17-inside-5_1045_15292)"/>
<mask id="path-19-inside-6_1045_15292" fill="white">
<path d="M39.9531 0.490234H41.888L49.7356 3.34655H47.8008L39.9531 0.490234Z"/>
</mask>
<path d="M39.9531 0.490234H41.888L49.7356 3.34655H47.8008L39.9531 0.490234Z" fill="#565742"/>
<path d="M41.888 0.490234L42.245 -0.490722C42.1306 -0.532371 42.0098 -0.553678 41.888 -0.553678V0.490234ZM39.9531 0.490234V-0.553678C39.4465 -0.553678 39.013 -0.189947 38.9251 0.308961C38.8371 0.807868 39.12 1.29792 39.5961 1.47119L39.9531 0.490234ZM47.8008 3.34655L47.4437 4.3275C47.5582 4.36915 47.679 4.39046 47.8008 4.39046V3.34655ZM49.7356 3.34655V4.39046C50.2422 4.39046 50.6757 4.02673 50.7637 3.52782C50.8517 3.02891 50.5687 2.53886 50.0927 2.36559L49.7356 3.34655ZM41.888 -0.553678H39.9531V1.53415H41.888V-0.553678ZM39.5961 1.47119L47.4437 4.3275L48.1578 2.36559L40.3102 -0.490722L39.5961 1.47119ZM47.8008 4.39046H49.7356V2.30263H47.8008V4.39046ZM50.0927 2.36559L42.245 -0.490722L41.5309 1.47119L49.3786 4.3275L50.0927 2.36559Z" fill="#575843" mask="url(#path-19-inside-6_1045_15292)"/>
<path d="M23.5349 71.7228L17.5464 69.5431C19.1329 68.9114 20.2772 67.524 20.4596 65.8311L27.2867 68.3159C27.2253 70.1655 25.6535 71.6811 23.5349 71.7228Z" fill="#565742" stroke="#575843" stroke-width="1.04391" stroke-linejoin="round"/>
<path d="M47.2788 30.5909L40.4751 28.1145V1.23566L47.2788 3.71202V30.5909Z" fill="#565742" stroke="#575843" stroke-width="1.04391" stroke-linejoin="round"/>
<path d="M46.2135 21.6331L42.5617 1.29102L49.2747 3.73432L52.9264 24.0764L46.2135 21.6331Z" fill="#565742" stroke="#575843" stroke-width="1.04391" stroke-linejoin="round"/>
<path d="M47.3399 31.8887L40.9172 29.551C40.8473 29.4782 40.7853 29.4006 40.7314 29.3192L47.3069 31.7125C47.3158 31.7717 47.3268 31.8305 47.3399 31.8887Z" fill="#565742" stroke="#575843" stroke-width="1.04391" stroke-linejoin="round"/>
<mask id="path-25-inside-7_1045_15292" fill="white">
<path d="M50.5879 0.490234H52.5228L60.3704 3.34655H58.4355L50.5879 0.490234Z"/>
</mask>
<path d="M50.5879 0.490234H52.5228L60.3704 3.34655H58.4355L50.5879 0.490234Z" fill="#565742"/>
<path d="M52.5228 0.490234L52.8798 -0.490722C52.7654 -0.532371 52.6445 -0.553678 52.5228 -0.553678V0.490234ZM50.5879 0.490234V-0.553678C50.0813 -0.553678 49.6478 -0.189947 49.5598 0.308961C49.4719 0.807868 49.7548 1.29792 50.2309 1.47119L50.5879 0.490234ZM58.4355 3.34655L58.0785 4.3275C58.1929 4.36915 58.3138 4.39046 58.4355 4.39046V3.34655ZM60.3704 3.34655V4.39046C60.877 4.39046 61.3105 4.02673 61.3985 3.52782C61.4864 3.02891 61.2035 2.53886 60.7274 2.36559L60.3704 3.34655ZM52.5228 -0.553678H50.5879V1.53415H52.5228V-0.553678ZM50.2309 1.47119L58.0785 4.3275L58.7926 2.36559L50.9449 -0.490722L50.2309 1.47119ZM58.4355 4.39046H60.3704V2.30263H58.4355V4.39046ZM60.7274 2.36559L52.8798 -0.490722L52.1657 1.47119L60.0134 4.3275L60.7274 2.36559Z" fill="#575843" mask="url(#path-25-inside-7_1045_15292)"/>
<mask id="path-27-inside-8_1045_15292" fill="white">
<path d="M41.4247 30.4857C41.1303 30.3784 40.8598 30.2155 40.6318 30.0039L48.4795 32.8602C48.7074 33.0718 48.9779 33.2347 49.2723 33.342L41.4247 30.4857Z"/>
</mask>
<path d="M41.4247 30.4857C41.1303 30.3784 40.8598 30.2155 40.6318 30.0039L48.4795 32.8602C48.7074 33.0718 48.9779 33.2347 49.2723 33.342L41.4247 30.4857Z" fill="#565742"/>
<path d="M40.6318 30.0039L40.9889 29.0229C40.5221 28.853 40.0002 29.0356 39.7411 29.4595C39.482 29.8834 39.5576 30.4311 39.9217 30.7691L40.6318 30.0039ZM41.4247 30.4857L41.0674 31.4665L41.0676 31.4666L41.4247 30.4857ZM49.2723 33.342L48.9153 34.3229C49.457 34.5201 50.056 34.2408 50.2532 33.6991C50.4505 33.1575 50.1713 32.5584 49.6296 32.3611L49.2723 33.342ZM48.4795 32.8602L49.1896 32.095C49.0875 32.0003 48.9674 31.9269 48.8365 31.8793L48.4795 32.8602ZM39.9217 30.7691C40.2555 31.0788 40.6471 31.3134 41.0674 31.4665L41.782 29.5048C41.6135 29.4434 41.4641 29.3521 41.342 29.2387L39.9217 30.7691ZM41.0676 31.4666L48.9153 34.3229L49.6294 32.361L41.7817 29.5047L41.0676 31.4666ZM49.6296 32.3611C49.4611 32.2997 49.3117 32.2084 49.1896 32.095L47.7694 33.6254C48.1031 33.9351 48.4947 34.1697 48.915 34.3228L49.6296 32.3611ZM48.8365 31.8793L40.9889 29.0229L40.2748 30.9849L48.1224 33.8412L48.8365 31.8793Z" fill="#575843" mask="url(#path-27-inside-8_1045_15292)"/>
<mask id="path-29-inside-9_1045_15292" fill="white">
<path d="M42.2724 30.6332C41.98 30.6332 41.6932 30.582 41.426 30.4848L49.2725 33.3407C49.54 33.4381 49.8272 33.4895 50.1201 33.4895L42.2724 30.6332Z"/>
</mask>
<path d="M42.2724 30.6332C41.98 30.6332 41.6932 30.582 41.426 30.4848L49.2725 33.3407C49.54 33.4381 49.8272 33.4895 50.1201 33.4895L42.2724 30.6332Z" fill="#565742"/>
<path d="M41.2462 30.9748C41.2466 30.975 41.2471 30.9752 41.2476 30.9753L41.6044 29.9943C41.6041 29.9942 41.6038 29.9941 41.6035 29.9939L41.2462 30.9748ZM41.426 30.4848L41.7828 29.5038C41.241 29.3067 40.6421 29.5862 40.445 30.1279C40.2479 30.6696 40.5273 31.2686 41.069 31.4658L41.426 30.4848ZM42.2724 30.6332L42.6295 29.6523C42.515 29.6106 42.3942 29.5893 42.2724 29.5893V30.6332ZM50.1201 33.4895V34.5335C50.6267 34.5335 51.0602 34.1697 51.1481 33.6708C51.2361 33.1719 50.9532 32.6819 50.4771 32.5086L50.1201 33.4895ZM49.2725 33.3407L49.6298 32.3598L49.6295 32.3597L49.2725 33.3407ZM41.0692 31.4659C41.4507 31.6046 41.8583 31.6771 42.2724 31.6771V29.5893C42.1016 29.5893 41.9356 29.5593 41.7828 29.5038L41.0692 31.4659ZM41.9154 31.6142L49.7631 34.4705L50.4771 32.5086L42.6295 29.6523L41.9154 31.6142ZM50.1201 32.4456C49.949 32.4456 49.7828 32.4156 49.6298 32.3598L48.9152 34.3215C49.2972 34.4607 49.7053 34.5335 50.1201 34.5335V32.4456ZM49.6295 32.3597L41.783 29.5039L41.069 31.4658L48.9154 34.3216L49.6295 32.3597Z" fill="#575843" mask="url(#path-29-inside-9_1045_15292)"/>
<path d="M56.0409 24.1546L49.2081 21.6677L51.0463 1.2128L57.8791 3.69971L56.0409 24.1546Z" fill="#565742" stroke="#575843" stroke-width="1.04391" stroke-linejoin="round"/>
<mask id="path-32-inside-10_1045_15292" fill="white">
<path d="M45.752 22.0215H48.6519L56.4996 24.8778H53.5996L45.752 22.0215Z"/>
</mask>
<path d="M45.752 22.0215H48.6519L56.4996 24.8778H53.5996L45.752 22.0215Z" fill="#565742"/>
<path d="M48.6519 22.0215L49.009 21.0405C48.8945 20.9989 48.7737 20.9776 48.6519 20.9776V22.0215ZM45.752 22.0215V20.9776C45.2453 20.9776 44.8119 21.3413 44.7239 21.8402C44.6359 22.3391 44.9189 22.8292 45.3949 23.0024L45.752 22.0215ZM53.5996 24.8778L53.2426 25.8588C53.357 25.9004 53.4778 25.9217 53.5996 25.9217V24.8778ZM56.4996 24.8778V25.9217C57.0062 25.9217 57.4397 25.558 57.5276 25.0591C57.6156 24.5602 57.3327 24.0701 56.8566 23.8968L56.4996 24.8778ZM48.6519 20.9776H45.752V23.0654H48.6519V20.9776ZM45.3949 23.0024L53.2426 25.8588L53.9566 23.8968L46.109 21.0405L45.3949 23.0024ZM53.5996 25.9217H56.4996V23.8339H53.5996V25.9217ZM56.8566 23.8968L49.009 21.0405L48.2949 23.0024L56.1425 25.8588L56.8566 23.8968Z" fill="#575843" mask="url(#path-32-inside-10_1045_15292)"/>
<path d="M53.2012 32.9672H50.2121L45.2326 31.1548H48.2216L53.2012 32.9672Z" fill="#565742" stroke="#575843" stroke-width="1.04391" stroke-linejoin="round"/>
<path d="M54.9475 21.6438L53.1158 1.26166L59.8799 3.72359L61.7116 24.1057L54.9475 21.6438Z" fill="#565742" stroke="#575843" stroke-width="1.04391" stroke-linejoin="round"/>
<mask id="path-36-inside-11_1045_15292" fill="white">
<path d="M61.2224 0.490234H61.2178L69.0654 3.34655H69.0701L61.2224 0.490234Z"/>
</mask>
<path d="M61.2224 0.490234H61.2178L69.0654 3.34655H69.0701L61.2224 0.490234Z" fill="#565742"/>
<path d="M61.2178 0.490234V-0.553678C60.7112 -0.553678 60.2777 -0.189947 60.1897 0.308961C60.1017 0.807868 60.3847 1.29792 60.8607 1.47119L61.2178 0.490234ZM61.2224 0.490234L61.5795 -0.490722C61.465 -0.532371 61.3442 -0.553678 61.2224 -0.553678V0.490234ZM69.0701 3.34655V4.39046C69.5767 4.39046 70.0102 4.02673 70.0981 3.52782C70.1861 3.02891 69.9032 2.53886 69.4271 2.36559L69.0701 3.34655ZM69.0654 3.34655L68.7084 4.3275C68.8228 4.36915 68.9437 4.39046 69.0654 4.39046V3.34655ZM61.2178 1.53415H61.2224V-0.553678H61.2178V1.53415ZM60.8654 1.47119L68.713 4.3275L69.4271 2.36559L61.5795 -0.490722L60.8654 1.47119ZM69.0701 2.30263H69.0654V4.39046H69.0701V2.30263ZM69.4225 2.36559L61.5748 -0.490722L60.8607 1.47119L68.7084 4.3275L69.4225 2.36559Z" fill="#575843" mask="url(#path-36-inside-11_1045_15292)"/>
<mask id="path-38-inside-12_1045_15292" fill="white">
<path d="M61.2178 0.490234H63.1526L71.0003 3.34655H69.0654L61.2178 0.490234Z"/>
</mask>
<path d="M61.2178 0.490234H63.1526L71.0003 3.34655H69.0654L61.2178 0.490234Z" fill="#565742"/>
<path d="M63.1526 0.490234L63.5097 -0.490722C63.3952 -0.532371 63.2744 -0.553678 63.1526 -0.553678V0.490234ZM61.2178 0.490234V-0.553678C60.7112 -0.553678 60.2777 -0.189947 60.1897 0.308961C60.1017 0.807868 60.3847 1.29792 60.8607 1.47119L61.2178 0.490234ZM69.0654 3.34655L68.7084 4.3275C68.8228 4.36915 68.9437 4.39046 69.0654 4.39046V3.34655ZM71.0003 3.34655V4.39046C71.5069 4.39046 71.9404 4.02673 72.0283 3.52782C72.1163 3.02891 71.8334 2.53886 71.3573 2.36559L71.0003 3.34655ZM63.1526 -0.553678H61.2178V1.53415H63.1526V-0.553678ZM60.8607 1.47119L68.7084 4.3275L69.4225 2.36559L61.5748 -0.490722L60.8607 1.47119ZM69.0654 4.39046H71.0003V2.30263H69.0654V4.39046ZM71.3573 2.36559L63.5097 -0.490722L62.7956 1.47119L70.6432 4.3275L71.3573 2.36559Z" fill="#575843" mask="url(#path-38-inside-12_1045_15292)"/>
<path d="M64.7999 24.1746L57.9478 21.6806L61.6257 1.1928L68.4778 3.68676L64.7999 24.1746Z" fill="#565742" stroke="#575843" stroke-width="1.04391" stroke-linejoin="round"/>
<mask id="path-41-inside-13_1045_15292" fill="white">
<path d="M54.457 22.0215H57.357L65.2047 24.8778H62.3047L54.457 22.0215Z"/>
</mask>
<path d="M54.457 22.0215H57.357L65.2047 24.8778H62.3047L54.457 22.0215Z" fill="#565742"/>
<path d="M57.357 22.0215L57.714 21.0405C57.5996 20.9989 57.4788 20.9776 57.357 20.9776V22.0215ZM54.457 22.0215V20.9776C53.9504 20.9776 53.5169 21.3413 53.429 21.8402C53.341 22.3391 53.6239 22.8292 54.1 23.0024L54.457 22.0215ZM62.3047 24.8778L61.9476 25.8588C62.0621 25.9004 62.1829 25.9217 62.3047 25.9217V24.8778ZM65.2047 24.8778V25.9217C65.7113 25.9217 66.1447 25.558 66.2327 25.0591C66.3207 24.5602 66.0377 24.0701 65.5617 23.8968L65.2047 24.8778ZM57.357 20.9776H54.457V23.0654H57.357V20.9776ZM54.1 23.0024L61.9476 25.8588L62.6617 23.8968L54.8141 21.0405L54.1 23.0024ZM62.3047 25.9217H65.2047V23.8339H62.3047V25.9217ZM65.5617 23.8968L57.714 21.0405L57 23.0024L64.8476 25.8588L65.5617 23.8968Z" fill="#575843" mask="url(#path-41-inside-13_1045_15292)"/>
<path d="M53.4088 67.2184L46.5828 64.7339L48.7893 31.3611L55.6153 33.8456L53.4088 67.2184Z" fill="#565742" stroke="#575843" stroke-width="1.04391" stroke-linejoin="round"/>
<path d="M70.478 30.5909L63.6743 28.1145V1.23566L70.478 3.71202V30.5909Z" fill="#565742" stroke="#575843" stroke-width="1.04391" stroke-linejoin="round"/>
<path d="M65.7197 32.9672H62.7307L57.7512 31.1548H60.7402L65.7197 32.9672Z" fill="#565742" stroke="#575843" stroke-width="1.04391" stroke-linejoin="round"/>
<path d="M53.3818 68.7546L46.6862 66.3176C46.639 66.1624 46.6036 66.0046 46.5803 65.8455L53.3507 68.3097C53.3533 68.4586 53.3637 68.607 53.3818 68.7546Z" fill="#565742" stroke="#575843" stroke-width="1.04391" stroke-linejoin="round"/>
<mask id="path-47-inside-14_1045_15292" fill="white">
<path d="M47.1977 68.1275C46.7883 67.7236 46.4735 67.2452 46.2734 66.7227L54.1211 69.579C54.3212 70.1015 54.6359 70.5799 55.0454 70.9838L47.1977 68.1275Z"/>
</mask>
<path d="M47.1977 68.1275C46.7883 67.7236 46.4735 67.2452 46.2734 66.7227L54.1211 69.579C54.3212 70.1015 54.6359 70.5799 55.0454 70.9838L47.1977 68.1275Z" fill="#565742"/>
<path d="M46.2734 66.7227L46.6305 65.7417C46.2463 65.6019 45.8159 65.6992 45.5292 65.9907C45.2425 66.2821 45.1524 66.7141 45.2985 67.0959L46.2734 66.7227ZM47.1977 68.1275L46.4647 68.8707C46.5715 68.976 46.6997 69.0571 46.8407 69.1084L47.1977 68.1275ZM55.0454 70.9838L54.6884 71.9647C55.1496 72.1326 55.6655 71.9565 55.9277 71.5417C56.19 71.1268 56.1279 70.5853 55.7785 70.2406L55.0454 70.9838ZM54.1211 69.579L55.096 69.2057C54.9878 68.9232 54.7624 68.7015 54.4781 68.598L54.1211 69.579ZM45.2985 67.0959C45.5534 67.7616 45.9521 68.3651 46.4647 68.8707L47.9308 67.3843C47.6244 67.082 47.3936 66.7288 47.2483 66.3494L45.2985 67.0959ZM46.8407 69.1084L54.6884 71.9647L55.4024 70.0028L47.5548 67.1465L46.8407 69.1084ZM55.7785 70.2406C55.472 69.9383 55.2413 69.5852 55.096 69.2057L53.1462 69.9522C53.4011 70.6179 53.7998 71.2215 54.3123 71.727L55.7785 70.2406ZM54.4781 68.598L46.6305 65.7417L45.9164 67.7036L53.7641 70.5599L54.4781 68.598Z" fill="#575843" mask="url(#path-47-inside-14_1045_15292)"/>
<path d="M69.0143 32.9404C68.933 32.9543 68.8502 32.9633 68.7665 32.967L62.4628 30.6726C62.5002 30.648 62.537 30.6224 62.5732 30.596L69.0143 32.9404Z" fill="#565742" stroke="#575843" stroke-width="1.04391" stroke-linejoin="round"/>
<mask id="path-50-inside-15_1045_15292" fill="white">
<path d="M48.6529 69.0687C48.1031 68.8515 47.6077 68.5309 47.1982 68.127L55.0459 70.9833C55.4554 71.3872 55.9507 71.7078 56.5006 71.925L48.6529 69.0687Z"/>
</mask>
<path d="M48.6529 69.0687C48.1031 68.8515 47.6077 68.5309 47.1982 68.127L55.0459 70.9833C55.4554 71.3872 55.9507 71.7078 56.5006 71.925L48.6529 69.0687Z" fill="#565742"/>
<path d="M47.1982 68.127L47.5553 67.146C47.0941 66.9781 46.5782 67.1542 46.3159 67.5691C46.0536 67.9839 46.1157 68.5255 46.4652 68.8702L47.1982 68.127ZM48.6529 69.0687L48.2695 70.0396C48.2782 70.0431 48.287 70.0464 48.2959 70.0496L48.6529 69.0687ZM56.5006 71.925L56.1435 72.9059C56.6801 73.1012 57.2741 72.8292 57.4766 72.2953C57.6791 71.7614 57.4151 71.1638 56.884 70.954L56.5006 71.925ZM55.0459 70.9833L55.779 70.2401C55.6722 70.1347 55.5439 70.0536 55.4029 70.0023L55.0459 70.9833ZM46.4652 68.8702C46.9775 69.3755 47.5927 69.7723 48.2695 70.0396L49.0364 68.0977C48.6135 67.9307 48.238 67.6862 47.9313 67.3837L46.4652 68.8702ZM48.2959 70.0496L56.1435 72.9059L56.8576 70.944L49.01 68.0877L48.2959 70.0496ZM56.884 70.954C56.4611 70.787 56.0856 70.5425 55.779 70.2401L54.3128 71.7265C54.8251 72.2318 55.4403 72.6286 56.1171 72.8959L56.884 70.954ZM55.4029 70.0023L47.5553 67.146L46.8412 69.1079L54.6889 71.9642L55.4029 70.0023Z" fill="#575843" mask="url(#path-50-inside-15_1045_15292)"/>
<path d="M57.5676 64.7163L55.3646 31.397L62.1403 33.8632L64.3433 67.1825L57.5676 64.7163Z" fill="#565742" stroke="#575843" stroke-width="1.04391" stroke-linejoin="round"/>
<path d="M70.1699 32.249L63.3287 29.759C63.4327 29.579 63.5148 29.3877 63.5727 29.189L70.4358 31.687C70.3874 31.8863 70.2978 32.0772 70.1699 32.249Z" fill="#565742" stroke="#575843" stroke-width="1.04391" stroke-linejoin="round"/>
<mask id="path-54-inside-16_1045_15292" fill="white">
<path d="M48.8822 69.152C48.8048 69.1262 48.7282 69.0983 48.6523 69.0684L48.8822 69.152C49.3657 69.3134 49.877 69.3936 50.3922 69.3882L58.2398 72.2445C57.6423 72.2507 57.0499 72.1418 56.5 71.9247L48.8822 69.152Z"/>
</mask>
<path d="M48.8822 69.152C48.8048 69.1262 48.7282 69.0983 48.6523 69.0684L48.8822 69.152C49.3657 69.3134 49.877 69.3936 50.3922 69.3882L58.2398 72.2445C57.6423 72.2507 57.0499 72.1418 56.5 71.9247L48.8822 69.152Z" fill="#565742"/>
<path d="M48.6523 69.0684L49.0094 68.0874C48.4728 67.8921 47.8789 68.1642 47.6763 68.6981C47.4738 69.232 47.7378 69.8295 48.2689 70.0393L48.6523 69.0684ZM50.3922 69.3882L50.7492 68.4073C50.6313 68.3644 50.5067 68.3431 50.3813 68.3444L50.3922 69.3882ZM58.2398 72.2445L58.2506 73.2884C58.7552 73.2831 59.1837 72.9178 59.2688 72.4205C59.3538 71.9231 59.071 71.4361 58.5968 71.2636L58.2398 72.2445ZM56.5 71.9247L56.8834 70.9537C56.8747 70.9503 56.8659 70.9469 56.857 70.9437L56.5 71.9247ZM48.2689 70.0393C48.3623 70.0762 48.4566 70.1105 48.5517 70.1422L49.2126 68.1618C49.153 68.1419 49.0941 68.1204 49.0358 68.0974L48.2689 70.0393ZM48.5517 70.1422C49.146 70.3406 49.7727 70.4386 50.403 70.4321L50.3813 68.3444C49.9813 68.3485 49.5854 68.2862 49.2126 68.1618L48.5517 70.1422ZM50.0351 70.3692L57.8828 73.2255L58.5968 71.2636L50.7492 68.4073L50.0351 70.3692ZM58.229 71.2007C57.7648 71.2055 57.3064 71.1208 56.8834 70.9537L56.1165 72.8956C56.7933 73.1629 57.5197 73.296 58.2506 73.2884L58.229 71.2007ZM56.857 70.9437L49.2392 68.171L48.5251 70.133L56.143 72.9056L56.857 70.9437ZM49.2392 68.171L49.0094 68.0874L48.2953 70.0493L48.5251 70.133L49.2392 68.171Z" fill="#575843" mask="url(#path-54-inside-16_1045_15292)"/>
<mask id="path-56-inside-17_1045_15292" fill="white">
<path d="M52.7126 69.3887H50.3926L58.2402 72.245H60.5602L52.7126 69.3887Z"/>
</mask>
<path d="M52.7126 69.3887H50.3926L58.2402 72.245H60.5602L52.7126 69.3887Z" fill="#565742"/>
<path d="M50.3926 69.3887V68.3448C49.886 68.3448 49.4525 68.7085 49.3645 69.2074C49.2766 69.7063 49.5595 70.1964 50.0355 70.3696L50.3926 69.3887ZM52.7126 69.3887L53.0696 68.4077C52.9552 68.3661 52.8343 68.3448 52.7126 68.3448V69.3887ZM60.5602 72.245V73.2889C61.0668 73.2889 61.5003 72.9252 61.5883 72.4263C61.6762 71.9273 61.3933 71.4373 60.9172 71.264L60.5602 72.245ZM58.2402 72.245L57.8832 73.2259C57.9976 73.2676 58.1185 73.2889 58.2402 73.2889V72.245ZM50.3926 70.4326H52.7126V68.3448H50.3926V70.4326ZM52.3555 70.3696L60.2032 73.2259L60.9172 71.264L53.0696 68.4077L52.3555 70.3696ZM60.5602 71.2011H58.2402V73.2889H60.5602V71.2011ZM58.5973 71.264L50.7496 68.4077L50.0355 70.3696L57.8832 73.2259L58.5973 71.264Z" fill="#575843" mask="url(#path-56-inside-17_1045_15292)"/>
<path d="M60.6492 71.7228L54.6607 69.5431C56.2471 68.9114 57.3915 67.524 57.5738 65.8311L64.4009 68.3159C64.3396 70.1655 62.7677 71.6811 60.6492 71.7228Z" fill="#565742" stroke="#575843" stroke-width="1.04391" stroke-linejoin="round"/>
<path d="M14.4374 0.490234C6.74904 0.490234 0.517578 7.23793 0.517578 15.5617C0.517578 22.6883 5.08793 28.6609 11.2266 30.2283L8.92054 65.0907C8.87749 65.6438 8.95858 66.1992 9.15866 66.7218C9.35875 67.2443 9.67349 67.7227 10.083 68.1266C10.4925 68.5305 10.9878 68.8512 11.5376 69.0683C12.0875 69.2855 12.6799 69.3944 13.2775 69.3882H15.5974C18.1494 69.3882 20.1075 67.4547 19.9543 65.0907L17.6483 30.2283C23.7869 28.6566 28.3573 22.6883 28.3573 15.5617C28.3573 7.23793 22.1258 0.490234 14.4374 0.490234ZM61.2221 0.490234L57.357 22.0208H54.457L52.5222 0.490234H50.5873L48.6525 22.0208H45.7525L41.8874 0.490234H39.9525V28.48C39.9525 29.0511 40.197 29.5987 40.632 30.0025C41.0671 30.4062 41.6572 30.6331 42.2725 30.6331H48.3137L46.0355 65.0907C45.9925 65.6438 46.0736 66.1992 46.2737 66.7218C46.4737 67.2443 46.7885 67.7227 47.198 68.1266C47.6074 68.5305 48.1028 68.8512 48.6526 69.0683C49.2025 69.2855 49.7949 69.3944 50.3924 69.3882H52.7124C55.2644 69.3882 57.2225 67.4547 57.0693 65.0907L54.7911 30.6331H60.8323C61.4476 30.6331 62.0377 30.4062 62.4728 30.0025C62.9079 29.5987 63.1523 29.0511 63.1523 28.48V0.490234H61.2174H61.2221Z" fill="#EBEBEA"/>
</svg>
