<svg width="58" height="52" viewBox="0 0 58 52" fill="none" xmlns="http://www.w3.org/2000/svg"><g clip-path="url(#clip0_623_4455)"><path d="M55.72 9.527H45.442v-7.27c0-.579-.234-1.133-.65-1.543a2.24 2.24 0 00-1.569-.639H7.071a7.086 7.086 0 00-4.966 2.023A6.852 6.852 0 00.048 6.983v38.1c0 1.831.74 3.588 2.057 4.884a7.084 7.084 0 004.966 2.023H55.72c.588 0 1.153-.23 1.568-.639.416-.409.65-.964.65-1.542v-38.1c0-.578-.234-1.133-.65-1.542-.415-.41-.98-.64-1.568-.64zM4.41 6.983c0-.675.273-1.322.758-1.8a2.61 2.61 0 011.83-.745h34.009v5.09H7.072a2.61 2.61 0 01-1.878-.72 2.525 2.525 0 01-.784-1.825zM43.742 35.34a5.22 5.22 0 01-3.66-1.491 5.048 5.048 0 01-1.515-3.599c0-1.35.545-2.644 1.516-3.599a5.219 5.219 0 013.659-1.49 5.22 5.22 0 013.66 1.49 5.047 5.047 0 011.515 3.599c0 1.35-.545 2.644-1.516 3.599a5.219 5.219 0 01-3.659 1.49z" fill="#fff"/></g><defs><clipPath id="clip0_623_4455"><path fill="#fff" d="M0 0h58v52H0z"/></clipPath></defs></svg>