<svg width="54" height="60" viewBox="0 0 54 60" fill="none" xmlns="http://www.w3.org/2000/svg"><g clip-path="url(#clip0_623_4426)" fill="#fff"><path d="M43.365 16.915c0 9.34-7.34 16.912-16.395 16.912-9.054 0-16.394-7.572-16.394-16.912S17.916.003 26.971.003c9.054 0 16.394 7.572 16.394 16.912z"/><path d="M40.362 31.02c-3.38 3.64-8.131 5.914-13.392 5.914-5.26 0-10.012-2.273-13.391-5.913C5.472 34.05.006 40.064.006 48.578c0 12.659 12.072 11.35 26.964 11.35s26.964 1.309 26.964-11.35c0-8.513-5.466-14.529-13.572-17.559zM32.65 48.879c0 .4-.314.725-.702.725H28.61v3.443c0 .4-.314.725-.703.725h-1.874a.714.714 0 01-.703-.725v-3.443h-3.337a.714.714 0 01-.703-.725v-1.933c0-.401.315-.725.703-.725h3.338v-3.443c0-.4.314-.725.702-.725h1.874c.388 0 .703.325.703.725v3.443h3.338c.388 0 .703.324.703.725v1.933z"/></g><defs><clipPath id="clip0_623_4426"><path fill="#fff" d="M0 0h54v60H0z"/></clipPath></defs></svg>