<svg width="59" height="56" viewBox="0 0 59 56" fill="none" xmlns="http://www.w3.org/2000/svg"><g clip-path="url(#clip0_623_4439)" fill="#fff"><path d="M11.566 2.675c0-3.529 5.208-3.529 5.208 0v10.213c0 3.529-5.208 3.529-5.208 0V2.676zm35.708 0c0-3.529-5.208-3.529-5.208 0v10.213c0 3.529 5.208 3.529 5.208 0V2.676z"/><path fill-rule="evenodd" clip-rule="evenodd" d="M58.989 24.96v21.542c0 5.2-4.277 9.472-9.484 9.472H9.52c-5.207 0-9.484-4.271-9.484-9.471V24.96H58.99zM9.521 7.875v5.014c0 6.129 9.299 6.129 9.299 0V7.875h21.2v5.014c0 6.315 9.484 6.315 9.484 0V7.875c5.207 0 9.484 4.271 9.484 9.471v5.015H.036v-5.015c0-5.385 4.277-9.471 9.484-9.471h.001z"/></g><defs><clipPath id="clip0_623_4439"><path fill="#fff" d="M0 0h59v56H0z"/></clipPath></defs></svg>