<svg width="56" height="56" viewBox="0 0 56 56" fill="none" xmlns="http://www.w3.org/2000/svg"><g clip-path="url(#clip0_623_4433)"><path d="M27.967.076c-7.464 0-14.482 2.906-19.76 8.185C2.93 13.538.023 20.555.023 28.019c0 7.464 2.907 14.482 8.187 19.758 5.276 5.278 12.294 8.185 19.757 8.185 7.463 0 14.48-2.907 19.758-8.184C53.004 42.5 55.91 35.482 55.91 28.02c0-7.464-2.907-14.481-8.186-19.759C42.448 2.982 35.43.076 27.967.076zm-3.825 44.1c2.262 2.263 4.26 4.551 6.918 5.771-1.018.142-2.046.24-3.093.24-5.075 0-9.88-1.705-13.788-4.824a29.723 29.723 0 01-1.857-1.7c-.007.014-.01.027-.016.043l-.014-.012A22.022 22.022 0 015.798 28.02a22.018 22.018 0 016.492-15.674 22.027 22.027 0 0115.676-6.494c2.057 0 4.065.296 5.993.834-3.476 1.193-7.197 3.6-9.819 6.22-8.635 8.636-8.635 22.636.002 31.273v-.001z" fill="#fff"/></g><defs><clipPath id="clip0_623_4433"><path fill="#fff" d="M0 0h56v56H0z"/></clipPath></defs></svg>