<svg width="560" height="585" viewBox="0 0 560 585" fill="none" xmlns="http://www.w3.org/2000/svg"><g clip-path="url(#clip0_623_4298)" fill-rule="evenodd" clip-rule="evenodd" fill-opacity=".15"><path d="M228.235 108.778c-6.558 2.122-12.28 4.925-17.256 8.112C216.506 63.8 238.56-15.982 323.118 16.776c7.063 2.736-77.588 22.898-94.884 92.002h.001z" fill="url(#paint0_linear_623_4298)"/><path d="M355.707 560.048c15.617-13.96 27.769-33.002 34.556-57.818 29.13-106.508-32.281-173.067-84.68-219.186-17.359-15.284-23.015-30.668-28.132-48.04-4.019-13.625-7.686-28.349-14.662-44.928-11.161-26.532-32.701-43.553-55.566-52.12 7.619-8.083 18.989-15.718 35.638-18.421 35.479-5.76 81.267-3.484 111.839 56.882 30.571 60.37 44.501 72.575 110.021 132.936 65.523 60.361 55.537 136.23 25.713 182.627-29.218 45.467-76.802 75.896-134.733 68.068h.006z" fill="url(#paint1_linear_623_4298)"/><path d="M162.622 131.736C138.041 85.497 83.068 8.498 14.812 76.75c-5.731 5.731 92.549-12.68 132.412 58.615 5.438-1.946 8.964-2.673 8.964-2.673l.171-.038a73.737 73.737 0 016.261-.919l.002.001z" fill="url(#paint2_linear_623_4298)"/><path d="M110.537 158.276c-16.207 6.212-31.878 15.238-40.98 28.249-36.67 52.455-15.389 96.514-25.112 132.979-9.724 36.462-42.78 86.351-36.256 135.963 8.174 62.153 43.132 117.142 130.242 124.938 32.43 2.902 57.558 3.667 77.408 3.153-24.348-6.875-47.262-18.379-65.629-33.315-30.676-24.945-45.211-59.697-52.078-91.823-8.814-41.243-4.867-73.004-1.458-106.111 3.128-30.366 5.706-61.961-5.02-104.7-7.206-28.713-4.057-50.379 3.303-66.686 4.094-9.076 9.574-16.532 15.58-22.639v-.008z" fill="url(#paint3_linear_623_4298)"/><path d="M149.919 149.102c-19.197 7.234-60.937 30.73-44.781 95.118 22.438 89.408-10.322 132.177 6.587 211.284 6.265 29.319 19.26 61.176 47.258 83.949 64.71 52.626 190.561 58.967 217.882-40.892 27.309-99.859-31.332-161.84-80.457-205.093-32.94-28.996-29.552-57.914-46.423-98.013-15.91-37.818-56.43-53.073-85.803-49.924 15.969 23.621 112.491 174.394 116.79 374.333.087 3.834-2.962 7.017-6.796 7.101a6.958 6.958 0 01-7.101-6.805c-4.595-213.498-116.426-369.766-116.426-369.766a6.517 6.517 0 01-.727-1.295l-.003.003zm49.898 203.938c3.647-1.128 7.682-.543 11.429 1.888 3.885 2.519 7.594 7.301 9.503 13.471 1.913 6.174 1.541 12.218-.243 16.491-1.72 4.123-4.715 6.875-8.37 8.007-3.647 1.128-7.682.543-11.429-1.888-3.885-2.518-7.594-7.297-9.503-13.471-1.908-6.173-1.541-12.218.243-16.482 1.721-4.131 4.716-6.884 8.37-8.012v-.004zm77.1-9.444c3.646-1.128 7.681-.543 11.428 1.888 3.885 2.519 7.594 7.297 9.503 13.471 1.909 6.174 1.541 12.218-.242 16.482-1.721 4.123-4.716 6.884-8.371 8.012-3.647 1.128-7.681.543-11.429-1.888-3.884-2.519-7.594-7.301-9.502-13.476-1.909-6.165-1.542-12.209.242-16.482 1.721-4.123 4.716-6.884 8.371-8.007z" fill="url(#paint4_linear_623_4298)"/><path d="M316.742 80.183c2.205-.593 20.617-5.439 46.214-8.225.43.192.894.335 1.383.43 0 0 31.582 6.391 58.231 31.909a6.957 6.957 0 009.828-.209c2.649-2.774 2.557-7.18-.217-9.828-11.508-11.02-23.846-18.83-34.656-24.257 30.066-.029 63.628 4.628 91.542 20.346 3.342 1.884 7.581.693 9.465-2.648a6.955 6.955 0 00-2.644-9.47c-17.347-9.765-36.749-15.542-56.263-18.675a50.263 50.263 0 0117.242-4.365 6.95 6.95 0 006.449-7.414 6.95 6.95 0 00-7.414-6.45c-19.694 1.367-33.144 11.525-37.952 15.76-46.072-3.22-88.631 5.764-101.304 8.793 17.318-16.069 77.229-64.455 149.137-41.072 36.757 11.95 59.184 34.873 79.446 71.464 11.173 20.174 14.791 37.793 14.791 37.793s-46.206-27.059-94.237-10.717c-48.023 16.348-96.113 4.202-114.32-7.933-13.308-8.876-27.309-24.477-34.719-35.236l-.002.004z" fill="url(#paint5_linear_623_4298)"/></g><defs><linearGradient id="paint0_linear_623_4298" x1="267.257" y1="9.124" x2="267.257" y2="116.89" gradientUnits="userSpaceOnUse"><stop stop-color="#3F3F3F"/><stop offset="1"/></linearGradient><linearGradient id="paint1_linear_623_4298" x1="360.401" y1="117.432" x2="360.401" y2="561.275" gradientUnits="userSpaceOnUse"><stop stop-color="#3F3F3F"/><stop offset="1"/></linearGradient><linearGradient id="paint2_linear_623_4298" x1="88.597" y1="49.714" x2="88.597" y2="135.365" gradientUnits="userSpaceOnUse"><stop stop-color="#3F3F3F"/><stop offset="1"/></linearGradient><linearGradient id="paint3_linear_623_4298" x1="111.591" y1="158.276" x2="111.591" y2="583.707" gradientUnits="userSpaceOnUse"><stop stop-color="#3F3F3F"/><stop offset="1"/></linearGradient><linearGradient id="paint4_linear_623_4298" x1="242.658" y1="145.13" x2="242.658" y2="576.934" gradientUnits="userSpaceOnUse"><stop stop-color="#3F3F3F"/><stop offset="1"/></linearGradient><linearGradient id="paint5_linear_623_4298" x1="438.333" y1="18.538" x2="438.333" y2="134.065" gradientUnits="userSpaceOnUse"><stop stop-color="#3F3F3F"/><stop offset="1"/></linearGradient><clipPath id="clip0_623_4298"><path fill="#fff" transform="matrix(-1 0 0 1 560 0)" d="M0 0h560v585H0z"/></clipPath></defs></svg>