<svg width="558" height="548" viewBox="0 0 558 548" fill="none" xmlns="http://www.w3.org/2000/svg"><g clip-path="url(#clip0_623_5934)"><path d="M86.645 172.121c27.966-6.836 62.082.881 95.965 6.861 3.834 12.065 8.442 24.382 13.707 36.583-16.78-.209-31.787 11.317-40.021 26.466-4.846 9.514-6.418 19.921-4.886 29.817-7.812 3.407-15.773 9.542-21.042 17.269-18.463 8.67-41.466 29.874-56.28 49.75-2.324-21.144-5.084-50.175-3.415-70.402.301-3.898-5.272-6.748-8.23-4.215l-16.677 13.821c-.681-18.514 2.033-34.568 10.78-47.915 10.425-15.911 28.44-29.5 56.474-42.249 3.637-1.731 2.97-8.265-.954-9.296l-25.423-6.482.002-.008zm89.344-84.764c.281-.263.506-.389.821-.532 10.098-4.608 9.586 62.452 37.79 123.153l-11.492 8.847C175.785 160.02 167.31 95.511 175.983 87.354l.006.003zm70.835 7.754c2.801-3.329 6.4-7.078 10.077-10.575l-7.988 24.95c-1.183 3.83 3.998 7.845 7.408 5.737 25.818-16.546 45.766-22.507 64.472-20.762 14.538 1.356 29.153 8.863 44.622 19.488l-15.509-.127c-4.139 2.145-7.097 4.508-2.254 9.304 18.307 9.542 41.817 27.712 58.596 41.004-19.966 1.047-38.642 4.883-52.742 9.127a50.15 50.15 0 00-22.992-6.52c-12.175-.449-23.853 3.449-33.143 11.142-22.647-18.051-52.737-15.049-70.618 6.708-4.704 5.871-8.002 12.571-9.612 19.483-3.26-8.434-6.106-17.056-8.689-25.614 7.555-26.892 18.24-59.305 38.373-83.343l-.001-.002zm-77.428 145.313c10.85-13.665 27.356-19.169 48.652-11.014 2.063 10.659 11.347 21.976 21.632 28.446 1.678 8.651.376 17.653-3.612 25.483-9.94 19.515-33.722 27.074-53.398 16.937-19.676-10.138-27.568-33.906-17.631-53.418 1.318-2.27 2.805-4.48 4.355-6.431l.002-.003zm-28.54 51.344c3.514-4.13 7.926-7.686 13.117-10.125 4.125 11.202 12.262 20.978 23.57 27.024-.822 16.146 6.288 30.97 17.953 40.78-2.929 2.17-6.27 3.813-9.705 5.12-20.522 7.8-43.483-2.287-51.536-22.846-5.536-14.135-2.49-29.28 6.602-39.953h-.001zm93.567-101.025c13.688-17.079 38.636-19.441 55.916-5.593 17.28 13.848 20.29 38.611 6.6 55.693-13.687 17.08-38.609 19.658-55.889 5.81-17.28-13.848-20.314-38.83-6.627-55.91zm-46.904 121.958c22.34 6.393 46.638-3.493 57.479-24.776 1.543-3.027 2.69-6.193 3.565-9.444 12.253 7.879 19.393 21.852 18.351 36.533-1.555 21.913-20.553 38.152-42.543 36.352-20.54-1.682-36.15-18.593-36.857-38.664l.005-.001zm116.96-127.717c7.328-5.781 16.489-8.733 25.932-8.386 22.039.814 39.348 19.028 38.786 41.004-.515 20.007-15.703 35.924-35.049 37.992-.348-14.471-7.047-28.273-18.817-37.701.353-11.645-3.289-23.463-10.854-32.906l.002-.003zm-54.293 77.735c19.238 6.469 41.142.855 54.422-15.716 4.256-5.311 7.233-11.23 8.962-17.425 9.492 10.328 13.119 25.127 8.975 38.745-6.312 20.743-28.029 32.222-48.919 26.081-4.296-11.134-12.44-20.684-23.397-26.491a49.18 49.18 0 00-.042-5.193l-.001-.001zm-74.814 104.344c10.252-.763 20.091-4.949 28.644-11.772 3.42 1.848 7.053 3.352 10.905 4.373a48.949 48.949 0 00-7.466 28.545 40.089 40.089 0 01-32.083-21.146zm50.591-5.691c14.095.496 27.173-5.095 36.536-14.373 6.655 12.865 18.378 21.905 31.805 25.489 5.637 14.567 2.394 30.793-8.492 41.813-15.386 15.572-40.753 15.653-56.541.132-14.801-14.553-15.903-37.422-3.31-53.057l.002-.004zm50.447-56.209c17.539 3.051 35.034-3.614 46.132-16.609 10.148 4.585 18.032 13.154 21.638 23.691 7.15 20.878-3.949 43.279-24.798 50.173-20.387 6.74-42.259-4.131-49.91-24.122 5.562-8.968 8.732-21.557 6.941-33.131l-.003-.002zm57.018-39.433c17.56-1.212 32.652-11.664 40.336-26.609a40.764 40.764 0 0111.128 13.083c10.465 19.471 3.293 43.349-16.111 53.565-5.368-1.074-10.992-1.229-16.651-.448a50.551 50.551 0 00-23.782-25.014c2.001-4.374 4.285-9.396 5.08-14.581v.004zm-28.083 108.461c2.896.113 5.774.039 8.698-.37 7.46 17.045 23.75 28.23 41.713 29.858 2.094 16.138-5.706 31.83-19.922 39.594-18.613 10.165-41.942 3.855-53.181-14.047 3.654-2.129 7.056-4.789 10.159-7.93 12.262-12.409 16.908-30.37 12.534-47.105h-.001zm49.757-59.342c19.172-1.95 37.252 10.141 42.706 28.869 6.172 21.177-5.973 43.178-27.137 49.092-18.973 5.303-38.62-4.078-46.934-21.342 23.361-8.319 36.477-32.739 31.366-56.619h-.001zm10.624 88.88c2.295-.333 5.074-.632 7.702-1.369 13.215-3.695 23.717-12.563 29.821-23.725 6.835 2.964 12.925 7.884 17.207 13.989 12.708 18.112 8.498 42.608-9.517 55.078-17.666 12.23-42.03 8.136-54.94-9.105a48.8 48.8 0 009.73-34.866l-.003-.002z" fill="url(#paint0_linear_623_5934)" fill-opacity=".15"/></g><defs><linearGradient id="paint0_linear_623_5934" x1="112.208" y1="140.223" x2="445.451" y2="407.284" gradientUnits="userSpaceOnUse"><stop stop-color="#3F3F3F"/><stop offset="1"/></linearGradient><clipPath id="clip0_623_5934"><path fill="#fff" transform="scale(-1 1) rotate(51.291 -112.24 -233.52)" d="M0 0h358.624v427.623H0z"/></clipPath></defs></svg>