<svg width="302" height="340" viewBox="0 0 302 340" fill="none" xmlns="http://www.w3.org/2000/svg">
<g clip-path="url(#clip0_630_3243)">
<path d="M202.978 43.5815C192.646 40.9337 181.959 38.1955 172.753 31.954C168.259 28.9079 164.395 25.1986 160.653 21.6148C158.579 19.6242 156.499 17.627 154.318 15.7573C147.761 10.1451 141.992 7.37019 137.65 7.73618C135.292 7.93128 133.26 9.08783 131.435 11.268C129.065 14.1077 129.138 16.1812 129.403 17.5008C131.1 26.14 148.76 35.4877 160.442 41.6737C166.562 44.9146 171.395 47.4706 173.888 49.7194C178.801 54.1449 182.053 59.9056 184.833 65.469C195.112 86.0594 200.893 106.868 202.019 127.319C203.385 152.122 196.609 176.844 182.421 198.802C171.055 216.383 156.527 231.178 142.52 244.542C127.383 258.979 114.103 270.317 98.4824 278.726C96.9826 279.534 95.814 280.162 95.1414 280.905C94.9699 281.095 94.8147 281.308 94.6753 281.549C94.1744 282.417 93.8801 283.602 93.8324 284.985C93.4487 296.586 107.604 299.565 119.544 300.024C148.747 301.143 179.611 290.046 204.232 269.584C226.634 250.98 244.41 224.693 255.678 193.591C270.67 152.174 269.717 110.484 253.065 79.2068C248.377 70.4071 239.919 58.4327 226.242 51.3781C219.122 47.719 211.285 45.7092 202.978 43.5815L202.978 43.5815Z" fill="url(#paint0_linear_630_3243)" fill-opacity="0.15"/>
<path d="M142.053 233.791C154.062 222.075 166.093 209.213 175.644 194.427C188.922 173.899 195.234 150.853 193.966 127.766C193.017 110.522 188.519 92.9659 180.633 75.4758C181.147 85.5835 180.57 95.7244 178.601 105.646C174.438 126.598 163.65 144.742 148.015 159.198C135.39 170.865 120.607 179.927 105.612 188.333C91.8794 196.026 77.7151 203.301 62.4412 207.085C60.9399 207.456 59.3943 207.809 58.1077 208.658C56.3838 209.798 55.3078 211.718 54.7296 213.704C50.965 226.574 65.2908 233.074 75.2979 236.053C96.9966 242.514 120.568 241.129 142.053 233.791L142.053 233.791Z" fill="url(#paint1_linear_630_3243)" fill-opacity="0.15"/>
</g>
<defs>
<linearGradient id="paint0_linear_630_3243" x1="68.9626" y1="119.099" x2="243.973" y2="220.141" gradientUnits="userSpaceOnUse">
<stop stop-color="#3F3F3F"/>
<stop offset="1"/>
</linearGradient>
<linearGradient id="paint1_linear_630_3243" x1="97.4253" y1="139.075" x2="180.193" y2="186.861" gradientUnits="userSpaceOnUse">
<stop stop-color="#3F3F3F"/>
<stop offset="1"/>
</linearGradient>
<clipPath id="clip0_630_3243">
<rect width="275.038" height="202.631" fill="white" transform="translate(0 238.189) rotate(-60)"/>
</clipPath>
</defs>
</svg>
