<svg width="302" height="340" viewBox="0 0 302 340" fill="none" xmlns="http://www.w3.org/2000/svg"><g clip-path="url(#clip0_630_3243)" fill-opacity=".15"><path d="M202.978 43.581c-10.332-2.647-21.019-5.386-30.225-11.627-4.494-3.046-8.358-6.755-12.1-10.34-2.074-1.99-4.154-3.987-6.335-5.857-6.557-5.612-12.326-8.387-16.668-8.02-2.358.194-4.39 1.35-6.215 3.531-2.37 2.84-2.297 4.913-2.032 6.233 1.697 8.639 19.357 17.987 31.039 24.173 6.12 3.24 10.953 5.797 13.446 8.045 4.913 4.426 8.165 10.187 10.945 15.75 10.279 20.59 16.06 41.399 17.186 61.85 1.366 24.803-5.41 49.525-19.598 71.483-11.366 17.581-25.894 32.376-39.901 45.74-15.137 14.437-28.417 25.775-44.038 34.184-1.5.808-2.668 1.436-3.34 2.179-.172.19-.327.403-.467.644-.5.868-.795 2.053-.843 3.436-.383 11.601 13.772 14.58 25.712 15.039 29.203 1.119 60.067-9.978 84.688-30.44 22.402-18.604 40.178-44.891 51.446-75.993 14.992-41.417 14.039-83.107-2.613-114.384-4.688-8.8-13.146-20.774-26.823-27.829-7.12-3.659-14.957-5.669-23.264-7.797z" fill="url(#paint0_linear_630_3243)"/><path d="M142.053 233.791c12.009-11.716 24.04-24.578 33.591-39.364 13.278-20.528 19.59-43.574 18.322-66.661-.949-17.244-5.447-34.8-13.333-52.29.514 10.108-.063 20.248-2.032 30.17-4.163 20.952-14.951 39.096-30.586 53.552-12.625 11.667-27.408 20.729-42.403 29.135-13.733 7.693-27.897 14.968-43.17 18.752-1.502.371-3.048.724-4.334 1.573-1.724 1.14-2.8 3.06-3.378 5.046-3.765 12.87 10.56 19.37 20.568 22.349 21.699 6.461 45.27 5.076 66.755-2.262z" fill="url(#paint1_linear_630_3243)"/></g><defs><linearGradient id="paint0_linear_630_3243" x1="68.963" y1="119.099" x2="243.973" y2="220.141" gradientUnits="userSpaceOnUse"><stop stop-color="#3F3F3F"/><stop offset="1"/></linearGradient><linearGradient id="paint1_linear_630_3243" x1="97.425" y1="139.075" x2="180.193" y2="186.861" gradientUnits="userSpaceOnUse"><stop stop-color="#3F3F3F"/><stop offset="1"/></linearGradient><clipPath id="clip0_630_3243"><path fill="#fff" transform="rotate(-60 206.278 119.094)" d="M0 0h275.038v202.631H0z"/></clipPath></defs></svg>