<svg width="66" height="54" viewBox="0 0 66 54" fill="none" xmlns="http://www.w3.org/2000/svg"><path d="M55.656 21.195H49.84L61.057 3.413l4.1 2.412-9.501 15.37zM8.018 33.36v-8.25H65.35v8.25c0 11.1-8.818 19.917-19.917 19.917h-17.5a20.18 20.18 0 01-6.921-1.21C13.386 49.291 8.018 42.023 8.018 33.361z" fill="#575843" stroke="#575843"/><path d="M7.018 32.647L.5 30.275v-7.686l6.518 2.372v7.686zm8.02 17.247C10.224 46.15 7.126 40.33 7.02 33.712L.512 31.344C.8 39.686 6.08 46.63 13.495 49.332l1.543.562zm0 0l-1.543-.562 1.543.562zm9.084 3.029a19.91 19.91 0 01-3.11-.854h0l-1.497-.545c.27.011.54.017.813.018l3.794 1.381zM7.606 24.111l-4.77-1.736h55.41l4.77 1.736H7.605zm34.993 29.166H28.023l-4.77-1.736h14.576l4.77 1.736zM60.14 2.994L48.726 21.087 42.17 18.7 53.583.608l6.556 2.386z" fill="#575843" stroke="#575843" stroke-linejoin="round"/><path d="M49.023 21.195l-4.77-1.736h4.076l4.77 1.736h-4.076zM60.892 3.316l-2.345-.854-.213-.125 2.344.853.214.126zm-5.169 17.769l-6.558-2.387 9.38-15.173 6.558 2.387-9.38 15.173zM45.522 53.278l-5.151-1.875c10.242-1.169 18.11-9.577 18.451-20.068l6.526 2.375c-.182 10.905-8.885 19.522-19.826 19.568zM65.35 32.647l-6.517-2.372v-7.686l6.517 2.372v7.686z" fill="#575843" stroke="#575843" stroke-linejoin="round"/><path d="M41.417 18.958L53.375 0l4.958 2.917-9.916 16.041h-7zm-1.75 2.917H0v8.75C0 42 9.042 51.042 20.417 51.042h17.5c11.375 0 20.416-9.042 20.416-20.417v-8.75H39.667z" fill="#EBEBEA"/></svg>