<svg width="75" height="75" viewBox="0 0 75 75" fill="none" xmlns="http://www.w3.org/2000/svg"><path d="M46.985 20.632L41.902 6.216c-.1-.27-.29-.503-.536-.68a1.98 1.98 0 00-1.147-.354c-.77 0-1.454.423-1.682 1.034l-5.434 14.416c-.053.145-.07.276-.07.422h14.022c0-.146-.017-.277-.07-.422zm-11.507 52.89c1.23.878 2.826 1.408 4.566 1.408 3.873 0 7.01-2.606 7.01-5.824v-4.368h-14.02v4.368c0 1.766.95 3.348 2.445 4.416zm-2.444-49.557h14.022v37.861H33.034v-37.86zm-20.227 8.65H25.2c-.455-4.616-1.139-8.532-1.998-11.27 1.84-3.087 2.822-6.523 2.822-9.975v-.524c0-1.558-.561-2.869-1.876-3.975-1.332-1.092-3.084-1.704-4.96-1.704-3.856 0-7.186 2.46-7.186 5.678v.524c0 3.452.982 6.888 2.822 9.975-.86 2.738-1.56 6.67-2.016 11.271zM25.812 45.75c0-3.554-.123-7.005-.35-10.208l-12.9-.001a144.937 144.937 0 00-.351 10.208c0 6.844.49 29.181 6.8 29.181s6.8-22.336 6.8-29.18zm41.995 1.21c0-3.379-.123-6.626-.333-9.64H54.557c-.21 3.014-.333 6.261-.333 9.64 0 6.567.49 27.972 6.8 27.972s6.783-21.406 6.783-27.973zm-15.196-29.3c0 2.12 1.151 4.005 2.946 5.288.386.276.803.524 1.243.74-.858 2.622-1.542 6.335-1.98 10.704h12.392c-.438-4.354-1.104-8.053-1.963-10.66 2.558-1.208 4.294-3.48 4.294-6.086 0-3.378-5.678-10.441-6.853-11.853a1.834 1.834 0 00-.345-.315c-.59-.421-1.498-.637-2.126-.34-.789.349-.982 1.223-.649 1.907 0 .03.333 2.286-6.134 8.024-.929.83-.877 1.849-.842 2.388v.203h.017zM5.001 6.37v-.524l7 5v.524l-7-5z" fill="#595A44"/><path d="M5.001 5.845c0-3.218 3.33-5.679 7.186-5.679l7 5C15.33 5.166 12 7.626 12 10.845l-7-5zm2.822 10.499C5.983 13.257 5 9.82 5 6.369l7 5c0 3.451.982 6.888 2.822 9.975l-7-5z" fill="#595A44"/><path d="M12.187.166c1.875 0 3.628.612 4.96 1.704l6.236 4.454c.267.166.522.348.764.546l-.764-.546c-1.208-.748-2.66-1.158-4.197-1.158l-7-5z" fill="#595A44"/><path d="M17.148 1.871c1.314 1.107 1.875 2.417 1.875 3.975l7 5c0-1.558-.561-2.868-1.875-3.975l-7-5zM5.808 27.615c.455-4.601 1.156-8.534 2.015-11.271l7 5c-.859 2.737-1.56 6.67-2.015 11.27l-7-5z" fill="#595A44"/><path d="M19.023 5.846v.524l7 5v-.524l-7-5zm-.001.525c0 3.452-.981 6.888-2.822 9.975l7 5c1.84-3.087 2.822-6.524 2.822-9.975l-7-5zM5.21 40.749c0-3.553.123-7.004.352-10.208l7 5a144.937 144.937 0 00-.351 10.208l-7-5zM18.2 27.615H5.807l7 5h12.391l-7-5zm13.336-26.4c.228-.611.912-1.033 1.683-1.033l7 5c-.771 0-1.455.422-1.683 1.033l-7-5z" fill="#595A44"/><path d="M16.2 16.346c.86 2.737 1.543 6.654 1.998 11.27l7 5C24.744 28 24.06 24.083 23.2 21.346l-7-5zM5.562 30.541H18.46l7 5h-12.9l-7-5zM33.22.182c.43 0 .834.131 1.146.354l7 5a1.98 1.98 0 00-1.146-.354l-7-5zm-7.118 15.451l5.434-14.416 7 5-5.434 14.416-7-5z" fill="#595A44"/><path d="M34.366.537c.247.176.436.41.537.68l7 5a1.48 1.48 0 00-.537-.68l-7-5zm-8.334 15.516c0-.146.018-.277.07-.422l7 5c-.052.145-.07.276-.07.422l-7-5zm8.87-14.836l5.083 14.416 7 5-5.083-14.416-7-5zM18.46 30.541a143.7 143.7 0 01.352 10.208l7 5c0-3.553-.123-7.005-.351-10.208l-7-5z" fill="#595A44"/><path d="M40.054 16.055H26.032l7 5h14.022l-7-5z" fill="#595A44"/><path d="M40.056 18.965H26.034l7 5h14.022l-7-5zM12.012 69.93c-6.31 0-6.801-22.338-6.801-29.182l7 5c0 5.552.323 21.3 3.813 27.048l2.988 2.134c-1.192 0-2.175-.797-2.988-2.134l-4.012-2.866zm27.973-54.3c.053.146.07.277.07.423l7 5c0-.146-.017-.277-.07-.422l-7-5zm-13.951 3.335v37.86l7 5v-37.86l-7-5zM52.57 2.044c-.333-.684-.14-1.558.648-1.907l7 5c-.788.349-.981 1.223-.648 1.907l-7-5zm-6.135 8.024c6.468-5.737 6.135-7.994 6.135-8.023l7 5c0 .03.333 2.286-6.135 8.023l-7-5z" fill="#595A44"/><path d="M45.594 12.457c-.035-.54-.087-1.559.842-2.389l7 5c-.929.83-.877 1.85-.842 2.389l-7-5zM53.219.138c.628-.297 1.536-.081 2.126.34l7 5c-.59-.422-1.498-.637-2.126-.34l-7-5zM45.593 12.66v-.203l7 5v.203l-7-5z" fill="#595A44"/><path d="M45.61 12.66h-.017l7 5h.017l-7-5zM18.812 40.75c0 6.844-.491 29.182-6.8 29.181l7 5c6.309 0 6.8-22.337 6.8-29.181l-7-5zM55.345.479c.133.095.25.201.345.314l7 5a1.83 1.83 0 00-.345-.314l-7-5z" fill="#595A44"/><path d="M48.556 17.948c-1.794-1.283-2.946-3.167-2.946-5.288l7 5c0 2.121 1.152 4.005 2.946 5.288l-7-5z" fill="#595A44"/><path d="M49.801 18.688a8.849 8.849 0 01-1.24-.738l6.997 4.997c.386.276.802.525 1.243.741l-7-5zM55.69.793c1.175 1.412 6.853 8.475 6.853 11.853l7 5c0-3.378-5.678-10.44-6.853-11.853l-7-5z" fill="#595A44"/><path d="M47.82 29.393c.437-4.369 1.121-8.082 1.98-10.704l7 5c-.859 2.622-1.543 6.335-1.98 10.704l-7-5zm-7.764 27.433V18.965l7 5v37.86l-7-5zm-14.024 7.281v-4.369l7 5v4.369l-7-5zm36.511-51.461c0 2.606-1.735 4.878-4.294 6.087l7 5c2.559-1.209 4.294-3.48 4.294-6.087l-7-5zm-36.509 44.18h14.022l7 5H33.034l-7-5zm21.19-14.866c0-3.378.122-6.625.333-9.64l7 5a139.38 139.38 0 00-.333 9.64l-7-5z" fill="#595A44"/><path d="M28.477 68.52c-1.494-1.067-2.444-2.649-2.445-4.414l7 5c0 1.765.95 3.347 2.445 4.415l-7-5zm31.734-39.127H47.82l7 5h12.392l-7-5zM26.032 59.738h14.022l7 5H33.032l-7-5zm32.217-41.006c.859 2.607 1.525 6.306 1.963 10.66l7 5c-.438-4.354-1.104-8.053-1.963-10.66l-7-5z" fill="#595A44"/><path d="M47.557 32.32h12.917l7 5H54.557l-7-5zM33.044 69.93c-1.74 0-3.336-.53-4.564-1.407l6.997 4.999c1.23.878 2.827 1.409 4.567 1.409l-7-5zm7.011-10.192v4.369l7 5v-4.369l-7-5z" fill="#595A44"/><path d="M40.054 64.106c0 3.217-3.137 5.824-7.01 5.824l7 5c3.873 0 7.01-2.607 7.01-5.825l-7-5zm20.42-31.786c.21 3.015.333 6.262.333 9.64l7 5c0-3.378-.123-6.625-.333-9.64l-7-5zm-6.45 37.611c-6.31 0-6.8-21.405-6.8-27.972l7 5c0 5.277.317 20.134 3.715 25.768l3.085 2.204c-1.24 0-2.255-.826-3.086-2.204l-3.914-2.796z" fill="#595A44"/><path d="M60.807 41.959c0 6.567-.474 27.972-6.783 27.972l7 5c6.309 0 6.783-21.405 6.783-27.972l-7-5z" fill="#595A44"/><g filter="url(#filter0_d_1045_15293)" fill="#EBEBEA"><path d="M39.984 15.631L34.902 1.215C34.673.603 33.99.182 33.219.182s-1.455.422-1.683 1.033l-5.433 14.416a1.18 1.18 0 00-.07.422h14.021a1.18 1.18 0 00-.07-.422zm-6.94 54.3c3.873 0 7.01-2.606 7.01-5.824v-4.369H26.032v4.369c.001 3.218 3.156 5.824 7.012 5.824zm-7.011-50.966h14.022v37.86H26.033v-37.86zm-20.227 8.65h12.392c-.455-4.616-1.139-8.533-1.998-11.27 1.84-3.087 2.822-6.524 2.822-9.975v-.525c0-1.558-.561-2.868-1.876-3.975C15.814.778 14.062.166 12.186.166 8.33.166 5 2.626 5 5.845v.524c0 3.451.981 6.888 2.822 9.975-.86 2.737-1.56 6.67-2.016 11.27zM18.81 40.75c0-3.554-.122-7.005-.35-10.208l-12.9-.001c-.228 3.204-.35 6.655-.35 10.208 0 6.844.49 29.181 6.8 29.181s6.8-22.337 6.8-29.181zm41.997 1.21c0-3.378-.123-6.625-.333-9.64H47.557a139.38 139.38 0 00-.333 9.64c0 6.567.49 27.972 6.8 27.972 6.309 0 6.783-21.405 6.783-27.972zM45.61 12.66c0 2.577 1.7 4.805 4.19 6.029-.86 2.62-1.543 6.334-1.981 10.703H60.21c-.438-4.354-1.104-8.053-1.963-10.66 2.558-1.208 4.294-3.48 4.294-6.086 0-3.378-5.678-10.441-6.853-11.853-.508-.612-1.7-1.02-2.471-.655-.789.349-.982 1.223-.649 1.907 0 .03.333 2.286-6.134 8.024-.929.83-.877 1.849-.842 2.388v.203h.017z"/></g><defs><filter id="filter0_d_1045_15293" x="-21" y="-22" width="109.542" height="121.932" filterUnits="userSpaceOnUse" color-interpolation-filters="sRGB"><feFlood flood-opacity="0" result="BackgroundImageFix"/><feColorMatrix in="SourceAlpha" values="0 0 0 0 0 0 0 0 0 0 0 0 0 0 0 0 0 0 127 0" result="hardAlpha"/><feOffset dy="4"/><feGaussianBlur stdDeviation="13"/><feComposite in2="hardAlpha" operator="out"/><feColorMatrix values="0 0 0 0 0 0 0 0 0 0 0 0 0 0 0 0 0 0 0.1 0"/><feBlend in2="BackgroundImageFix" result="effect1_dropShadow_1045_15293"/><feBlend in="SourceGraphic" in2="effect1_dropShadow_1045_15293" result="shape"/></filter></defs></svg>