<svg width="69" height="64" viewBox="0 0 69 64" fill="none" xmlns="http://www.w3.org/2000/svg"><path d="M12.115 62.623c.663.24 1.379.363 2.153.363h47.25c1.722 0 3.185-.607 4.415-1.834 1.228-1.23 1.835-2.693 1.835-4.416V9.486c0-1.722-.608-3.185-1.835-4.415-.686-.685-1.44-1.172-2.263-1.471a6.246 6.246 0 00-2.152-.364h-47.25c-1.723 0-3.186.607-4.416 1.835-1.227 1.23-1.834 2.693-1.834 4.415v47.25c0 1.723.606 3.186 1.834 4.415 0 0 0 0 0 0m2.263 1.472l54.172-1.118c-1.324 1.321-2.913 1.981-4.77 1.981h-47.25a6.746 6.746 0 01-2.322-.393c-.898-.327-1.713-.856-2.446-1.588l.354-.353h-.001m2.263 1.47c-.823-.298-1.577-.786-2.263-1.47m2.263 1.47l-2.263-1.47M21.633 43.85l-.001.001c-.744.746-1.114 1.677-1.114 2.76 0 1.081.37 2.012 1.115 2.756.4.4.857.697 1.371.884.434.158.898.234 1.389.234 1.082 0 2.013-.372 2.76-1.118.744-.744 1.115-1.675 1.115-2.757s-.371-2.013-1.115-2.759l-.001-.001a3.737 3.737 0 00-1.368-.88 4.039 4.039 0 00-1.391-.235c-1.082 0-2.013.371-2.76 1.115zm0-13.5l-.001.001c-.744.746-1.114 1.677-1.114 2.76 0 1.081.37 2.012 1.115 2.756.4.4.857.697 1.371.884.434.158.898.234 1.389.234 1.082 0 2.013-.372 2.76-1.118.744-.744 1.115-1.675 1.115-2.757s-.371-2.013-1.115-2.759l-.001-.001a3.737 3.737 0 00-1.368-.88 4.039 4.039 0 00-1.391-.235c-1.082 0-2.013.371-2.76 1.115zm5.52-13.499l-.001-.001a3.737 3.737 0 00-1.368-.88 4.039 4.039 0 00-1.391-.235c-1.082 0-2.013.371-2.76 1.115l-.001.001c-.744.746-1.114 1.677-1.114 2.76 0 1.081.37 2.012 1.115 2.756.4.4.857.697 1.371.884.434.158.898.234 1.389.234 1.082 0 2.013-.372 2.76-1.118.744-.744 1.115-1.675 1.115-2.757s-.371-2.013-1.115-2.759zm6.865 33.134v.5h21.25v-7.75h-21.25v7.25zm0-13.5v.5h21.25v-7.75h-21.25v7.25zm0-13.5v.5h21.25v-7.75h-21.25v7.25z" fill="#575843" stroke="#575843"/><path d="M7.048 8.783l-6.54-2.38c.072-1.47.605-2.745 1.609-3.841l6.511 2.37a6.89 6.89 0 00-1.58 3.85zm5.16-6.265c-1.042.302-1.987.843-2.83 1.623l-6.44-2.344C4.014.947 5.25.517 6.664.501l5.544 2.017zm-5.19 53.504L.5 53.65V7.464l6.518 2.372v46.186zm13.554-37.105l-6.555-2.386a2.71 2.71 0 01.597-1.477l6.538 2.38c-.3.445-.493.942-.58 1.483zm-5.824-.069a2.676 2.676 0 01-.665-1.229l6.448 2.347c.03.378.108.736.235 1.072l-6.018-2.19zm7.124-2.217l-6.364-2.316A2.869 2.869 0 0116.79 14l5.844 2.127a3.72 3.72 0 00-.762.503zM2.258 58.338c-1.003-1.036-1.574-2.234-1.72-3.61l6.487 2.361a6.924 6.924 0 00.995 3.346l-5.762-2.097z" fill="#575843" stroke="#575843" stroke-linejoin="round"/><mask id="a" fill="#fff"><path d="M15.658 20.045a3.233 3.233 0 01-1.19-.768l7.518 2.736c.351.352.748.608 1.19.768l-7.518-2.736z"/></mask><path d="M15.658 20.045a3.233 3.233 0 01-1.19-.768l7.518 2.736c.351.352.748.608 1.19.768l-7.518-2.736z" fill="#575843"/><path d="M14.469 19.277l.342-.94a1 1 0 00-1.05 1.648l.708-.708zm1.189.768l-.342.94.342-.94zm7.517 2.736l-.342.94a1 1 0 00.685-1.88l-.343.94zm-1.189-.767l.707-.708a1 1 0 00-.365-.232l-.342.94zm-8.224-2.03a4.21 4.21 0 001.554 1L16 19.107a2.235 2.235 0 01-.824-.536l-1.414 1.415zm1.554 1.001l7.517 2.736.684-1.88L16 19.107l-.684 1.879zm8.202.857a2.236 2.236 0 01-.825-.536l-1.414 1.415c.448.448.968.787 1.554 1l.685-1.88zm-1.19-.768l-7.517-2.736-.684 1.879 7.517 2.736.684-1.88z" fill="#575843" mask="url(#a)"/><mask id="b" fill="#fff"><path d="M16.875 13.5c.44 0 .846.068 1.22.204l7.517 2.736a3.543 3.543 0 00-1.22-.204L16.875 13.5z"/></mask><path d="M16.875 13.5c.44 0 .846.068 1.22.204l7.517 2.736a3.543 3.543 0 00-1.22-.204L16.875 13.5z" fill="#575843"/><path d="M25.44 16.91h.002l.342-.94h-.001l-.342.94zm-7.344-3.206l-.343.94.343-.94zm-1.221-.204v-1a1 1 0 00-.342 1.94l.342-.94zm7.517 2.736l-.341.94a1 1 0 00.341.06v-1zm1.22.204l-.342.94a1 1 0 00.684-1.88l-.342.94zm-7.174-3.675a4.539 4.539 0 00-1.563-.265v2c.335 0 .624.052.878.144l.685-1.88zm-1.905 1.675l7.517 2.736.685-1.88-7.518-2.736-.684 1.88zm7.86 2.796c.334 0 .623.052.877.144l.683-1.88a4.538 4.538 0 00-1.56-.264v2zm1.56-1.736l-7.515-2.735-.684 1.88 7.516 2.735.684-1.88z" fill="#575843" mask="url(#b)"/><mask id="c" fill="#fff"><path d="M16.875 20.25a3.53 3.53 0 01-1.215-.203l7.516 2.736c.373.136.779.204 1.217.204l-7.518-2.736z"/></mask><path d="M16.875 20.25a3.53 3.53 0 01-1.215-.203l7.516 2.736c.373.136.779.204 1.217.204l-7.518-2.736z" fill="#575843"/><path d="M15.487 20.517h.002l.342-.94h-.002l-.342.94zm.173-.47l.341-.94a1 1 0 00-.683 1.88l.342-.94zm1.215.204l.343-.94a1 1 0 00-.343-.06v1zm7.518 2.736v1a1 1 0 00.342-1.94l-.342.94zm-1.217-.204l.342-.94-.342.94zm-7.858-1.796a4.53 4.53 0 001.557.264v-2c-.332 0-.62-.051-.873-.143l-.684 1.88zm1.215.204l7.518 2.736.684-1.88-7.517-2.736-.685 1.88zm7.86.796c-.333 0-.622-.051-.875-.144l-.684 1.88a4.52 4.52 0 001.559.264v-2zm-.875-.144l-7.516-2.735-.684 1.88 7.516 2.735.684-1.88z" fill="#575843" mask="url(#c)"/><mask id="d" fill="#fff"><path d="M18.096 13.705c.44.16.835.415 1.186.764l7.517 2.736a3.237 3.237 0 00-1.186-.764l-7.517-2.736z"/></mask><path d="M18.096 13.705c.44.16.835.415 1.186.764l7.517 2.736a3.237 3.237 0 00-1.186-.764l-7.517-2.736z" fill="#575843"/><path d="M19.282 14.47l-.706.707a1 1 0 00.363.232l.343-.94zm-1.186-.765l.342-.94a1 1 0 00-.685 1.88l.343-.94zm7.517 2.736l.343-.94-.343.94zm1.186.764l-.342.94a1 1 0 001.048-1.648l-.706.708zm-6.812-3.444a4.237 4.237 0 00-1.549-.995l-.685 1.879c.297.108.57.28.823.533l1.411-1.417zm-2.233.884l7.517 2.736.684-1.88-7.517-2.736-.684 1.88zm7.517 2.736c.296.108.57.28.822.533l1.412-1.417a4.238 4.238 0 00-1.55-.995l-.684 1.879zm1.87-1.115l-7.517-2.736-.684 1.879 7.517 2.736.684-1.88z" fill="#575843" mask="url(#d)"/><path d="M20.572 32.417l-6.555-2.386a2.71 2.71 0 01.597-1.477l6.538 2.38c-.3.445-.493.942-.58 1.483z" fill="#575843" stroke="#575843" stroke-linejoin="round"/><mask id="e" fill="#fff"><path d="M1.981 58.77c.734.732 1.549 1.26 2.446 1.587l7.515 2.735c-.896-.326-1.71-.855-2.443-1.586L1.981 58.77z"/></mask><path d="M1.981 58.77c.734.732 1.549 1.26 2.446 1.587l7.515 2.735c-.896-.326-1.71-.855-2.443-1.586L1.981 58.77z" fill="#575843"/><path d="M11.77 63.562l.004.001.342-.94h-.003l-.342.939zm-7.343-3.205l.342-.94-.342.94zM1.981 58.77l.342-.94a1 1 0 00-1.048 1.647l.706-.707zM9.5 61.505l.707-.708a.999.999 0 00-.365-.232l-.342.94zm2.443 1.586l-.342.94a1 1 0 00.684-1.88l-.342.94zM4.77 59.416c-.749-.272-1.442-.717-2.081-1.355l-1.413 1.415c.828.826 1.765 1.44 2.81 1.82l.684-1.88zm-3.13.292l7.518 2.736.684-1.879-7.518-2.736-.684 1.88zm7.153 2.504c.827.826 1.763 1.438 2.808 1.819l.684-1.88c-.748-.272-1.44-.717-2.079-1.354l-1.413 1.415zm3.492-.06L4.77 59.416l-.684 1.88 7.515 2.735.684-1.88z" fill="#575843" mask="url(#e)"/><path d="M25.762 22.168a2.86 2.86 0 01-1.284.317l-5.845-2.128c.27-.134.525-.303.764-.506l6.366 2.317zm1.422-3.301l-6.448-2.347a3.9 3.9 0 00-.235-1.075l6.018 2.19c.333.357.555.765.665 1.232zm-12.436 13.48a2.676 2.676 0 01-.665-1.228l6.448 2.347c.03.378.108.736.235 1.072l-6.018-2.19zm7.124-2.216l-6.364-2.316a2.869 2.869 0 011.282-.314l5.844 2.127a3.72 3.72 0 00-.762.503zm4.782-8.701l-6.538-2.38c.3-.445.492-.94.58-1.48l6.555 2.385a2.699 2.699 0 01-.597 1.474z" fill="#575843" stroke="#575843" stroke-linejoin="round"/><mask id="f" fill="#fff"><path d="M15.658 33.545a3.233 3.233 0 01-1.19-.768l7.518 2.736c.351.352.748.608 1.19.769l-7.518-2.737z"/></mask><path d="M15.658 33.545a3.233 3.233 0 01-1.19-.768l7.518 2.736c.351.352.748.608 1.19.769l-7.518-2.737z" fill="#575843"/><path d="M14.469 32.777l.342-.94a1 1 0 00-1.05 1.647l.708-.707zm1.189.768l-.342.94.342-.94zm7.517 2.736l-.342.94a1 1 0 00.685-1.88l-.343.94zm-1.189-.767l.707-.708a1 1 0 00-.365-.232l-.342.94zm-8.224-2.03a4.21 4.21 0 001.554 1L16 32.607a2.235 2.235 0 01-.824-.536l-1.414 1.414zm1.554 1.001l7.517 2.736.684-1.88L16 32.607l-.684 1.879zm8.202.857a2.236 2.236 0 01-.825-.536l-1.414 1.415c.448.448.968.787 1.554 1l.685-1.88zm-1.19-.768l-7.517-2.736-.684 1.879 7.517 2.736.684-1.88z" fill="#575843" mask="url(#f)"/><mask id="g" fill="#fff"><path d="M16.875 27c.44 0 .846.068 1.22.204l7.517 2.736a3.543 3.543 0 00-1.22-.204L16.875 27z"/></mask><path d="M16.875 27c.44 0 .846.068 1.22.204l7.517 2.736a3.543 3.543 0 00-1.22-.204L16.875 27z" fill="#575843"/><path d="M25.44 30.41h.002l.342-.94h-.002l-.341.94zm-7.344-3.206l-.343.94.343-.94zM16.875 27v-1a1 1 0 00-.342 1.94l.342-.94zm7.517 2.736l-.341.94a1 1 0 00.341.06v-1zm1.22.204l-.342.94a1 1 0 00.684-1.88l-.342.94zm-7.174-3.675A4.54 4.54 0 0016.875 26v2c.335 0 .624.052.878.144l.685-1.88zm-1.905 1.675l7.517 2.736.685-1.88-7.518-2.736-.684 1.88zm7.86 2.796c.334 0 .623.052.877.144l.683-1.88a4.538 4.538 0 00-1.56-.264v2zM25.952 29l-7.515-2.735-.684 1.88 7.516 2.735.684-1.88z" fill="#575843" mask="url(#g)"/><mask id="h" fill="#fff"><path d="M4.427 60.355a6.747 6.747 0 002.323.394l7.517 2.736a6.745 6.745 0 01-2.323-.393l-7.517-2.736z"/></mask><path d="M4.427 60.355a6.747 6.747 0 002.323.394l7.517 2.736a6.745 6.745 0 01-2.323-.393l-7.517-2.736z" fill="#575843"/><path d="M6.75 60.749l.342-.94a1 1 0 00-.342-.06v1zm-2.323-.394l.342-.94a1 1 0 00-.684 1.88l.342-.94zm7.517 2.737l-.342.94.342-.94zm2.323.393v1a1 1 0 00.342-1.94l-.342.94zM6.75 59.75c-.72 0-1.378-.114-1.981-.333l-.684 1.88c.84.304 1.73.453 2.665.453v-2zm-2.665 1.546l7.517 2.736.684-1.88-7.517-2.735-.684 1.88zm7.517 2.736c.84.306 1.73.454 2.665.454v-2c-.72 0-1.377-.114-1.98-.333l-.685 1.88zm3.007-1.486L7.092 59.81l-.684 1.88 7.517 2.736.684-1.88z" fill="#575843" mask="url(#h)"/><mask id="i" fill="#fff"><path d="M16.875 33.75a3.53 3.53 0 01-1.215-.203l7.516 2.736c.373.136.779.204 1.217.204l-7.518-2.736z"/></mask><path d="M16.875 33.75a3.53 3.53 0 01-1.215-.203l7.516 2.736c.373.136.779.204 1.217.204l-7.518-2.736z" fill="#575843"/><path d="M15.487 34.017h.002l.342-.94h-.002l-.342.94zm.173-.47l.341-.94a1 1 0 00-.683 1.88l.342-.94zm1.215.204l.343-.94a1 1 0 00-.343-.06v1zm7.518 2.736v1a1 1 0 00.342-1.94l-.342.94zm-1.217-.204l.342-.94-.342.94zm-7.858-1.796a4.53 4.53 0 001.557.264v-2c-.332 0-.62-.051-.873-.143l-.684 1.88zm1.215.204l7.518 2.736.684-1.88-7.517-2.736-.685 1.88zm7.86.796c-.333 0-.622-.051-.875-.144l-.684 1.88a4.52 4.52 0 001.559.264v-2zm-.875-.144l-7.516-2.735-.684 1.88 7.516 2.735.684-1.88z" fill="#575843" mask="url(#i)"/><mask id="j" fill="#fff"><path d="M18.096 27.205c.44.16.835.415 1.186.764l7.517 2.736a3.237 3.237 0 00-1.186-.764l-7.517-2.736z"/></mask><path d="M18.096 27.205c.44.16.835.415 1.186.764l7.517 2.736a3.237 3.237 0 00-1.186-.764l-7.517-2.736z" fill="#575843"/><path d="M19.282 27.97l-.706.707a1 1 0 00.363.232l.343-.94zm-1.186-.765l.342-.94a1 1 0 00-.685 1.88l.343-.94zm7.517 2.736l.343-.94-.343.94zm1.186.764l-.342.94a1 1 0 001.048-1.648l-.706.708zm-6.812-3.444a4.237 4.237 0 00-1.549-.995l-.685 1.879c.297.108.57.28.823.532l1.411-1.416zm-2.233.884l7.517 2.736.684-1.88-7.517-2.736-.684 1.88zm7.517 2.736c.296.108.57.28.822.533l1.412-1.417a4.238 4.238 0 00-1.55-.995l-.684 1.879zm1.87-1.115l-7.517-2.736-.684 1.879 7.517 2.736.684-1.88z" fill="#575843" mask="url(#j)"/><path d="M20.572 45.917l-6.555-2.386a2.71 2.71 0 01.597-1.477l6.538 2.38c-.3.445-.493.942-.58 1.483zm5.19-10.249c-.379.2-.805.305-1.284.316l-5.845-2.127c.27-.134.525-.303.764-.506l6.366 2.317zm32.92-33.432H14.356L9.586.5h44.326l4.77 1.736zM27.184 32.367l-6.448-2.347a3.9 3.9 0 00-.235-1.075l6.018 2.19c.333.357.555.765.665 1.232zm-12.436 13.48a2.676 2.676 0 01-.665-1.228l6.448 2.347c.03.378.108.736.235 1.072l-6.018-2.19zm7.124-2.216l-6.364-2.316A2.869 2.869 0 0116.79 41l5.844 2.127a3.72 3.72 0 00-.762.503zm4.782-8.701l-6.538-2.38c.3-.445.492-.94.58-1.48l6.555 2.385a2.699 2.699 0 01-.597 1.474z" fill="#575843" stroke="#575843" stroke-linejoin="round"/><mask id="k" fill="#fff"><path d="M15.658 47.045a3.233 3.233 0 01-1.19-.768l7.518 2.736c.351.352.748.608 1.19.769l-7.518-2.737z"/></mask><path d="M15.658 47.045a3.233 3.233 0 01-1.19-.768l7.518 2.736c.351.352.748.608 1.19.769l-7.518-2.737z" fill="#575843"/><path d="M14.469 46.277l.342-.94a1 1 0 00-1.05 1.647l.708-.707zm1.189.768l-.342.94.342-.94zm7.517 2.736l-.342.94a1 1 0 00.685-1.88l-.343.94zm-1.189-.767l.707-.708a1 1 0 00-.365-.232l-.342.94zm-8.224-2.03a4.21 4.21 0 001.554 1L16 46.107a2.235 2.235 0 01-.824-.536l-1.414 1.414zm1.554 1.001l7.517 2.736.684-1.88L16 46.107l-.684 1.879zm8.202.857a2.236 2.236 0 01-.825-.536l-1.414 1.415c.448.448.968.787 1.554 1l.685-1.88zm-1.19-.768l-7.517-2.736-.684 1.879 7.517 2.736.684-1.88z" fill="#575843" mask="url(#k)"/><mask id="l" fill="#fff"><path d="M16.875 40.5c.44 0 .846.068 1.22.205l7.517 2.735a3.543 3.543 0 00-1.22-.204L16.875 40.5z"/></mask><path d="M16.875 40.5c.44 0 .846.068 1.22.205l7.517 2.735a3.543 3.543 0 00-1.22-.204L16.875 40.5z" fill="#575843"/><path d="M25.44 43.91h.002l.342-.94h-.002l-.341.94zm-7.344-3.205l-.343.94.343-.94zm-1.221-.205v-1a1 1 0 00-.342 1.94l.342-.94zm7.517 2.736l-.341.94a1 1 0 00.341.06v-1zm1.22.204l-.342.94a1 1 0 00.684-1.88l-.342.94zm-7.174-3.675a4.54 4.54 0 00-1.563-.265v2c.335 0 .624.052.878.144l.685-1.88zm-1.905 1.675l7.517 2.736.685-1.88-7.518-2.736-.684 1.88zm7.86 2.796c.334 0 .623.052.877.144l.683-1.88a4.538 4.538 0 00-1.56-.264v2zm1.56-1.736l-7.515-2.735-.684 1.88 7.516 2.735.684-1.88z" fill="#575843" mask="url(#l)"/><path d="M34.017 22.272L27.5 19.9v-5.686l6.517 2.372v5.686z" fill="#575843" stroke="#575843" stroke-linejoin="round"/><mask id="m" fill="#fff"><path d="M16.875 47.25a3.53 3.53 0 01-1.215-.203l7.516 2.736c.373.136.779.204 1.217.204l-7.518-2.736z"/></mask><path d="M16.875 47.25a3.53 3.53 0 01-1.215-.203l7.516 2.736c.373.136.779.204 1.217.204l-7.518-2.736z" fill="#575843"/><path d="M15.487 47.517h.002l.342-.94h-.002l-.342.94zm.173-.47l.341-.94a1 1 0 00-.683 1.88l.342-.94zm1.215.204l.343-.94a1 1 0 00-.343-.06v1zm7.518 2.736v1a1 1 0 00.342-1.94l-.342.94zm-1.217-.204l.342-.94-.342.94zm-7.858-1.796a4.53 4.53 0 001.557.264v-2c-.332 0-.62-.051-.873-.143l-.684 1.88zm1.215.204l7.518 2.736.684-1.88-7.517-2.736-.685 1.88zm7.86.796c-.333 0-.622-.051-.875-.144l-.684 1.88a4.52 4.52 0 001.559.264v-2zm-.875-.144l-7.516-2.735-.684 1.88 7.516 2.735.684-1.88z" fill="#575843" mask="url(#m)"/><mask id="n" fill="#fff"><path d="M18.096 40.705c.44.16.835.415 1.186.764l7.517 2.736a3.237 3.237 0 00-1.186-.764l-7.517-2.736z"/></mask><path d="M18.096 40.705c.44.16.835.415 1.186.764l7.517 2.736a3.237 3.237 0 00-1.186-.764l-7.517-2.736z" fill="#575843"/><path d="M19.282 41.47l-.706.708a1 1 0 00.363.23l.343-.939zm-1.186-.765l.342-.94a1 1 0 00-.685 1.88l.343-.94zm7.517 2.736l.343-.94-.343.94zm1.186.764l-.342.94a1 1 0 001.048-1.648l-.706.708zm-6.812-3.444a4.237 4.237 0 00-1.549-.995l-.685 1.879c.297.108.57.28.823.532l1.411-1.416zm-2.233.884l7.517 2.736.684-1.88-7.517-2.736-.684 1.88zm7.517 2.736c.296.108.57.28.822.533l1.412-1.417a4.238 4.238 0 00-1.55-.995l-.684 1.879zm1.87-1.115l-7.517-2.736-.684 1.879 7.517 2.736.684-1.88z" fill="#575843" mask="url(#n)"/><path d="M25.762 49.168c-.379.2-.805.305-1.284.316l-5.845-2.127c.27-.134.525-.303.764-.506l6.366 2.317zm1.422-3.301l-6.448-2.347a3.9 3.9 0 00-.235-1.075l6.018 2.19c.333.357.555.765.665 1.232zm-.53 2.563l-6.538-2.38c.3-.445.492-.94.58-1.48l6.555 2.385a2.699 2.699 0 01-.597 1.474zm7.363-12.658L27.5 33.4v-5.686l6.517 2.372v5.686zm.589-20.036L29.836 14h17.326l4.77 1.736H34.606zm-.589 33.536L27.5 46.9v-5.686l6.517 2.372v5.686zm17.915-26.786H34.606l-4.77-1.736h17.326l4.77 1.736zm-17.326 6.75l-4.77-1.736h17.326l4.77 1.736H34.606z" fill="#575843" stroke="#575843" stroke-linejoin="round"/><path d="M51.932 35.986H34.606l-4.77-1.736h17.326l4.77 1.736zm-17.326 6.75L29.836 41h17.326l4.77 1.736H34.606zm-20.25 20.25l-4.77-1.736h44.326l4.77 1.736H14.356zm39.911-40.714L47.75 19.9v-5.686l6.517 2.372v5.686zm-2.335 27.214H34.606l-4.77-1.736h17.326l4.77 1.736z" fill="#575843" stroke="#575843" stroke-linejoin="round"/><mask id="o" fill="#fff"><path d="M56.323.394A6.745 6.745 0 0054 0l7.517 2.736c.828 0 1.602.131 2.324.394L56.323.394z"/></mask><path d="M56.323.394A6.745 6.745 0 0054 0l7.517 2.736c.828 0 1.602.131 2.324.394L56.323.394z" fill="#575843"/><path d="M54 0v-1a1 1 0 00-.342 1.94L54 0zm2.323.394l.342-.94-.342.94zm7.518 2.736l-.342.94a1 1 0 00.684-1.88l-.342.94zm-2.324-.394l-.342.94a1 1 0 00.343.06v-1zM54 1c.72 0 1.378.114 1.981.333l.684-1.88A7.744 7.744 0 0054-1v2zm1.981.333L63.5 4.07l.684-1.879-7.518-2.736-.684 1.88zm8.201.857a7.743 7.743 0 00-2.665-.454v2c.72 0 1.378.114 1.982.333l.683-1.88zm-2.322-.394L54.342-.94 53.658.94l7.517 2.736.685-1.88z" fill="#575843" mask="url(#o)"/><mask id="p" fill="#fff"><path d="M58.769 1.98c-.733-.73-1.547-1.26-2.443-1.586l7.515 2.735c.897.326 1.712.855 2.446 1.587L58.769 1.98z"/></mask><path d="M58.769 1.98c-.733-.73-1.547-1.26-2.443-1.586l7.515 2.735c.897.326 1.712.855 2.446 1.587L58.769 1.98z" fill="#575843"/><path d="M56.152.862l.003.001.342-.94h-.003l-.342.94zm.174-.468l.342-.94a1 1 0 00-.684 1.88l.342-.94zM58.77 1.98l-.706.708a1 1 0 00.364.232l.342-.94zm7.518 2.736l-.343.94a1 1 0 001.049-1.647l-.706.707zM63.84 3.13l-.342.94.342-.94zm-7.857-1.796c.748.273 1.44.718 2.078 1.355l1.413-1.416C58.65.447 57.713-.166 56.668-.546l-.684 1.88zm2.443 1.587l7.518 2.736.684-1.88L59.11 1.04l-.684 1.88zm8.566 1.089c-.828-.827-1.765-1.44-2.81-1.82l-.684 1.88c.749.272 1.442.717 2.081 1.355l1.413-1.415zm-2.81-1.82L56.668-.546l-.684 1.88L63.5 4.067l.684-1.879z" fill="#575843" mask="url(#p)"/><path d="M54.267 35.772L47.75 33.4v-5.686l6.517 2.372v5.686zM67.73 8.758l-6.488-2.362a6.93 6.93 0 00-.994-3.345l5.76 2.097c1.005 1.035 1.575 2.233 1.721 3.61zM54.267 49.272L47.75 46.9v-5.686l6.517 2.372v5.686zm13.5 6.75L61.25 53.65V7.464l6.517 2.372v46.186zm-6.163 6.964l-5.544-2.018c1.041-.3 1.987-.843 2.83-1.622l6.44 2.344c-1.076.85-2.313 1.28-3.726 1.296zm4.546-2.062l-6.51-2.37a6.89 6.89 0 001.579-3.851l6.54 2.38c-.072 1.47-.605 2.744-1.609 3.84z" fill="#575843" stroke="#575843" stroke-linejoin="round"/><path d="M17.11 47.25c.969 0 1.782-.324 2.44-.972.654-.646.981-1.447.981-2.403s-.327-1.758-.982-2.406c-.657-.646-1.47-.969-2.44-.969s-1.782.323-2.44.969c-.654.648-.982 1.45-.982 2.406 0 .956.328 1.757.983 2.403.657.648 1.47.972 2.44.972zm0-13.5c.969 0 1.782-.324 2.44-.972.654-.646.981-1.447.981-2.403s-.327-1.758-.982-2.406c-.657-.646-1.47-.969-2.44-.969s-1.782.323-2.44.969c-.654.648-.982 1.45-.982 2.406 0 .956.328 1.757.983 2.403.657.648 1.47.972 2.44.972zm0-13.5c.969 0 1.782-.324 2.44-.972.654-.646.981-1.447.981-2.403s-.327-1.758-.982-2.406c-.657-.646-1.47-.969-2.44-.969s-1.782.323-2.44.969c-.654.648-.982 1.45-.982 2.406 0 .956.328 1.757.983 2.403.657.648 1.47.972 2.44.972zm10.265 27h20.531V40.5H27.375v6.75zm0-13.5h20.531V27H27.375v6.75zm0-13.5h20.531V13.5H27.375v6.75zM6.844 60.75c-1.882 0-3.494-.66-4.835-1.981C.669 57.446 0 55.856 0 54V6.75c0-1.856.67-3.446 2.009-4.769C3.35.661 4.962 0 6.844 0H54.75c1.882 0 3.494.66 4.835 1.981 1.34 1.323 2.009 2.913 2.009 4.769V54c0 1.856-.67 3.446-2.009 4.769-1.341 1.32-2.953 1.981-4.835 1.981H6.844z" fill="#EBEBEA"/></svg>