<svg width="136" height="63" viewBox="0 0 136 63" fill="none" xmlns="http://www.w3.org/2000/svg"><path d="M45.71 34.953v-8.094c0-.623-.22-1.027-.657-1.21.437-.553.974-.83 1.609-.83 1.185 0 1.778.702 1.778 2.104v8.412c0 1.062.29 1.87.868 2.422.593.552 1.419.828 2.477.828 1.06 0 1.878-.269 2.457-.807.592-.553.889-1.367.889-2.443v-8.476c0-.623-.22-1.027-.657-1.21.438-.553.981-.83 1.63-.83 1.172 0 1.758.702 1.758 2.104v8.03c0 1.798-.501 3.207-1.503 4.227-.988 1.02-2.513 1.53-4.574 1.53-2.046 0-3.57-.51-4.573-1.53-1.002-1.02-1.503-2.429-1.503-4.227zm15.017 3.632V26.86c0-.623-.212-1.027-.635-1.21.437-.553 1.058-.83 1.863-.83 1.058 0 1.94.567 2.646 1.7l6.373 10.41V26.86c0-.623-.212-1.027-.635-1.21.41-.553.953-.83 1.63-.83 1.172 0 1.757.702 1.757 2.104V38.65c0 .637.142 1.119.424 1.444-.367.411-.897.616-1.588.616a2.918 2.918 0 01-1.82-.616c-.523-.425-1.088-1.126-1.695-2.103l-5.568-9.028v9.687c0 .609.205 1.02.614 1.232-.438.552-.974.828-1.61.828-1.17 0-1.756-.708-1.756-2.124zm19.229-11.662v11.726c0 .623.212 1.034.635 1.232-.437.552-.98.828-1.63.828-1.157 0-1.736-.708-1.736-2.124V26.86c0-.623-.212-1.027-.635-1.21.41-.553.945-.83 1.609-.83 1.171 0 1.757.702 1.757 2.104zm16.85 14.551c.296.326.445.715.445 1.169 0 .51-.149.941-.445 1.295-.593.708-1.447 1.063-2.562 1.063-1.115 0-2.195-.27-3.24-.808-1.044-.538-1.87-1.154-2.476-1.848-.593-.694-.89-1.303-.89-1.827 0-.212.092-.39.276-.53.197-.157.592-.355 1.185-.596 1.595-.637 2.823-1.565 3.684-2.783.875-1.217 1.313-2.655 1.313-4.312 0-1.671-.424-3.023-1.27-4.057-.847-1.048-1.892-1.572-3.134-1.572-1.228 0-2.195.467-2.9 1.402-.692.934-1.038 2.152-1.038 3.654 0 1.487.325 2.627.974 3.42.663.779 1.538 1.203 2.625 1.274-.14.496-.395.92-.762 1.275-.367.34-.811.51-1.334.51-1.115 0-2.11-.531-2.985-1.594-.875-1.062-1.313-2.386-1.313-3.972 0-2.223.685-4.079 2.054-5.566 1.37-1.5 3.077-2.251 5.124-2.251 2.046 0 3.698.63 4.954 1.89 1.256 1.246 1.884 2.953 1.884 5.12 0 2.167-.635 4.036-1.905 5.608s-3.028 2.655-5.272 3.25c1.242 1.034 2.78 1.55 4.615 1.55.918 0 1.715-.254 2.393-.764zm3.988-16.464h7.834c1.143 0 1.715.461 1.715 1.382 0 .354-.149.708-.445 1.062-.494-.241-1.193-.361-2.096-.361h-2.138v11.556c0 .623.211 1.034.635 1.232-.438.552-.981.828-1.631.828-1.157 0-1.736-.708-1.736-2.124V27.093h-2.964c-1.143 0-1.715-.454-1.715-1.36 0-.368.156-.722.466-1.062.48.227 1.172.34 2.075.34zm22.047 2.869c0 .467-.141.842-.423 1.125-.283.284-.671.425-1.165.425-.48 0-.924-.134-1.334-.403.099-.241.149-.496.149-.765 0-.44-.233-.828-.699-1.168-.466-.354-1.122-.532-1.969-.532-.833 0-1.517.17-2.054.51-.522.326-.783.765-.783 1.317 0 .553.296 1.055.889 1.509.607.439 1.334.842 2.181 1.21a50.75 50.75 0 012.54 1.19c.861.41 1.588.949 2.181 1.615.607.651.911 1.395.911 2.23 0 1.331-.586 2.429-1.758 3.293-1.157.85-2.562 1.274-4.213 1.274-1.637 0-3.013-.325-4.129-.977-1.115-.665-1.672-1.515-1.672-2.549 0-.538.176-.97.529-1.296.353-.325.798-.488 1.334-.488s1.016.198 1.44.594c-.339.34-.508.744-.508 1.211 0 .468.268.871.804 1.211.551.34 1.292.51 2.223.51.946 0 1.715-.212 2.308-.637.607-.425.91-.95.91-1.572 0-.623-.303-1.162-.91-1.615-.593-.467-1.313-.878-2.16-1.232-.846-.368-1.7-.75-2.561-1.147a7.374 7.374 0 01-2.181-1.53c-.593-.637-.889-1.366-.889-2.188 0-1.274.543-2.294 1.63-3.059 1.101-.778 2.442-1.168 4.023-1.168 1.58 0 2.865.297 3.853.892 1.002.581 1.503 1.317 1.503 2.21zm3.593-2.869h7.834c1.143 0 1.714.461 1.714 1.382 0 .354-.148.708-.444 1.062-.494-.241-1.193-.361-2.096-.361h-2.139v11.556c0 .623.212 1.034.636 1.232-.438.552-.981.828-1.631.828-1.157 0-1.736-.708-1.736-2.124V27.093h-2.964c-1.143 0-1.715-.454-1.715-1.36 0-.368.155-.722.466-1.062.48.227 1.171.34 2.075.34z" fill="#fff"/><path fill-rule="evenodd" clip-rule="evenodd" d="M27.605 1.04c-3.185.314-5.498 2.232-6.793 5.63-.597 1.567-.607 1.925-.057 2.052.156.035.17.011-.21.345a9.9 9.9 0 00-1.615 1.846c-.125.189-.245.364-.265.39-.033.041-.035-.04-.026-.93.015-1.504.104-2.186.477-3.682.25-1.007.381-1.405.738-2.258.47-1.126.376-1.547-.402-1.78-1.492-.449-3.035.884-3.23 2.789-.24 2.369.161 6.325.964 9.484.234.918.313 1.043.659 1.044.361.001.464-.209.68-1.387.192-1.048.883-2.14 2.073-3.275.379-.362.353-.35.428-.203.706 1.38 2.378 2.509 3.997 2.7 3.765.442 8.25-1.216 14.752-5.455.689-.449.817-.683.54-.986-.052-.057-.036-.064.096-.04.64.12.81-.537.25-.97-4.79-3.715-9.568-5.66-13.056-5.315zm1.563 2.683c1.539.107 2.845.509 5.998 1.845 2.072.878 3.03 1.236 3.96 1.481.274.072.271.082-.027.1-1.506.091-2.893.65-5.478 2.208-2.203 1.327-2.821 1.68-3.66 2.09-3.646 1.785-6.25 1.478-7.838-.923-.226-.34-.24-.29.149-.546 1.085-.714 1.87-1.066 3.807-1.705 1.415-.467 1.424-.473 1.427-.807.004-.456-.367-.578-1.667-.55a7.87 7.87 0 00-3.868 1.09c-.13.077-.238.134-.238.127 0-.023.299-.436.547-.755 2.064-2.656 4.289-3.837 6.888-3.655zm-19.05 6.089c-3.602.504-5.53 3.58-4.767 7.604.29 1.531.76 3.05 1.578 5.103.598 1.5.775 2.112 1.163 4.026.214 1.053.07 1.949-.491 3.035-.295.571-.975 1.396-2.75 3.342-2.798 3.062-4.41 5.849-4.747 8.2-.263 1.844-.003 3.996.505 4.174.394.137.581-.055.697-.712.458-2.605 1.338-4.692 2.79-6.616.95-1.258 1.406-1.764 2.456-2.725 3.577-3.276 4.456-4.617 4.598-7.02.105-1.764-.268-3.274-1.715-6.954-1.358-3.455-1.568-4.405-1.284-5.815.444-2.205 2.583-3.586 5.732-3.7.796-.03 1.105-.492.59-.88-1.002-.754-3.027-1.248-4.354-1.062zm19.64 4.435c-.127.057-.203.153-.278.352-.939 2.472-1.628 3.88-2.844 5.81-2.489 3.948-2.938 6.98-1.551 10.46.879 2.205 1.744 3.307 5.48 6.984 4.027 3.962 5.154 5.9 5.344 9.187.359 6.21-5.223 9.64-11.379 6.992-.586-.253-.935-.118-.915.351.008.198.018.213.398.627 4.473 4.88 12.405 2.645 14.106-3.976 1.103-4.291.331-7.929-2.415-11.388-.709-.893-1.317-1.559-2.876-3.146-1.35-1.376-2.349-2.424-2.898-3.042-3.095-3.482-3.826-6.04-2.694-9.429.266-.798.537-1.424 1.342-3.104 1.082-2.259 1.506-3.397 1.724-4.634.136-.773.184-1.659.099-1.823a.491.491 0 00-.644-.22zm-4.37 22.33c-.396.109-2.267 2.054-2.571 2.674-.21.427-.118.577.897 1.47.99.873 1.108.933 1.525.779.433-.161.502-.371.443-1.356-.052-.861-.053-.843.208-1.974.133-.576.22-1.005.22-1.078-.001-.356-.362-.614-.721-.515zm-11.729.774c-.617.177-.597.457.13 1.855.69 1.326.678 1.297.884 2.134.252 1.024.37 1.181.888 1.18.43 0 .476-.046 1.148-1.123.895-1.435.899-1.406-.383-2.467-.737-.609-2.058-1.508-2.325-1.581a.703.703 0 00-.342.002zm7.807 6.928c-.342.076-.417.327-.266.899 1.57 5.978-.333 10.594-5.025 12.183-5.902 2-11.601-.987-14.438-7.564-.171-.398-.269-.486-.535-.486-.422.001-.53.248-.417.963 1.251 7.968 8.545 12.467 16.363 10.092 6.484-1.97 8.277-7.427 5.057-15.39-.261-.646-.396-.773-.739-.697z" fill="#fff"/></svg>