<svg width="67" height="55" viewBox="0 0 67 55" fill="none" xmlns="http://www.w3.org/2000/svg"><g clip-path="url(#clip0_623_4448)" fill="#fff"><path d="M54.133 11.81l-2.065-7.737A5.43 5.43 0 0045.414.221L4.063 11.33c-2.898.78-4.619 3.767-3.844 6.675l7.385 27.623c.335 1.268 1.112 2.294 2.1 2.997V20.888c0-5.007 4.057-9.078 9.048-9.078h35.381z"/><path d="M61.565 15.44H18.753c-2.998 0-5.429 2.44-5.429 5.449v28.596c0 3.01 2.431 5.448 5.43 5.448h42.81c3 0 5.434-2.438 5.434-5.448V20.889c0-3.01-2.433-5.449-5.433-5.449zM37.057 44.355h-16.46v-6.399a3.413 3.413 0 013.408-3.415h1.339c-1.271-1.025-2.102-2.58-2.102-4.342a5.59 5.59 0 015.586-5.601 5.59 5.59 0 015.586 5.601c0 1.764-.83 3.319-2.1 4.342h1.337a3.413 3.413 0 013.408 3.415v6.4h-.002zm16.394.033H42.64v-3.63h10.81v3.63zm6.776-8.03H42.64v-3.63h17.588v3.63zm0-8.03H42.64v-3.63h17.588v3.63z"/></g><defs><clipPath id="clip0_623_4448"><path fill="#fff" d="M0 0h67v55H0z"/></clipPath></defs></svg>