<svg width="269" height="442" viewBox="0 0 269 442" fill="none" xmlns="http://www.w3.org/2000/svg"><path opacity=".15" fill-rule="evenodd" clip-rule="evenodd" d="M170.658.289c-23.377 2.32-40.364 16.45-49.863 41.473-4.385 11.55-4.459 14.186-.423 15.12 1.145.265 1.252.087-1.542 2.548-4.277 3.767-8.732 8.876-11.855 13.593-.922 1.394-1.798 2.687-1.945 2.872-.245.309-.261-.287-.194-6.843.115-11.084.763-16.107 3.502-27.127 1.844-7.417 2.798-10.348 5.42-16.638 3.457-8.295 2.76-11.393-2.95-13.114-10.956-3.301-22.284 6.517-23.71 20.549-1.772 17.451 1.179 46.598 7.074 69.868 1.714 6.763 2.294 7.686 4.837 7.691 2.651.006 3.406-1.54 4.993-10.222 1.41-7.72 6.482-15.76 15.218-24.123 2.782-2.664 2.591-2.573 3.14-1.497 5.183 10.165 17.457 18.483 29.345 19.887 27.638 3.263 60.562-8.952 108.302-40.179 5.058-3.308 5.997-5.032 3.961-7.268-.381-.42-.265-.466.706-.286 4.707.874 5.949-3.96 1.84-7.157C231.339 12.07 196.267-2.253 170.658.289zm11.476 19.767c11.301.791 20.886 3.75 44.037 13.595 15.213 6.47 22.24 9.106 29.075 10.911 2.008.53 1.989.603-.201.736-11.06.67-21.244 4.788-40.219 16.263-16.174 9.78-20.71 12.38-26.864 15.401-26.775 13.144-45.895 10.884-57.548-6.8-1.656-2.513-1.756-2.144 1.095-4.027 7.965-5.26 13.726-7.849 27.949-12.56 10.386-3.44 10.457-3.48 10.479-5.944.028-3.357-2.696-4.257-12.238-4.045-10.23.228-19.817 2.937-28.4 8.024-.959.568-1.743.99-1.743.94 0-.176 2.19-3.216 4.01-5.566 15.153-19.565 31.489-28.264 50.568-26.928zM42.287 64.912C15.837 68.63 1.68 91.285 7.283 120.927c2.133 11.283 5.583 22.475 11.588 37.598 4.388 11.047 5.686 15.555 8.539 29.655 1.57 7.762.506 14.359-3.61 22.358-2.167 4.211-7.152 10.288-20.194 24.617-20.531 22.559-32.373 43.091-34.84 60.409-1.935 13.585-.024 29.439 3.707 30.747 2.888 1.013 4.266-.4 5.114-5.241 3.361-19.192 9.824-34.565 20.49-48.74 6.975-9.27 10.32-12.994 18.026-20.076 26.259-24.127 32.708-34.007 33.755-51.712.769-12.99-1.965-24.116-12.59-51.227-9.973-25.449-11.514-32.447-9.43-42.839 3.258-16.239 18.967-26.414 42.087-27.26 5.836-.215 8.108-3.62 4.323-6.479-7.35-5.555-22.217-9.194-31.96-7.825zm144.176 32.676c-.931.42-1.484 1.123-2.039 2.589-6.889 18.214-11.95 28.588-20.878 42.802-18.27 29.087-21.572 51.425-11.388 77.053 6.456 16.247 12.806 24.367 40.24 51.453 29.555 29.182 37.83 43.457 39.224 67.675 2.636 45.75-38.345 71.018-83.535 51.506-4.302-1.858-6.868-.869-6.721 2.59.062 1.454.136 1.57 2.922 4.62 32.843 35.949 91.072 19.479 103.561-29.292 8.095-31.614 2.433-58.408-17.728-83.891-5.205-6.58-9.671-11.482-21.114-23.18-9.913-10.134-17.243-17.852-21.275-22.404-22.723-25.651-28.089-44.494-19.782-69.46 1.955-5.878 3.943-10.491 9.853-22.868 7.946-16.641 11.054-25.027 12.654-34.133 1.001-5.695 1.355-12.222.73-13.434-.89-1.727-2.938-2.432-4.724-1.626zM154.39 262.084c-2.909.802-16.646 15.135-18.882 19.702-1.538 3.14-.865 4.247 6.585 10.83 7.275 6.429 8.137 6.87 11.198 5.731 3.182-1.183 3.687-2.731 3.253-9.984-.379-6.345-.394-6.211 1.525-14.544.976-4.242 1.62-7.403 1.618-7.942-.011-2.624-2.66-4.521-5.297-3.793zm-86.111 5.699c-4.532 1.306-4.387 3.372.954 13.672 5.065 9.766 4.976 9.552 6.486 15.715 1.849 7.544 2.72 8.706 6.525 8.7 3.15-.005 3.494-.343 8.424-8.277 6.567-10.571 6.6-10.356-2.814-18.172-5.404-4.487-15.105-11.108-17.067-11.65-.737-.203-1.778-.198-2.509.012zm57.314 51.038c-2.512.56-3.059 2.413-1.956 6.623 11.534 44.042-2.44 78.045-36.888 89.752-43.327 14.724-85.17-7.275-105.994-55.728-1.258-2.927-1.976-3.58-3.928-3.575-3.103.009-3.889 1.827-3.065 7.093 9.185 58.7 62.733 91.838 120.129 74.343 47.6-14.511 60.765-54.713 37.126-113.372-1.918-4.759-2.909-5.698-5.424-5.136z" fill="#272727"/></svg>